<?xml version="1.0" encoding="UTF-8"?>
<svg version="1.1" xmlns="http://www.w3.org/2000/svg" width="1024" height="1024">
<path d="M0 0 C337.92 0 675.84 0 1024 0 C1024 337.92 1024 675.84 1024 1024 C686.08 1024 348.16 1024 0 1024 C0 686.08 0 348.16 0 0 Z " fill="#F89C5F" transform="translate(0,0)"/>
<path d="M0 0 C5.46497836 6.679418 8.62440088 12.30871385 8.53515625 21.0546875 C7.71747593 28.78344666 2.94540856 36.31281103 -2.5 41.6875 C-18.89879295 54.88904401 -44.65721217 58.80802396 -64.78125 61.92578125 C-70.72617576 62.86738298 -76.64456833 63.86976784 -82 66.75 C-82.62390625 67.08 -83.2478125 67.41 -83.890625 67.75 C-84.50421875 68.08 -85.1178125 68.41 -85.75 68.75 C-86.44609375 69.03875 -87.1421875 69.3275 -87.859375 69.625 C-90.2295851 71.03537295 -90.66097564 72.24843359 -91.75 74.75 C-92.71169835 76.19924459 -93.69194646 77.63629989 -94.6875 79.0625 C-99.51519987 86.18013436 -99.51519987 86.18013436 -100.5 94.5625 C-99.90871238 97.62463056 -99.90871238 97.62463056 -98.75 99.75 C-96.9898247 100.40086671 -96.9898247 100.40086671 -94.83984375 100.828125 C-94.02249756 101.01616699 -93.20515137 101.20420898 -92.36303711 101.39794922 C-91.48010986 101.59662598 -90.59718262 101.79530273 -89.6875 102 C-63.15819286 108.33896589 -44.65684522 120.62434546 -28.75 142.75 C-28.15316406 143.56855469 -27.55632812 144.38710938 -26.94140625 145.23046875 C-18.58230257 157.84511613 -15.3377723 173.87259262 -14.3359375 188.71484375 C-14.22040527 190.33688721 -14.22040527 190.33688721 -14.10253906 191.99169922 C-13.95253639 194.18090126 -13.82123194 196.37147621 -13.70996094 198.56298828 C-13.60989746 200.08061768 -13.60989746 200.08061768 -13.5078125 201.62890625 C-13.4577002 202.5422876 -13.40758789 203.45566895 -13.35595703 204.39672852 C-12.93155198 206.89152365 -12.93155198 206.89152365 -10.86669922 208.57788086 C-8.7696331 209.98136138 -8.7696331 209.98136138 -6.125 209.625 C-3.42012227 208.8932514 -3.42012227 208.8932514 -1.75 205.75 C1.7686376 182.31409949 -5.63413607 154.37503045 -18.51171875 134.74609375 C-22.53404941 129.36192689 -27.0608691 124.5529793 -31.75 119.75 C-32.32105469 119.11707031 -32.89210938 118.48414063 -33.48046875 117.83203125 C-47.39578221 102.77201334 -65.67038235 95.78866687 -84.75 89.75 C-82.40321494 83.42761102 -78.93435774 78.67395152 -72.75 75.75 C-69.13059197 74.95887256 -65.4888034 74.50481658 -61.8125 74.0625 C-60.83603516 73.93294922 -59.85957031 73.80339844 -58.85351562 73.66992188 C-48.59312503 72.35520064 -48.59312503 72.35520064 -44.75 72.75 C-42.75 75.4375 -42.75 75.4375 -40.75 78.75 C-31.34174929 88.15825071 -19.32983258 89.04749257 -6.70239258 89.06689453 C4.14099437 88.9147923 10.99540714 85.66725659 19.25 78.75 C19.724375 79.905 20.19875 81.06 20.6875 82.25 C24.0360491 88.93522392 30.06282027 94.38847581 37.02563477 97.1809082 C42.09656208 98.47827749 47.36308455 98.21863422 52.5625 98.1875 C53.73490234 98.20748047 54.90730469 98.22746094 56.11523438 98.24804688 C65.88865333 98.24258991 73.76213985 96.38497948 81.375 90 C82.12007812 89.38640625 82.86515625 88.7728125 83.6328125 88.140625 C84.16648437 87.68171875 84.70015625 87.2228125 85.25 86.75 C86.24 87.61625 87.23 88.4825 88.25 89.375 C99.85032003 99.2515777 108.63534431 104.100025 124.24072266 102.97753906 C133.75874729 101.89967771 141.60861896 97.14230414 147.63671875 89.87109375 C150.62503963 86.00904363 153.46037329 82.08419685 155.94921875 77.87890625 C156.37847656 77.17636719 156.80773437 76.47382813 157.25 75.75 C157.58 75.75 157.91 75.75 158.25 75.75 C159.96834501 141.95254614 143.24806372 205.10840145 98.25 254.75 C96.09621241 256.97770853 93.91936197 259.16013145 91.67578125 261.296875 C88.88112967 264.14512264 89.10219346 266.53129609 89.04467773 270.39306641 C89.02473251 271.57413971 89.00478729 272.75521301 88.98423767 273.97207642 C88.96752518 275.25230682 88.95081268 276.53253723 88.93359375 277.8515625 C88.9024221 279.81166763 88.9024221 279.81166763 88.87062073 281.81137085 C88.81540706 285.286689 88.76599475 288.76206653 88.71777344 292.23748779 C88.66755323 295.783379 88.61186988 299.3291839 88.55664062 302.875 C88.44906772 309.8332585 88.34762083 316.79159496 88.25 323.75 C65.85341555 323.88206031 43.45682218 324.0125044 21.06021786 324.14115143 C10.65529382 324.2009533 0.25037307 324.26124297 -10.15454102 324.32275391 C-99.85306603 324.85252599 -99.85306603 324.85252599 -136.75 324.75 C-136.7300145 323.98515793 -136.71002899 323.22031586 -136.68943787 322.43229675 C-136.50818116 315.18085162 -136.37162585 307.9305229 -136.28369045 300.67739391 C-136.23695782 296.94938268 -136.17371414 293.22326141 -136.07104492 289.49633789 C-135.97236285 285.89107894 -135.919263 282.28762251 -135.89610481 278.6811161 C-135.87963034 277.31391355 -135.84745933 275.94679622 -135.79842949 274.58037376 C-135.52872846 266.74351299 -136.08993604 261.72791396 -141.13525391 255.53344727 C-142.6518694 253.9183743 -144.18768947 252.32091344 -145.75 250.75 C-146.67470707 249.63590017 -147.58374862 248.50827577 -148.46484375 247.359375 C-149.19832031 246.41578125 -149.93179688 245.4721875 -150.6875 244.5 C-181.2321142 204.76257976 -204.61825862 155.22863361 -199.48193359 104.08056641 C-196.19270777 82.06089762 -183.21170546 61.17218313 -168.75 44.75 C-167.9971875 43.88761719 -167.244375 43.02523437 -166.46875 42.13671875 C-164.25984578 39.64413676 -162.01776036 37.189066 -159.75 34.75 C-159.11578125 34.06164062 -158.4815625 33.37328125 -157.828125 32.6640625 C-135.66501612 9.49353958 -103.41283088 -2.5324466 -71.92578125 -4.1015625 C-70.74010056 -4.16532074 -69.55441986 -4.22907898 -68.33280945 -4.29476929 C-65.83963822 -4.42730599 -63.34628961 -4.55654374 -60.8527832 -4.68261719 C-57.08950414 -4.87362936 -53.32701282 -5.07660532 -49.56445312 -5.28125 C-9.08408319 -7.4324317 -9.08408319 -7.4324317 0 0 Z " fill="#FEB27C" transform="translate(556.75,413.25)"/>
<path d="M0 0 C0.64195312 0.43699219 1.28390625 0.87398438 1.9453125 1.32421875 C2.71101562 1.83339844 3.47671875 2.34257813 4.265625 2.8671875 C14.01319731 9.89637744 20.08233166 19.13024094 22.04049683 31.022995 C23.24459554 39.3343309 23.21096254 47.58304704 23.17236328 55.95629883 C23.1717979 57.69218438 23.1721182 59.42807041 23.17324829 61.16395569 C23.17381785 65.83663338 23.16212842 70.50920661 23.14810038 75.18186021 C23.13552626 80.07986805 23.13441728 84.97787877 23.13204956 89.87590027 C23.12585431 99.13322406 23.10947017 108.39050014 23.08935058 117.64780301 C23.06693045 128.19445092 23.05598283 138.74110121 23.04595971 149.28776705 C23.02510205 170.96661083 22.98996441 192.64541177 22.9453125 214.32421875 C23.62703522 213.83911835 24.30875793 213.35401794 25.01113892 212.85421753 C25.90803436 212.22025055 26.80492981 211.58628357 27.72900391 210.93310547 C28.61697662 210.30363007 29.50494934 209.67415466 30.41983032 209.02560425 C33.27607432 207.10138868 36.11220317 205.696339 39.3203125 204.44921875 C40.29742188 204.05992187 41.27453125 203.670625 42.28125 203.26953125 C53.67929625 199.22506323 65.96944081 200.63280089 76.9453125 205.32421875 C86.75878529 210.31437725 93.58328686 218.32790999 97.9453125 228.32421875 C98.58597656 227.98648438 99.22664063 227.64875 99.88671875 227.30078125 C100.75167969 226.85476563 101.61664062 226.40875 102.5078125 225.94921875 C103.35472656 225.50835937 104.20164062 225.0675 105.07421875 224.61328125 C116.69988705 219.39359344 130.09871623 219.96480097 141.9453125 224.32421875 C145.77227002 226.0962341 149.36710728 228.09605423 152.9453125 230.32421875 C153.8940625 230.90171875 154.8428125 231.47921875 155.8203125 232.07421875 C160.09496245 236.6003187 162.9453125 242.09043122 162.9453125 248.32421875 C163.89535156 247.83566406 164.84539062 247.34710938 165.82421875 246.84375 C170.48847895 244.85114802 174.87692358 244.91783486 179.8828125 245.01171875 C180.73810547 245.00849609 181.59339844 245.00527344 182.47460938 245.00195312 C195.05597025 245.10751756 206.97389443 249.62490436 216.19921875 258.3515625 C221.91577796 264.80986765 224.92314064 272.03185932 226.9453125 280.32421875 C227.12964844 280.96617187 227.31398438 281.608125 227.50390625 282.26953125 C230.09550668 294.33308722 227.11824547 309.27671206 223.94906616 321.01383972 C222.95908571 324.96201377 222.57871611 328.75400716 222.3828125 332.828125 C222.34671875 333.53201355 222.310625 334.2359021 222.2734375 334.96112061 C222.15677164 337.26935706 222.05114717 339.57796265 221.9453125 341.88671875 C221.86408922 343.52176885 221.78204181 345.1567782 221.69921875 346.79174805 C221.48285506 351.09596288 221.27528252 355.40055143 221.0703125 359.70532227 C218.15059014 420.87692716 218.15059014 420.87692716 214.1953125 442.94921875 C214.06559052 443.68881836 213.93586853 444.42841797 213.80221558 445.19042969 C208.16650738 477.17986434 198.29366259 508.85267026 178.9453125 535.32421875 C178.54199707 535.87770996 178.13868164 536.43120117 177.72314453 537.00146484 C172.51543129 544.08151997 166.90570556 550.78123308 161.1496582 557.41918945 C152.68854027 566.58859501 152.68854027 566.58859501 149.8034668 578.17919922 C149.79643234 579.40742401 149.78939789 580.6356488 149.78215027 581.90109253 C149.78033438 582.55926846 149.77851849 583.21744438 149.77664757 583.89556503 C149.76948316 585.95523006 149.75381722 588.01465669 149.73530579 590.07424927 C149.68283415 595.93048842 149.6348576 601.78659722 149.61938477 607.64306641 C149.60930104 611.22475713 149.57996827 614.80584851 149.53806496 618.3873024 C149.52575537 619.75158275 149.52063365 621.11594776 149.52286339 622.48028183 C149.52521693 624.39040186 149.50085507 626.30049814 149.4753418 628.21044922 C149.46947556 629.2969577 149.46360931 630.38346619 149.45756531 631.50289917 C148.78531552 635.20542939 148.00615851 636.11985871 144.9453125 638.32421875 C141.70857197 638.92621135 138.50538705 638.85913576 135.22129822 638.82542419 C134.22361044 638.83095859 133.22592266 638.83649299 132.19800192 638.84219509 C128.84521039 638.8558399 125.49315831 638.84081121 122.14038086 638.82592773 C119.74074486 638.82970948 117.34111104 638.83520832 114.94148254 638.84230042 C109.09486518 638.85483647 103.24844465 638.84867119 97.40184968 638.83362483 C90.59591901 638.81677534 83.79004227 638.8199736 76.98409719 638.82371891 C64.84278871 638.82959883 52.7015839 638.8154202 40.56030273 638.79077148 C28.77347936 638.766845 16.98679448 638.75976909 5.19995117 638.77026367 C-7.63040827 638.78166687 -20.46070364 638.78361078 -33.2910623 638.76916558 C-34.65850825 638.76763971 -36.02595422 638.76611935 -37.39340019 638.76460457 C-38.06624101 638.76384675 -38.73908183 638.76308894 -39.43231176 638.76230816 C-44.17886857 638.75756111 -48.92539682 638.75941971 -53.6719532 638.76366997 C-60.0568918 638.7691042 -66.44168072 638.75837913 -72.82658577 638.73671532 C-75.17481843 638.73113397 -77.52306954 638.73069441 -79.87130356 638.73566818 C-83.0669709 638.7415898 -86.26204327 638.7291758 -89.45765686 638.7118988 C-90.39558124 638.71790885 -91.33350562 638.72391889 -92.29985195 638.73011106 C-93.15330682 638.72167112 -94.0067617 638.71323118 -94.88607883 638.70453548 C-95.99293878 638.70299179 -95.99293878 638.70299179 -97.12215954 638.70141691 C-99.63142296 638.21164933 -100.52321838 637.34153265 -102.0546875 635.32421875 C-102.37939453 632.39346313 -102.37939453 632.39346313 -102.3125 628.76416016 C-102.30502243 628.10185394 -102.29754486 627.43954773 -102.2898407 626.75717163 C-102.27284337 625.31825187 -102.24959557 623.87939551 -102.22085571 622.44066238 C-102.17924506 620.15144051 -102.16307331 617.86339474 -102.1550293 615.57382202 C-102.13118082 609.06421228 -102.09097259 602.55584621 -101.96240234 596.04736328 C-101.88553418 592.06207004 -101.86370581 588.07952118 -101.87567139 584.09354782 C-101.87009203 582.58573024 -101.84480885 581.07783433 -101.79815674 579.5707283 C-101.5062996 569.82823887 -103.13140989 563.67364819 -109.90787506 556.47686958 C-111.28074156 555.08332492 -112.66730429 553.70331156 -114.0546875 552.32421875 C-115.19596217 550.94245886 -116.32019166 549.5457235 -117.40234375 548.1171875 C-117.85706055 547.51962646 -118.31177734 546.92206543 -118.78027344 546.30639648 C-119.22145508 545.71415283 -119.66263672 545.12190918 -120.1171875 544.51171875 C-120.6112207 543.84922119 -121.10525391 543.18672363 -121.61425781 542.50415039 C-144.58872384 511.25872922 -164.89037093 469.51428844 -165.29296875 430.109375 C-165.3010405 429.33597275 -165.30911224 428.5625705 -165.31742859 427.76573181 C-165.33119086 426.13282455 -165.34194774 424.49988948 -165.34985352 422.86694336 C-165.36129751 421.22948513 -165.3816271 419.59206193 -165.41137695 417.95483398 C-165.67517175 403.38422402 -164.01406636 389.89897329 -157.3671875 376.69921875 C-157.0261499 376.00030518 -156.6851123 375.3013916 -156.33374023 374.58129883 C-149.02306706 359.96161136 -139.23209326 346.58625242 -128.15234375 334.61328125 C-126.31450256 332.60774133 -124.59241676 330.55062582 -122.8671875 328.44921875 C-114.25244976 318.60096198 -101.64568949 307.28646858 -89.47216797 302.25732422 C-86.44991545 299.84062099 -86.23217233 297.89867272 -85.77764893 294.14810181 C-85.69762634 293.29227509 -85.61760376 292.43644836 -85.53515625 291.5546875 C-85.43088318 290.64020844 -85.32661011 289.72572937 -85.21917725 288.78353882 C-84.87211217 285.69489019 -84.55761561 282.60374625 -84.2421875 279.51171875 C-83.99975458 277.30370384 -83.75498181 275.09594478 -83.50805664 272.88842773 C-82.96761308 268.0299445 -82.43987867 263.17028758 -81.91992188 258.30957031 C-81.01001046 249.84886601 -80.04456792 241.39491106 -79.0703125 232.94140625 C-78.89840373 231.44872576 -78.72649822 229.95604489 -78.55459595 228.46336365 C-78.29483998 226.2080175 -78.03505798 223.9526744 -77.7751255 221.69734859 C-77.16286238 216.38120839 -76.55615046 211.06445466 -75.95263672 205.74731445 C-75.8679759 205.00151784 -75.78331509 204.25572123 -75.69608879 203.48732471 C-75.52688789 201.99667649 -75.35769015 200.5060279 -75.18849564 199.01537895 C-74.01910278 188.71573055 -72.83982367 178.41757568 -71.609375 168.125 C-67.33214961 132.30079809 -63.75839819 96.39431508 -61.04248047 60.41650391 C-60.49131227 53.17001324 -59.85858409 45.93533287 -59.10546875 38.70703125 C-59.03298416 37.96609222 -58.96049957 37.2251532 -58.88581848 36.46176147 C-57.45548657 23.27669671 -50.79477295 12.91928628 -40.7421875 4.44921875 C-29.86613126 -3.34836055 -12.31554981 -6.88221901 0 0 Z M-5.60375977 295.49609375 C-9.3767288 295.69973373 -13.15019039 295.89123346 -16.92382812 296.08203125 C-19.35941407 296.21150672 -21.79496249 296.34169047 -24.23046875 296.47265625 C-25.89496819 296.5556044 -25.89496819 296.5556044 -27.59309387 296.64022827 C-37.856761 297.21739856 -47.86816041 298.53907827 -57.6171875 301.88671875 C-58.74592285 302.2719873 -58.74592285 302.2719873 -59.89746094 302.66503906 C-80.26983284 309.85974289 -96.63047823 320.3278655 -112.0546875 335.32421875 C-112.60866211 335.8548291 -113.16263672 336.38543945 -113.73339844 336.93212891 C-135.25534841 357.89021091 -151.78125536 387.08679444 -152.40185547 417.42016602 C-152.79040746 469.30549067 -126.71846533 518.48886522 -93.19921875 556.8203125 C-89.64107383 560.97472214 -88.80604179 563.03846953 -88.82763672 568.44799805 C-88.82778778 569.70907883 -88.82793884 570.97015961 -88.82809448 572.26945496 C-88.83830774 573.64578407 -88.84873973 575.02211158 -88.859375 576.3984375 C-88.86310578 577.80662333 -88.86595244 579.21481175 -88.86795044 580.6230011 C-88.87558186 584.32694685 -88.89522602 588.03073543 -88.9173584 591.73461914 C-88.93782747 595.51511509 -88.94695442 599.29563647 -88.95703125 603.07617188 C-88.97847246 610.49225911 -89.01260237 617.90821689 -89.0546875 625.32421875 C-58.87814534 625.4080707 -28.70331213 625.27552427 1.47265625 625.10546875 C2.93054652 625.09725286 2.93054652 625.09725286 4.41788912 625.088871 C16.48146345 625.02066247 28.54502392 624.95015299 40.60858023 624.87883663 C51.03017342 624.81728264 61.45177562 624.75732325 71.87337863 624.69746113 C93.23069997 624.57474992 114.58800993 624.45015098 135.9453125 624.32421875 C135.9422963 623.60282715 135.93928009 622.88143555 135.93617249 622.13818359 C135.91385066 615.31206869 135.92526076 608.48673622 135.97377872 601.66078186 C135.9975501 598.15197427 136.00865383 594.64411274 135.98999023 591.13525391 C135.96906286 587.09331375 136.00470205 583.05353527 136.04296875 579.01171875 C136.02871353 577.76245605 136.01445831 576.51319336 135.99977112 575.22607422 C136.0982335 569.26227034 136.32209787 565.27496364 140.32128906 560.66015625 C141.50598627 559.52337436 142.71280061 558.40897448 143.9453125 557.32421875 C144.91684194 556.31222257 145.88094347 555.29294993 146.83203125 554.26171875 C147.28908447 553.78387939 147.7461377 553.30604004 148.21704102 552.8137207 C155.49612594 545.155556 161.91023768 536.99038332 167.9453125 528.32421875 C168.4079248 527.66421875 168.87053711 527.00421875 169.34716797 526.32421875 C182.60450291 507.04766784 191.16950415 483.88611348 196.9453125 461.32421875 C197.27088135 460.09687012 197.27088135 460.09687012 197.60302734 458.84472656 C204.75366845 431.55180335 206.67350532 404.37924746 205.9453125 376.32421875 C203.52025594 378.64887762 201.68918762 381.09767256 199.83789062 383.90649414 C193.4375337 393.59865857 187.3368915 399.2900163 176.16796875 402.8984375 C163.56804643 405.31213088 153.60971923 403.26454694 142.9453125 396.32421875 C139.31785589 393.5683956 136.12108563 390.59072825 132.9453125 387.32421875 C132.41164063 387.783125 131.87796875 388.24203125 131.328125 388.71484375 C130.58304688 389.3284375 129.83796875 389.94203125 129.0703125 390.57421875 C128.35101562 391.1775 127.63171875 391.78078125 126.890625 392.40234375 C118.35314727 397.97321781 110.51227082 398.98190134 100.4453125 398.88671875 C99.28644531 398.91056641 98.12757813 398.93441406 96.93359375 398.95898438 C87.21489392 398.942512 80.22594003 396.50152525 73.0078125 389.94921875 C69.96345544 386.68227898 68.40233154 383.52386187 66.9453125 379.32421875 C66.48382812 379.7109375 66.02234375 380.09765625 65.546875 380.49609375 C53.79686288 389.87752635 42.55985067 390.45485637 27.9453125 389.32421875 C19.06077285 388.04374186 10.80624461 384.31225319 4.9453125 377.32421875 C4.25825894 376.0012752 3.58838944 374.66908836 2.9453125 373.32421875 C-1.39338218 373.6022464 -5.72313057 373.95156456 -10.0546875 374.32421875 C-11.34890625 374.42347656 -12.643125 374.52273438 -13.9765625 374.625 C-22.86964067 375.50895054 -28.65410091 376.97794736 -34.41796875 383.98046875 C-36.4945875 386.88328999 -36.4945875 386.88328999 -37.0546875 390.32421875 C-36.4155542 390.5351416 -35.7764209 390.74606445 -35.11791992 390.96337891 C-5.30398781 400.87178696 19.48244999 416.41768388 34.5703125 444.94921875 C42.54714115 461.09248557 46.11593374 478.71264728 46.3828125 496.63671875 C46.40512939 497.53865967 46.42744629 498.44060059 46.45043945 499.36987305 C46.42835672 505.64674164 46.42835672 505.64674164 44.08203125 508.9375 C41.9453125 510.32421875 41.9453125 510.32421875 39.3203125 510.19921875 C36.9453125 509.32421875 36.9453125 509.32421875 34.9453125 507.32421875 C34.58227539 505.14794922 34.58227539 505.14794922 34.41796875 502.44140625 C34.3499707 501.44689453 34.28197266 500.45238281 34.21191406 499.42773438 C34.11088379 497.82961914 34.11088379 497.82961914 34.0078125 496.19921875 C31.67183807 465.00980517 21.92743261 440.84917495 -1.9296875 419.88671875 C-15.43409967 409.22625901 -32.36911954 403.73292419 -49.23120117 401.05786133 C-51.0546875 400.32421875 -51.0546875 400.32421875 -52.3059082 398.4440918 C-53.87427843 394.00387051 -52.55369368 390.49573171 -50.78515625 386.34375 C-48.32717264 381.23487773 -46.1165458 377.29796733 -42.0546875 373.32421875 C-42.0546875 372.66421875 -42.0546875 372.00421875 -42.0546875 371.32421875 C-41.48878906 371.04594238 -40.92289062 370.76766602 -40.33984375 370.48095703 C-38.83206004 369.71772207 -37.3389341 368.92471735 -35.86328125 368.10107422 C-29.62019652 364.71854623 -24.0545185 363.33896303 -17.0546875 362.44921875 C18.78509554 357.17982822 18.78509554 357.17982822 48.7578125 338.44921875 C54.05477127 330.88213479 57.12071261 323.67459267 55.9453125 314.32421875 C52.7487303 305.14565077 47.43903361 299.72837044 38.9453125 295.32421875 C26.06810624 291.03181666 7.72641938 294.77106864 -5.60375977 295.49609375 Z " fill="#824D30" transform="translate(509.0546875,112.67578125)"/>
<path d="M0 0 C8.30952074 4.85289633 12.86788159 11.64521318 15.78633118 20.62684631 C17.39059413 27.19315588 17.02009443 33.97856736 16.99291992 40.69311523 C16.99399441 42.23679179 16.99593556 43.78046795 16.99867249 45.32414246 C17.00350749 49.5076093 16.99587364 53.69096889 16.98571944 57.87442279 C16.9768761 62.28990205 16.97869787 66.70537855 16.9790802 71.12086487 C16.97814376 78.56130741 16.96947696 86.00170919 16.95581055 93.44213867 C16.94022986 101.95426552 16.93480755 110.46634733 16.9355461 118.97848743 C16.93623196 128.12849837 16.92921813 137.27849269 16.9200995 146.42849851 C16.91800321 149.01606326 16.91726311 151.6036252 16.91686058 154.19119072 C16.91165693 171.29271019 16.81313726 188.38341927 16.31396484 205.47851562 C16.27698077 206.78996268 16.2399967 208.10140974 16.2018919 209.45259762 C15.79833762 221.86952216 14.59953895 234.16308346 13.1875 246.5 C12.9499931 248.6619802 12.7136653 250.82409026 12.47851562 252.98632812 C11.91574991 258.13829896 11.33767361 263.2883135 10.75 268.4375 C5.64650872 270.08596731 0.91051009 270.79758018 -4.45703125 271 C-5.2224675 271.03681885 -5.98790375 271.0736377 -6.77653503 271.11157227 C-9.20490468 271.22805314 -11.63354365 271.33402699 -14.0625 271.4375 C-27.94779894 272.0329221 -40.04414919 273.45450099 -53.25 278.0625 C-55.10326512 278.70313486 -56.95739071 279.34128766 -58.8125 279.9765625 C-59.61816406 280.25709473 -60.42382812 280.53762695 -61.25390625 280.82666016 C-63.25 281.4375 -63.25 281.4375 -65.25 281.4375 C-64.7558432 269.34817525 -63.66360719 257.43247284 -62.12524414 245.43331909 C-61.73235119 242.36203759 -61.34850989 239.28973135 -60.96679688 236.21704102 C-60.38734302 231.5536308 -59.80588455 226.89047877 -59.22265625 222.22753906 C-57.37586588 207.44611305 -55.54488669 192.66282749 -53.75 177.875 C-53.60520329 176.68209728 -53.60520329 176.68209728 -53.45748138 175.46509552 C-48.89716209 137.82910952 -45.36355773 100.13074842 -42.12174988 62.35974121 C-41.52259564 55.38333815 -40.90131859 48.40924665 -40.25 41.4375 C-40.0948291 39.73400391 -40.0948291 39.73400391 -39.93652344 37.99609375 C-39.63236743 34.78524811 -39.29212756 31.58061591 -38.9375 28.375 C-38.85604736 27.48159912 -38.77459473 26.58819824 -38.69067383 25.66772461 C-37.54287566 16.16911861 -31.66757431 8.31672727 -24.25 2.4375 C-16.91607891 -2.26622927 -8.11253362 -3.62474906 0 0 Z " fill="#FEB27C" transform="translate(502.25,124.5625)"/>
<path d="M0 0 C5.37738868 4.34892637 8.21637819 8.68230301 9.140625 15.7265625 C9.16338782 36.53177963 4.11167693 56.92219487 -0.38671875 77.12768555 C-0.72153055 78.63326157 -1.05616804 80.13887636 -1.390625 81.64453125 C-1.55404892 82.37968964 -1.71747284 83.11484802 -1.885849 83.87228394 C-2.98048301 88.85136197 -3.95226986 93.84373378 -4.86328125 98.859375 C-6.00522286 105.11111987 -7.3751033 111.24351035 -9.10546875 117.359375 C-9.32783203 118.21337891 -9.55019531 119.06738281 -9.77929688 119.94726562 C-12.44666698 129.43847686 -17.82537215 138.08120133 -26.29296875 143.421875 C-34.70760855 147.10600486 -43.77635589 149.22866174 -52.80078125 146.7265625 C-58.08681552 144.65052924 -61.10930508 142.09788101 -64.29296875 137.421875 C-68.42959879 125.01198488 -64.17322736 109.12383247 -62.10546875 96.609375 C-61.78205437 94.59939002 -61.45930659 92.58929767 -61.13720703 90.57910156 C-57.86421994 70.29384941 -54.11408327 50.11713227 -49.99169922 29.98730469 C-48.77213717 24.00036373 -47.71821422 18.01318671 -46.81396484 11.9699707 C-45.47196054 5.40647543 -40.5015631 1.20458718 -35.29296875 -2.578125 C-24.22370137 -8.24774976 -10.07542857 -6.93436651 0 0 Z " fill="#FEB27D" transform="translate(652.29296875,352.578125)"/>
<path d="M0 0 C7.25030991 3.95897375 11.00591011 9.53703691 14.3125 16.9375 C16.10566005 24.92521294 14.58634248 32.92815127 13.25 40.875 C13.06880615 41.97344238 12.8876123 43.07188477 12.70092773 44.20361328 C1.91830365 108.39545326 1.91830365 108.39545326 -18 124 C-25.23079496 129.02019689 -33.48402412 128.93055366 -42 128 C-47.44242951 126.47187039 -50.92397976 123.79859158 -54 119 C-57.24108751 109.27673747 -53.93897734 98.56063966 -51.8125 88.875 C-51.48850154 87.35833825 -51.16576344 85.84140675 -50.84423828 84.32421875 C-50.20093995 81.29173412 -49.55318087 78.26026238 -48.90185547 75.22949219 C-47.67414788 69.49675339 -46.51704898 63.75034952 -45.375 58 C-45.1783374 57.01233643 -44.9816748 56.02467285 -44.77905273 55.00708008 C-44.18312108 52.00528652 -43.59068911 49.00282944 -43 46 C-42.67902344 44.36828857 -42.67902344 44.36828857 -42.3515625 42.70361328 C-41.68898015 39.32395609 -41.03092211 35.94345578 -40.375 32.5625 C-40.16415771 31.48081543 -39.95331543 30.39913086 -39.73608398 29.28466797 C-38.78965099 24.36802559 -37.89235816 19.45735627 -37.16015625 14.50390625 C-37.03527832 13.67238037 -36.91040039 12.84085449 -36.78173828 11.98413086 C-36.56044404 10.46755904 -36.35319542 8.94883519 -36.16357422 7.42797852 C-35.70493446 4.26994901 -35.16176705 2.21403025 -33.22265625 -0.3515625 C-23.60607469 -7.48371965 -10.21681465 -4.35736996 0 0 Z " fill="#FEB27D" transform="translate(709,375)"/>
<path d="M0 0 C0.79978271 -0.02247803 1.59956543 -0.04495605 2.42358398 -0.06811523 C9.14116103 -0.04107576 14.32151528 1.74949028 19.3984375 6.21875 C19.84445312 6.7859375 20.29046875 7.353125 20.75 7.9375 C21.21148438 8.5046875 21.67296875 9.071875 22.1484375 9.65625 C25.21043895 14.10297823 25.72682397 17.73213802 25.68359375 23.09375 C25.67919785 23.84539429 25.67480194 24.59703857 25.67027283 25.37145996 C25.52305058 32.92314126 24.33114912 40.16172313 22.89706421 47.56115723 C22.07126286 51.83126146 21.29989311 56.11132087 20.5234375 60.390625 C20.35367905 61.32074402 20.18392059 62.25086304 20.00901794 63.20916748 C17.63706436 76.33156681 15.61912863 89.51278519 13.5625 102.6875 C12.98608982 106.37389627 12.40960162 110.06028029 11.83297729 113.74664307 C11.48603892 115.96732316 11.13995775 118.18813743 10.79495239 120.40911865 C10.48184969 122.41979913 10.16642822 124.43012021 9.84843445 126.44003296 C9.516547 128.54132001 9.19127392 130.64365743 8.8709259 132.74673462 C8.70275864 133.81757294 8.53459137 134.88841125 8.36132812 135.99169922 C8.21272339 136.95598846 8.06411865 137.92027771 7.91101074 138.91378784 C6.38505986 146.09845877 -0.02056993 152.77086407 -5.72265625 157.21875 C-11.93691736 161.1999604 -17.64987475 163.20826054 -25.02734375 162.05078125 C-29.69932821 160.94777138 -34.3974504 159.74944119 -38.625 157.4375 C-39.9375 155.30078125 -39.9375 155.30078125 -40.625 153.4375 C-39.75101563 153.09138672 -39.75101563 153.09138672 -38.859375 152.73828125 C-37.10517293 152.04046187 -35.35273005 151.33821238 -33.6015625 150.6328125 C-31.64230268 149.84602313 -29.67881081 149.06967847 -27.7109375 148.3046875 C-12.52095491 142.25274193 -0.45186166 135.00524084 6.5703125 119.859375 C10.26447121 110.40439535 11.76228971 99.08127259 7.9765625 89.4140625 C5.29083126 83.52098171 2.12312759 78.87579871 -2.625 74.4375 C-3.32625 73.756875 -4.0275 73.07625 -4.75 72.375 C-13.39899612 66.5463287 -23.34776345 65.39981901 -33.5 64.875 C-34.675625 64.81022461 -34.675625 64.81022461 -35.875 64.74414062 C-37.79150649 64.63896649 -39.70823333 64.53782075 -41.625 64.4375 C-41.92907208 56.14550262 -41.0050857 48.14327154 -39.875 39.9375 C-39.71773437 38.68324219 -39.56046875 37.42898438 -39.3984375 36.13671875 C-37.97627391 25.68928619 -35.97332138 15.65385966 -27.5 8.69140625 C-18.59494274 1.99869916 -10.96171064 0.20133539 0 0 Z " fill="#FDB37D" transform="translate(567.625,328.5625)"/>
<path d="M0 0 C4.65212012 3.89177361 9.26960045 8.50417538 10.81640625 14.51953125 C10.81640625 15.50953125 10.81640625 16.49953125 10.81640625 17.51953125 C3.39140625 19.00453125 3.39140625 19.00453125 -4.18359375 20.51953125 C-5.50359375 18.53953125 -6.82359375 16.55953125 -8.18359375 14.51953125 C-13.54621956 9.56941511 -18.26832798 7.97211446 -25.48828125 8.14453125 C-31.76284579 9.01751414 -37.33267991 11.87518014 -41.18359375 16.95703125 C-46.08689308 24.4381681 -45.91942841 32.89845605 -45.18359375 41.51953125 C-43.67841958 47.35309815 -40.94426814 51.75527708 -36.18359375 55.51953125 C-30.35835359 58.89817054 -24.84603077 59.37270664 -18.18359375 58.51953125 C-12.25823089 56.74493019 -8.64468959 53.55385247 -5.18359375 48.51953125 C-4.85359375 47.19953125 -4.52359375 45.87953125 -4.18359375 44.51953125 C-11.11359375 44.18953125 -18.04359375 43.85953125 -25.18359375 43.51953125 C-25.18359375 39.55953125 -25.18359375 35.59953125 -25.18359375 31.51953125 C-13.30359375 31.51953125 -1.42359375 31.51953125 10.81640625 31.51953125 C10.81640625 44.71953125 10.81640625 57.91953125 10.81640625 71.51953125 C6.85640625 71.51953125 2.89640625 71.51953125 -1.18359375 71.51953125 C-1.18359375 68.87953125 -1.18359375 66.23953125 -1.18359375 63.51953125 C-1.84359375 63.51953125 -2.50359375 63.51953125 -3.18359375 63.51953125 C-3.67859375 65.00453125 -3.67859375 65.00453125 -4.18359375 66.51953125 C-12.2660502 73.16291618 -21.0530787 74.12948373 -31.18359375 73.51953125 C-39.78208092 72.65968253 -47.52199229 68.65967868 -53.49609375 62.39453125 C-62.17807377 51.32007378 -63.36213741 37.05190994 -62.18359375 23.51953125 C-60.05142211 13.30947504 -53.91053836 4.28615936 -45.18359375 -1.48046875 C-31.11200019 -8.3839308 -13.35659208 -9.22971186 0 0 Z " fill="#FEFDFC" transform="translate(327.18359375,816.48046875)"/>
<path d="M0 0 C17.49 0 34.98 0 53 0 C53 4.29 53 8.58 53 13 C40.79 13 28.58 13 16 13 C16 18.61 16 24.22 16 30 C26.89 30 37.78 30 49 30 C49 34.62 49 39.24 49 44 C38.11 44 27.22 44 16 44 C16 50.27 16 56.54 16 63 C28.54 63 41.08 63 54 63 C54 67.29 54 71.58 54 76 C36.18 76 18.36 76 0 76 C0 50.92 0 25.84 0 0 Z " fill="#FEFDFD" transform="translate(697,812)"/>
<path d="M0 0 C7.11810133 4.71289814 11.20923582 10.32924677 13.75 18.375 C14.14906648 22.56519807 14 26.79084167 14 31 C0.47 31 -13.06 31 -27 31 C-24.04721951 39.48155745 -24.04721951 39.48155745 -20.375 42.125 C-15.7207015 43.33166998 -11.64057319 43.32924893 -7 42 C-5.7934375 40.7315625 -5.7934375 40.7315625 -4.5625 39.4375 C-1.48188268 36.5071567 -0.50285231 36.64118766 3.625 36.625 C6.75006754 36.73630378 9.01836682 37.00612227 12 38 C10.42087064 44.02940302 7.93192323 48.20612592 2.625 51.453125 C-4.93932651 55.37036551 -12.24576338 57.4489085 -20.71484375 55.31640625 C-28.8903918 52.61365305 -35.22300011 48.73390322 -39.22265625 40.90625 C-42.85638672 31.99539337 -43.34332842 22.84061243 -40 13.8125 C-36.34843911 5.86678511 -31.5075448 1.76173587 -23.4375 -1.4375 C-15.24252451 -4.04550317 -7.91112561 -3.3175688 0 0 Z " fill="#FEFCFB" transform="translate(390,834)"/>
<path d="M0 0 C6.80714133 3.1794458 11.61462851 7.91641753 14.73828125 14.75390625 C15.86328125 19.12890625 15.86328125 19.12890625 15.86328125 32.12890625 C2.66328125 32.12890625 -10.53671875 32.12890625 -24.13671875 32.12890625 C-21.90381564 39.43247135 -21.90381564 39.43247135 -19.51171875 42.06640625 C-15.80604921 43.72420578 -12.19112225 44.27646686 -8.13671875 44.12890625 C-4.76793104 42.82171362 -4.76793104 42.82171362 -2.13671875 41.12890625 C-1.47671875 41.12890625 -0.81671875 41.12890625 -0.13671875 41.12890625 C0.19328125 40.13890625 0.52328125 39.14890625 0.86328125 38.12890625 C5.15328125 38.12890625 9.44328125 38.12890625 13.86328125 38.12890625 C14.19328125 38.78890625 14.52328125 39.44890625 14.86328125 40.12890625 C12.04203364 46.65304135 7.13001822 52.02334704 0.765625 55.1640625 C-7.17951288 58.17676911 -14.29644326 58.08695923 -22.26171875 55.19140625 C-29.18608589 52.01885193 -33.99271636 47.62767737 -37.2890625 40.7109375 C-40.49207686 31.42662399 -40.33205454 21.06808464 -36.13671875 12.12890625 C-32.39964955 6.53778721 -28.12839438 3.06600215 -22.13671875 0.12890625 C-16.33437572 -2.77226526 -6.13643437 -1.70414055 0 0 Z " fill="#FEFCFC" transform="translate(646.13671875,832.87109375)"/>
<path d="M0 0 C4.95 0 9.9 0 15 0 C15.01401855 1.74071777 15.01401855 1.74071777 15.02832031 3.51660156 C15.06821876 7.82574731 15.13397684 12.13417899 15.20751953 16.44287109 C15.23573006 18.30703553 15.25694421 20.1713196 15.27099609 22.03564453 C15.29242484 24.71709441 15.33907298 27.39710586 15.390625 30.078125 C15.39185364 30.91055725 15.39308228 31.7429895 15.39434814 32.60064697 C15.51318531 37.41462259 15.51318531 37.41462259 17.90161133 41.52441406 C20.97626582 43.68650967 23.15538757 43.55702971 26.80859375 43.39453125 C30.06711174 42.80788184 31.79600354 41.41062113 34 39 C35.22318866 35.33043403 35.23116124 31.87678997 35.31640625 28.05078125 C35.33718735 27.27816452 35.35796844 26.50554779 35.37937927 25.70951843 C35.44471038 23.2439352 35.50368315 20.77824639 35.5625 18.3125 C35.60570087 16.63996309 35.64931566 14.96743681 35.69335938 13.29492188 C35.8003749 9.1967225 35.90168857 5.09841704 36 1 C40.62 1 45.24 1 50 1 C50 19.15 50 37.3 50 56 C45.38 56 40.76 56 36 56 C35.67 54.35 35.34 52.7 35 51 C34.278125 51.61875 33.55625 52.2375 32.8125 52.875 C26.89439694 57.34645564 21.22741661 57.81991701 14 57 C8.68326993 55.36612116 4.9608786 52.78295774 2 48 C-0.26580405 42.68942654 -0.26119609 37.89248724 -0.1953125 32.2265625 C-0.1924826 31.3028183 -0.18965271 30.3790741 -0.18673706 29.42733765 C-0.17559179 26.49309024 -0.15049765 23.5591543 -0.125 20.625 C-0.11496289 18.62891068 -0.10583832 16.63281654 -0.09765625 14.63671875 C-0.07567097 9.75769351 -0.04118017 4.87889946 0 0 Z " fill="#FEFDFC" transform="translate(506,832)"/>
<path d="M0 0 C2.47513363 2.42247122 4.41769996 4.91551638 6 8 C6 8.66 6 9.32 6 10 C4.39743892 10.50512244 2.79288208 11.00391627 1.1875 11.5 C-0.15248047 11.91765625 -0.15248047 11.91765625 -1.51953125 12.34375 C-4 13 -4 13 -7 13 C-7.70125 12.175 -8.4025 11.35 -9.125 10.5 C-12.659722 7.4263287 -14.40996908 7.49824142 -18.9140625 7.62890625 C-21.29782631 7.90938062 -21.29782631 7.90938062 -24 10 C-23.81171228 12.44480079 -23.81171228 12.44480079 -23 15 C-19.69549139 17.2003579 -16.10595394 17.62634226 -12.25 18.3125 C-4.65546616 19.89140516 0.22491123 22.01677957 5.5 27.6875 C8.04208557 33.30127231 7.84176486 38.52147012 5.875 44.3125 C2.53705437 49.09688873 -1.43518687 52.27955162 -7 54 C-9.9416277 54.3314097 -12.85431532 54.37011448 -15.8125 54.375 C-16.58142578 54.39949219 -17.35035156 54.42398438 -18.14257812 54.44921875 C-24.44427069 54.48112605 -29.85977584 52.97136257 -34.5300293 48.55224609 C-37.68514551 44.91089033 -40 41.85406392 -40 37 C-29.81761978 34.31575598 -29.81761978 34.31575598 -26 36 C-24.3125 38.5 -24.3125 38.5 -23 41 C-20.41991408 42.29004296 -18.44258426 42.20410224 -15.5625 42.25 C-14.59441406 42.27578125 -13.62632812 42.3015625 -12.62890625 42.328125 C-10.00026702 42.18872555 -10.00026702 42.18872555 -8.08984375 40.796875 C-6.72569463 38.96235499 -6.72569463 38.96235499 -7.3125 36.3125 C-7.539375 35.549375 -7.76625 34.78625 -8 34 C-8.57105469 33.82984375 -9.14210938 33.6596875 -9.73046875 33.484375 C-11.46851566 32.96489516 -13.20396476 32.43668629 -14.9375 31.90234375 C-17.04799596 31.28050119 -19.17505977 30.71316348 -21.3125 30.19140625 C-27.80930223 28.49953067 -32.75675748 26.84515669 -36.8828125 21.34375 C-39.28998378 16.29374032 -38.99607697 11.13880069 -37.328125 5.8828125 C-34.95721157 1.03699821 -31.69132748 -0.82188367 -27 -3 C-18.17859367 -5.74402827 -7.95213643 -4.63554491 0 0 Z " fill="#FEFCFA" transform="translate(449,835)"/>
<path d="M0 0 C0 4.62 0 9.24 0 14 C4.29 14 8.58 14 13 14 C13 17.63 13 21.26 13 25 C8.71 25 4.42 25 0 25 C0.11797018 29.39675988 0.24219726 33.79328399 0.37231445 38.18969727 C0.41571813 39.68639269 0.45738913 41.18313939 0.49731445 42.67993164 C0.55488616 44.82714312 0.61861716 46.97409521 0.68359375 49.12109375 C0.72025146 50.4145874 0.75690918 51.70808105 0.79467773 53.04077148 C0.6667278 55.88555008 0.6667278 55.88555008 2 57 C3.84891946 57.23363881 5.70488031 57.41303635 7.5625 57.5625 C9.356875 57.706875 11.15125 57.85125 13 58 C13 61.63 13 65.26 13 69 C9.03812971 69.99046757 5.6978431 70.23527044 1.625 70.3125 C0.33851563 70.34988281 -0.94796875 70.38726563 -2.2734375 70.42578125 C-6.70667157 69.9192587 -8.6780399 68.96295865 -12 66 C-14.69350627 60.87186357 -15.41992088 56.68035002 -15.29296875 50.87890625 C-15.28660149 49.76176491 -15.28660149 49.76176491 -15.28010559 48.62205505 C-15.26345724 46.26848527 -15.22583375 43.91580621 -15.1875 41.5625 C-15.17243515 39.95639267 -15.15874991 38.35027177 -15.14648438 36.74414062 C-15.11359952 32.82908953 -15.06191626 28.91469521 -15 25 C-17.31 25 -19.62 25 -22 25 C-22 21.37 -22 17.74 -22 14 C-19.69 14 -17.38 14 -15 14 C-15 9.71 -15 5.42 -15 1 C-9.81850771 0.27277301 -5.31964249 0 0 0 Z " fill="#FEFDFC" transform="translate(484,819)"/>
<path d="M0 0 C3.09244792 0.03255208 6.18489583 0.06510417 9.27734375 0.09765625 C9.27734375 5.04765625 9.27734375 9.99765625 9.27734375 15.09765625 C6.02213542 15.22786458 2.76692708 15.35807292 -0.48828125 15.48828125 C-4.25701711 16.19833293 -5.45565768 17.05340102 -7.72265625 20.09765625 C-9.00726378 23.79164288 -8.94387086 27.61900921 -9.0390625 31.48828125 C-9.0598436 32.1928949 -9.08062469 32.89750854 -9.10203552 33.62347412 C-9.16719462 35.86477306 -9.22625873 38.10618489 -9.28515625 40.34765625 C-9.32837351 41.87110522 -9.37198882 43.39454296 -9.41601562 44.91796875 C-9.5235874 48.64441744 -9.62290975 52.37095705 -9.72265625 56.09765625 C-14.34265625 56.09765625 -18.96265625 56.09765625 -23.72265625 56.09765625 C-23.72265625 37.94765625 -23.72265625 19.79765625 -23.72265625 1.09765625 C-19.10265625 1.09765625 -14.48265625 1.09765625 -9.72265625 1.09765625 C-9.39265625 2.74765625 -9.06265625 4.39765625 -8.72265625 6.09765625 C-7.91828125 5.29328125 -7.11390625 4.48890625 -6.28515625 3.66015625 C-2.72265625 0.09765625 -2.72265625 0.09765625 0 0 Z " fill="#FEFDFD" transform="translate(593.72265625,831.90234375)"/>
<path d="M0 0 C0.495 0.99 0.495 0.99 1 2 C1.66 2 2.32 2 3 2 C3.84023188 6.35332736 4.10770995 10.44442519 4.0625 14.875 C4.05347656 16.02742187 4.04445313 17.17984375 4.03515625 18.3671875 C4.02355469 19.23601563 4.01195312 20.10484375 4 21 C2.64652311 21.46036629 1.292173 21.91816537 -0.0625 22.375 C-1.29226563 22.79265625 -1.29226563 22.79265625 -2.546875 23.21875 C-5 24 -5 24 -8.8125 24.875 C-12.62443295 26.2203881 -13.57107075 27.86589774 -16 31 C-20.95033875 33.53273145 -25.7145462 33.34574285 -31 32 C-34.98084155 29.62843482 -36.74335977 27.45536081 -38 23 C-38 22.01 -38 21.02 -38 20 C-24.47 20 -10.94 20 3 20 C1.71555959 9.9641122 1.71555959 9.9641122 0 0 Z " fill="#F1915D" transform="translate(401,845)"/>
<path d="M0 0 C4.92959122 -0.04942899 9.85903825 -0.08573318 14.78881836 -0.10986328 C16.46592725 -0.11992237 18.14301861 -0.13357122 19.82006836 -0.15087891 C22.23035002 -0.17513152 24.64039986 -0.1864839 27.05078125 -0.1953125 C28.17592888 -0.21079636 28.17592888 -0.21079636 29.32380676 -0.22659302 C33.10300779 -0.227408 34.77414399 -0.15057067 38 2 C37.195625 2.12375 36.39125 2.2475 35.5625 2.375 C34.716875 2.58125 33.87125 2.7875 33 3 C32.67 3.66 32.34 4.32 32 5 C34.31 5 36.62 5 39 5 C39 5.33 39 5.66 39 6 C38.03578125 6.02578125 37.0715625 6.0515625 36.078125 6.078125 C34.81484375 6.13484375 33.5515625 6.1915625 32.25 6.25 C30.37054687 6.31960938 30.37054687 6.31960938 28.453125 6.390625 C24.5373757 7.08163958 23.47913437 8.00318096 21 11 C17.08989915 13.34606051 13.61134439 13.2350784 9.22265625 12.59765625 C5.3392591 11.55343874 3.65716575 10.05574062 1 7 C0.34375 3.3203125 0.34375 3.3203125 0 0 Z " fill="#F08E59" transform="translate(622,865)"/>
<path d="M0 0 C3.67756123 1.31837101 5.49289251 2.34076027 7.875 5.4375 C9 8 9 8 9 12 C0.42 12 -8.16 12 -17 12 C-15.11015122 6.33045367 -14.25049054 4.71917922 -10 1 C-6.79788792 -0.60105604 -3.48253365 -0.35668408 0 0 Z " fill="#F1905B" transform="translate(380,843)"/>
<path d="M0 0 C4.39638531 2.23966799 6.92615591 4.50667114 9 9 C9 9.99 9 10.98 9 12 C0.42 12 -8.16 12 -17 12 C-14.73684211 4.07894737 -14.73684211 4.07894737 -10 1 C-6.78314421 -0.60842789 -3.4888991 -0.46778535 0 0 Z " fill="#F1925D" transform="translate(639,843)"/>
<path d="M0 0 C0.33 0 0.66 0 1 0 C1.33 10.23 1.66 20.46 2 31 C43.58 31 85.16 31 128 31 C128 31.33 128 31.66 128 32 C115.47923962 32.17229801 102.95840716 32.33872175 90.4375 32.5 C89.51567554 32.51187725 88.59385109 32.5237545 87.64409256 32.53599167 C58.42732957 32.91060706 29.21949279 33.13818993 0 33 C0 22.11 0 11.22 0 0 Z " fill="#FBC187" transform="translate(420,705)"/>
<path d="M0 0 C0.33 0 0.66 0 1 0 C1.02685095 2.47923801 1.04676547 4.9581884 1.0625 7.4375 C1.07087891 8.14455078 1.07925781 8.85160156 1.08789062 9.58007812 C1.09653588 11.38693559 1.05220011 13.19387603 1 15 C0 16 0 16 -3.41821289 16.11352539 C-4.93636988 16.11336628 -6.45453229 16.10767226 -7.97265625 16.09765625 C-8.77029892 16.0962413 -9.56794159 16.09482635 -10.38975525 16.09336853 C-12.94737435 16.08775316 -15.50490718 16.07519812 -18.0625 16.0625 C-19.79231645 16.05748698 -21.52213426 16.05292373 -23.25195312 16.04882812 C-27.50133553 16.03777875 -31.75065312 16.02050386 -36 16 C-36.33 20.62 -36.66 25.24 -37 30 C-26.11 30 -15.22 30 -4 30 C-4 34.95 -4 39.9 -4 45 C-4.33 45 -4.66 45 -5 45 C-5 40.38 -5 35.76 -5 31 C-15.89 31 -26.78 31 -38 31 C-38 25.39 -38 19.78 -38 14 C-25.46 14 -12.92 14 0 14 C0 9.38 0 4.76 0 0 Z " fill="#EF8041" transform="translate(751,811)"/>
<path d="M0 0 C0.495 0.99 0.495 0.99 1 2 C1.66 2 2.32 2 3 2 C3.82636293 6.32200929 4.13505355 10.41407166 4.125 14.8125 C4.12886719 16.52373047 4.12886719 16.52373047 4.1328125 18.26953125 C4 21 4 21 3 22 C0.1156618 22.08865208 -2.74462158 22.11521296 -5.62890625 22.09765625 C-6.92525246 22.09553383 -6.92525246 22.09553383 -8.24778748 22.09336853 C-11.01939292 22.08775239 -13.7909188 22.07519719 -16.5625 22.0625 C-18.4368478 22.05748708 -20.31119685 22.05292381 -22.18554688 22.04882812 C-26.79039544 22.03777772 -31.39518421 22.0205023 -36 22 C-33.64321177 26.97034552 -33.64321177 26.97034552 -30 31 C-33.64419572 30.01508224 -34.78914132 29.34173648 -36.8125 26.0625 C-38 23 -38 23 -38 20 C-24.47 20 -10.94 20 3 20 C1.71555959 9.9641122 1.71555959 9.9641122 0 0 Z " fill="#F0884F" transform="translate(401,845)"/>
<path d="M0 0 C3.44830801 0.287359 4.76218649 0.76218649 7.25 3.25 C9 6 9 6 10 11 C1.42 11 -7.16 11 -16 11 C-15.34 9.02 -14.68 7.04 -14 5 C-13.67 5.66 -13.34 6.32 -13 7 C-13.33 7.66 -13.66 8.32 -14 9 C-6.74 9 0.52 9 8 9 C4.54544633 3.57352743 4.54544633 3.57352743 0 0 Z " fill="#F08951" transform="translate(638,844)"/>
<path d="M0 0 C0.99 0.33 1.98 0.66 3 1 C3.33 1.99 3.66 2.98 4 4 C10.0702075 6.63403647 17.41761323 8.15311885 24 7 C26.24625563 6.07051491 28.28750255 5.02749847 30.37109375 3.77734375 C31.17740234 3.39255859 31.17740234 3.39255859 32 3 C32.66 3.33 33.32 3.66 34 4 C27.45749898 8.67321502 22.70765303 10.57088469 14.73828125 9.54296875 C9.99211193 8.60185957 5.25899984 7.32914054 1 5 C-0.3125 2.86328125 -0.3125 2.86328125 -1 1 C-0.67 0.67 -0.34 0.34 0 0 Z " fill="#F5B980" transform="translate(528,481)"/>
<path d="M0 0 C1.60294922 0.06767578 1.60294922 0.06767578 3.23828125 0.13671875 C4.04652344 0.19472656 4.85476563 0.25273438 5.6875 0.3125 C5.6875 0.6425 5.6875 0.9725 5.6875 1.3125 C2.0575 1.3125 -1.5725 1.3125 -5.3125 1.3125 C-5.3125 1.9725 -5.3125 2.6325 -5.3125 3.3125 C-5.9725 3.3125 -6.6325 3.3125 -7.3125 3.3125 C-7.3125 3.9725 -7.3125 4.6325 -7.3125 5.3125 C-7.9725 5.3125 -8.6325 5.3125 -9.3125 5.3125 C-9.6425 17.1925 -9.9725 29.0725 -10.3125 41.3125 C-10.6425 41.3125 -10.9725 41.3125 -11.3125 41.3125 C-11.4363722 36.27719037 -11.52696514 31.24277303 -11.5871582 26.20629883 C-11.61225714 24.49422755 -11.64634429 22.78226296 -11.68969727 21.07055664 C-11.75055739 18.60536355 -11.77875432 16.14159015 -11.80078125 13.67578125 C-11.82658768 12.91413162 -11.8523941 12.15248199 -11.87898254 11.36775208 C-11.88109161 7.34475798 -11.48196762 5.52957725 -8.9765625 2.3203125 C-5.70749071 -0.14347474 -4.03995138 -0.22197535 0 0 Z " fill="#EF7C3E" transform="translate(596.3125,846.6875)"/>
<path d="M0 0 C-0.68707031 0.29132812 -1.37414062 0.58265625 -2.08203125 0.8828125 C-7.71262128 3.4296194 -7.71262128 3.4296194 -12.125 7.625 C-13.61221864 13.36141475 -14.57629945 19.08955725 -11.65234375 24.48828125 C-10.18855241 26.43654254 -8.68925108 28.24539099 -7 30 C-9.77158023 29.38409328 -11.51992542 28.65492602 -13.22265625 26.33203125 C-16.16632549 20.877275 -16.8935615 16.60216979 -15.375 10.48046875 C-13.83415724 5.7822741 -12.45996442 2.70889879 -8 0.3125 C-4.93241395 -1.04754303 -3.18025656 -1.05771926 0 0 Z " fill="#F18950" transform="translate(425,832)"/>
<path d="M0 0 C0.33 0 0.66 0 1 0 C1.33 10.23 1.66 20.46 2 31 C4.31 31 6.62 31 9 31 C9 31.33 9 31.66 9 32 C4.545 32.495 4.545 32.495 0 33 C0 22.11 0 11.22 0 0 Z " fill="#FCC187" transform="translate(420,705)"/>
<path d="M0 0 C1.4540625 1.2065625 1.4540625 1.2065625 2.9375 2.4375 C9.4392471 6.61466601 17.52698078 5.90658726 25 6 C18.34720646 9.32639677 14.32315387 8.79498426 7 7 C4.48278231 5.88960117 3.08642055 4.86086157 1 3 C0.67 2.01 0.34 1.02 0 0 Z " fill="#EF8349" transform="translate(470,883)"/>
<path d="M0 0 C2.37507855 -0.02719556 4.74983964 -0.04693247 7.125 -0.0625 C8.12273438 -0.07506836 8.12273438 -0.07506836 9.140625 -0.08789062 C13.20681354 -0.10782292 17.0120092 0.21109839 21 1 C16.25 6.75 16.25 6.75 14 9 C14 6.36 14 3.72 14 1 C9.38 1 4.76 1 0 1 C0 0.67 0 0.34 0 0 Z " fill="#EF8449" transform="translate(570,831)"/>
<path d="M0 0 C-0.99 0.33 -1.98 0.66 -3 1 C-3 1.66 -3 2.32 -3 3 C-3.886875 3.226875 -4.77375 3.45375 -5.6875 3.6875 C-9.48045988 5.19037089 -11.28798093 6.99478968 -14 10 C-15 11 -16 12 -17 13 C-16.510987 8.76188734 -13.98498598 5.85694368 -11 3 C-7.19451075 0.62156922 -4.48860134 -0.39605306 0 0 Z " fill="#F0874E" transform="translate(301,825)"/>
<path d="M0 0 C0.66 0.66 1.32 1.32 2 2 C1.9765625 4.6015625 1.9765625 4.6015625 1.625 7.625 C1.51414062 8.62789063 1.40328125 9.63078125 1.2890625 10.6640625 C1.19367187 11.43492187 1.09828125 12.20578125 1 13 C-0.32 12.34 -1.64 11.68 -3 11 C-2.01 7.37 -1.02 3.74 0 0 Z " fill="#EEB17A" transform="translate(577,439)"/>
<path d="M0 0 C0 1.98 0 3.96 0 6 C4.62 6 9.24 6 14 6 C14 6.33 14 6.66 14 7 C9.05 7 4.1 7 -1 7 C-1.33 6.01 -1.66 5.02 -2 4 C-2.66 3.67 -3.32 3.34 -4 3 C-1.125 0 -1.125 0 0 0 Z " fill="#EE7A3B" transform="translate(542,882)"/>
<path d="M0 0 C1.08667969 0.01804687 2.17335938 0.03609375 3.29296875 0.0546875 C4.54013672 0.08949219 4.54013672 0.08949219 5.8125 0.125 C5.8125 0.455 5.8125 0.785 5.8125 1.125 C2.1825 1.125 -1.4475 1.125 -5.1875 1.125 C-5.1875 1.785 -5.1875 2.445 -5.1875 3.125 C-5.8475 3.125 -6.5075 3.125 -7.1875 3.125 C-7.1875 3.785 -7.1875 4.445 -7.1875 5.125 C-7.8475 5.125 -8.5075 5.125 -9.1875 5.125 C-9.1875 5.785 -9.1875 6.445 -9.1875 7.125 C-9.8475 7.125 -10.5075 7.125 -11.1875 7.125 C-9.0250019 0.8038517 -6.49720881 -0.13972492 0 0 Z " fill="#F1854B" transform="translate(596.1875,846.875)"/>
<path d="M0 0 C4.62 0 9.24 0 14 0 C11 3 11 3 7.5625 3.375 C4 3 4 3 0 0 Z " fill="#F3A073" transform="translate(429,889)"/>
<path d="M0 0 C2.875 0.3125 2.875 0.3125 6 1 C8 4 8 4 7.625 6.1875 C7.41875 6.785625 7.2125 7.38375 7 8 C6.6596875 7.071875 6.6596875 7.071875 6.3125 6.125 C4.62070165 3.38589791 3.00755839 2.94975528 0 2 C0 1.34 0 0.68 0 0 Z " fill="#F18D57" transform="translate(435,867)"/>
<path d="M0 0 C0.33 0 0.66 0 1 0 C1.33 3.63 1.66 7.26 2 11 C1.01 11.33 0.02 11.66 -1 12 C-1.14285714 3.42857143 -1.14285714 3.42857143 0 0 Z " fill="#F1B77F" transform="translate(438,394)"/>
<path d="M0 0 C-1.05041579 2.86477034 -1.70124563 3.83913226 -4.4375 5.3125 C-7 6 -7 6 -10 5 C-8.71186658 4.16121545 -7.41936744 3.32913217 -6.125 2.5 C-5.40570313 2.0359375 -4.68640625 1.571875 -3.9453125 1.09375 C-2 0 -2 0 0 0 Z " fill="#EF8852" transform="translate(323,883)"/>
<path d="M0 0 C0.33 0 0.66 0 1 0 C1.33 2.97 1.66 5.94 2 9 C0.68 9.33 -0.64 9.66 -2 10 C-2.99 9.34 -3.98 8.68 -5 8 C-3.35 8 -1.7 8 0 8 C0 5.36 0 2.72 0 0 Z " fill="#F39A6B" transform="translate(662,857)"/>
<path d="M0 0 C0 4.38968456 -2.12805101 5.76905739 -5 9 C-5.66 8.67 -6.32 8.34 -7 8 C-4.69 5.36 -2.38 2.72 0 0 Z " fill="#78452B" transform="translate(669,651)"/>
</svg>
