<?xml version="1.0" encoding="UTF-8"?>
<svg version="1.1" xmlns="http://www.w3.org/2000/svg" width="1024" height="1024">
<path d="M0 0 C337.92 0 675.84 0 1024 0 C1024 337.92 1024 675.84 1024 1024 C686.08 1024 348.16 1024 0 1024 C0 686.08 0 348.16 0 0 Z " fill="#FCAA67" transform="translate(0,0)"/>
<path d="M0 0 C7.44876598 5.13513412 11.31640011 12.33797477 15 20.375 C15.30429932 21.03008545 15.60859863 21.6851709 15.92211914 22.36010742 C19.79794684 31.27215966 22.23710426 40.74773624 24.9375 50.0625 C25.30334198 51.32325348 25.66918396 52.58400696 26.04611206 53.88296509 C29.54353968 65.9437477 33.02458473 78.00929952 36.49584961 90.07763672 C37.60878643 93.94644794 38.72483821 97.81434917 39.84285927 101.68169403 C40.26301276 103.13727161 40.68201554 104.5931819 41.09978294 106.04944611 C43.63496514 115.01828387 43.63496514 115.01828387 46.7199707 123.80761719 C48.10750512 127.51698332 48.21036844 129.32875257 46.9375 133.0625 C45.9165625 133.990625 45.9165625 133.990625 44.875 134.9375 C42.61670685 137.41433765 42.67050173 138.08282821 42.6875 141.3125 C42.77 142.55 42.8525 143.7875 42.9375 145.0625 C45.24617697 145.86106676 46.49296195 146.22015061 48.83203125 145.390625 C49.46496094 145.03484375 50.09789062 144.6790625 50.75 144.3125 C67.3086326 135.16257518 86.60163152 131.22664226 105.13818359 128.48901367 C107.08790886 128.19194669 109.03350832 127.86702962 110.97509766 127.52075195 C119.38685583 126.06825575 127.53697664 125.78953775 136.0625 125.875 C137.42748859 125.88254589 138.79247891 125.88978565 140.1574707 125.89672852 C167.30116734 126.0850708 167.30116734 126.0850708 172.85668945 127.57836914 C175.19893949 128.1233277 177.28595054 128.1603169 179.6875 128.125 C180.48671875 128.11597656 181.2859375 128.10695313 182.109375 128.09765625 C182.71265625 128.08605469 183.3159375 128.07445312 183.9375 128.0625 C184.29465088 127.1559668 184.65180176 126.24943359 185.01977539 125.31542969 C186.37247212 121.88962586 187.73804533 118.46906927 189.10717773 115.04980469 C189.69327672 113.58111147 190.27607025 112.11109399 190.85522461 110.63964844 C200.22010513 86.86663573 212.5983043 68.67156553 236.53125 57.89453125 C254.67957225 51.45187685 276.3779786 58.26761837 293.10009766 66.07177734 C315.92961881 77.11930023 338.87198339 95.6513326 348.30078125 120.07421875 C348.51089844 120.73035156 348.72101563 121.38648438 348.9375 122.0625 C349.15792969 122.74957031 349.37835937 123.43664062 349.60546875 124.14453125 C352.29055909 134.14604224 352.50242757 146.64563037 347.375 155.875 C342.04495228 160.65837616 336.02102648 162.78028249 328.875 162.4453125 C312.30685335 160.28616573 302.75881977 154.74440241 291.9375 142.0625 C283.8870357 133.1646184 274.67185112 128.14663663 263.66357422 123.85229492 C257.79405916 121.54861605 253.14873206 119.00406961 248.375 114.8125 C245.59463494 112.81634047 244.2836421 112.59775804 240.9375 113.0625 C239.57895975 114.21390868 239.57895975 114.21390868 239.5625 117.3125 C240.03184541 122.00595411 241.56698086 122.93860421 244.9375 126.0625 C246.0625 128.5625 246.0625 128.5625 245.9375 131.0625 C243.84986702 133.62153398 241.62071887 135.50765211 239.06640625 137.58203125 C229.02567372 145.93952207 224.769089 154.11457469 222.9375 167.0625 C222.66292969 168.98835938 222.66292969 168.98835938 222.3828125 170.953125 C221.69474959 177.44714791 221.7143073 183.97536641 221.69726562 190.4987793 C221.68759506 192.7280867 221.65650311 194.95645596 221.625 197.18554688 C221.56551599 205.50327856 222.20806074 212.92983428 224.29003906 221.02270508 C224.95108556 224.12628348 225.05007314 226.89949108 224.9375 230.0625 C219.96658992 231.83180698 215.17878076 233.23790325 210 234.25 C186.44527701 239.58210765 163.40660997 254.94641818 150.26806641 275.28173828 C142.68547221 287.68818658 137.33223504 302.39372563 137.9375 317.0625 C138.2675 317.7225 138.5975 318.3825 138.9375 319.0625 C141.81114791 319.47996608 141.81114791 319.47996608 144.9375 319.0625 C148.2280193 314.9225484 149.02802972 310.15705093 150.1875 305.125 C155.69263921 282.97927814 168.6965851 267.09763425 188.0859375 255.26953125 C200.75931152 247.84110574 214.10310909 241.8756809 228.9375 241.0625 C230.25621094 240.98322266 230.25621094 240.98322266 231.6015625 240.90234375 C237.45797269 240.72081082 242.70659513 241.33898355 248.4375 242.5625 C263.71531784 245.7653421 279.61258963 246.00616734 293.1484375 237.5390625 C297.50433547 233.94402007 299.68007627 229.82658914 301.6875 224.625 C301.9364502 223.99174805 302.18540039 223.35849609 302.44189453 222.70605469 C303.99941996 218.69393 305.43251057 214.64797507 306.8203125 210.57421875 C315.89969993 184.13466461 315.89969993 184.13466461 328.9375 177.0625 C337.0998635 173.43785722 346.62170411 172.49236931 355.25 175.0625 C360.70917316 177.46727148 364.77993624 182.22882821 367.00952148 187.68676758 C368.08786454 191.60948512 368.2667185 195.26987286 368.23046875 199.3046875 C368.22597214 200.08931366 368.22147552 200.87393982 368.21684265 201.68234253 C368.07711322 209.55002617 367.01734033 217.18472364 365.64868164 224.92236328 C365.2493012 227.19147029 364.87808172 229.46394768 364.50976562 231.73828125 C362.31361039 244.85834396 359.01136652 257.78809133 353.1875 269.8125 C352.84879883 270.51802002 352.51009766 271.22354004 352.16113281 271.95043945 C348.84976021 278.61181228 344.71052105 284.36035084 339.9375 290.0625 C339.46231934 290.63629395 338.98713867 291.21008789 338.49755859 291.80126953 C330.97846626 300.85951304 323.1945472 309.35616322 314.24609375 317.03125 C311.93572583 319.06406103 309.69365668 321.16077909 307.45410156 323.27099609 C291.19384936 338.5397695 272.85215808 351.30885747 253.9375 363.0625 C253.26960449 363.47951172 252.60170898 363.89652344 251.91357422 364.32617188 C242.36754374 370.21151742 232.82316692 374.16313175 222.10205078 377.40527344 C219.73882953 378.12282268 217.38019983 378.85064099 215.02734375 379.6015625 C214.29249756 379.83311035 213.55765137 380.0646582 212.80053711 380.30322266 C210.7380523 381.0033172 210.7380523 381.0033172 208.9375 383.0625 C208.52083333 385.5625 208.52083333 385.5625 208.9375 388.0625 C212.9923489 390.7657326 216.18037449 390.48680622 220.9375 390.0625 C222.95245907 389.44251259 224.9562415 388.78295764 226.9375 388.0625 C228.5875 388.0625 230.2375 388.0625 231.9375 388.0625 C231.9375 426.0125 231.9375 463.9625 231.9375 503.0625 C168.2475 503.0625 104.5575 503.0625 38.9375 503.0625 C38.89625 484.479375 38.855 465.89625 38.8125 446.75 C38.79429199 440.87791748 38.77608398 435.00583496 38.75732422 428.95581055 C38.74829102 421.79650879 38.74829102 421.79650879 38.74661255 418.44709778 C38.74353728 416.10305523 38.73649476 413.75901589 38.72634888 411.41499329 C38.71176349 407.86864711 38.70968619 404.32249461 38.71044922 400.77612305 C38.703253 399.72829242 38.69605679 398.68046179 38.6886425 397.60087872 C38.6913975 396.64793832 38.69415249 395.69499792 38.69699097 394.71318054 C38.69514738 393.88264506 38.69330379 393.05210958 38.69140434 392.19640636 C38.9375 390.0625 38.9375 390.0625 40.9375 387.0625 C43.28515625 386.5859375 43.28515625 386.5859375 46 386.4375 C49.2757639 386.50208263 49.2757639 386.50208263 51.9375 385.0625 C52.77689269 382.3232041 52.77689269 382.3232041 51.9375 379.0625 C48.44322301 375.53783799 44.33199749 372.8553393 40.03125 370.41015625 C35.85932555 367.24433984 33.41024857 363.47461417 30.5625 359.125 C29.99450684 358.27180176 29.42651367 357.41860352 28.84130859 356.53955078 C27.70970058 354.83167581 26.58405968 353.11982996 25.46484375 351.40380859 C24.17855835 349.43202519 22.87445594 347.47423052 21.5625 345.51953125 C8.06540575 324.72029811 1.73560868 299.30305062 -2.0625 275.0625 C-2.16346985 274.42000305 -2.2644397 273.7775061 -2.36846924 273.11553955 C-3.18898079 267.87255797 -3.97542066 262.62494218 -4.75 257.375 C-4.85886536 256.64986206 -4.96773071 255.92472412 -5.07989502 255.1776123 C-8.46850835 232.4257704 -8.32551249 209.57532666 -8.46386719 186.61914062 C-8.48091663 183.85933889 -8.50573052 181.09980608 -8.53872681 178.34014893 C-8.56916659 175.77348647 -8.5889923 173.20666548 -8.59579468 170.63983154 C-8.71510962 162.12589456 -10.00988669 154.31595975 -12.0625 146.0625 C-12.24980682 145.27704803 -12.43711365 144.49159607 -12.63009644 143.68234253 C-13.09555984 141.75404404 -13.58621612 139.83187863 -14.078125 137.91015625 C-14.44187374 136.47765649 -14.80547456 135.04511915 -15.16894531 133.61254883 C-15.35509399 132.88242584 -15.54124268 132.15230286 -15.73303223 131.40005493 C-19.08859991 118.22572297 -22.21699127 105.02965573 -25.10083008 91.74291992 C-26.97678273 83.32814628 -29.11984057 75.00953229 -31.38671875 66.69140625 C-31.68214569 65.60259659 -31.97757263 64.51378693 -32.2819519 63.39198303 C-33.76412034 57.93874877 -35.26530794 52.49184166 -36.79589844 47.05200195 C-43.62053752 22.39760153 -43.62053752 22.39760153 -39 11.625 C-35.43394 5.45451415 -30.53217901 0.77849945 -23.625 -1.4609375 C-16.06123031 -2.86761418 -7.04069333 -3.49615184 0 0 Z " fill="#FEBB85" transform="translate(355.0625,229.9375)"/>
<path d="M0 0 C1.5768457 -0.0309375 1.5768457 -0.0309375 3.18554688 -0.0625 C9.81101117 -0.09548302 15.20702113 0.65527183 21.3125 3.25 C22.58287109 3.77980469 22.58287109 3.77980469 23.87890625 4.3203125 C34.39311976 9.87576778 40.19943383 18.77032016 43.85351562 29.89746094 C46.31856441 42.53214717 43.73863261 55.89860744 41.25 68.3125 C40.92846141 69.97798517 40.60800869 71.6436803 40.28857422 73.30957031 C39.32491372 78.29555191 38.32597541 83.27392705 37.3125 88.25 C37.1653656 88.97266052 37.0182312 89.69532104 36.86663818 90.43988037 C35.07530739 99.20582035 33.20029687 107.95297235 31.29980469 116.69580078 C30.18132273 121.84568571 29.07867621 126.99893501 27.9765625 132.15234375 C27.67626633 133.55629898 27.67626633 133.55629898 27.36990356 134.98861694 C26.96605292 136.87672686 26.56221378 138.76483924 26.15838623 140.6529541 C25.21654477 145.05413112 24.27242972 149.45481968 23.328125 153.85546875 C21.65493405 161.65336425 19.98308025 169.45154469 18.3125 177.25 C22.6532477 175.64581063 26.04942618 173.78638807 29.75 171 C45.43248644 159.62535706 62.81674707 157.33754418 81.76367188 159.53417969 C86.41840213 160.33133964 90.86697799 161.68911298 95.3125 163.25 C96.02422363 163.49137695 96.73594727 163.73275391 97.46923828 163.98144531 C128.20706898 174.5715105 155.50276958 194.77961379 170.30761719 224.22949219 C175.02966231 234.26064749 177.66254898 243.05556201 177.625 254.125 C177.64111328 255.06730469 177.65722656 256.00960937 177.67382812 256.98046875 C177.67768453 262.55683236 177.03525187 267.09196508 174.95776367 272.28173828 C174.10481933 274.53827072 174.10481933 274.53827072 174.3125 278.25 C176.55048297 280.37396875 176.55048297 280.37396875 179.4375 282.375 C184.99394102 286.73159257 188.32017455 290.88876392 191.3125 297.25 C191.65023438 297.92160156 191.98796875 298.59320313 192.3359375 299.28515625 C197.43580226 311.42657741 194.09773921 325.85454748 191.375 338.15625 C190.4722486 342.29123019 189.84612178 346.40750455 189.31542969 350.60449219 C186.14423575 375.31624183 177.24813081 397.99890238 161.3125 417.25 C160.47374126 418.29149189 159.63520696 419.33316456 158.796875 420.375 C149.55894044 431.70134746 139.34916046 442.1249916 127.87109375 451.1875 C125.3507715 453.21914908 122.99285277 455.35618128 120.625 457.5625 C109.71562942 467.42158956 97.50430248 475.58215271 85.3125 483.75 C84.72832306 484.14299286 84.14414612 484.53598572 83.54226685 484.94088745 C66.69592966 496.25 66.69592966 496.25 61.3125 496.25 C61.31618717 496.90414698 61.31987434 497.55829395 61.32367325 498.23226357 C61.41205187 514.15697928 61.47822291 530.08160957 61.51974869 546.00650978 C61.54036458 553.70771727 61.56846638 561.40876094 61.61425781 569.10986328 C61.65415561 575.82299357 61.6799399 582.53600521 61.68885398 589.24925077 C61.69406382 592.80316379 61.70628797 596.35673741 61.73542023 599.91054153 C61.7676955 603.8800411 61.76845751 607.84921012 61.76660156 611.81884766 C61.78098267 612.99417053 61.79536377 614.16949341 61.81018066 615.38043213 C61.77955598 621.42476819 61.74831957 625.6933252 57.3125 630.25 C52.53177562 633.21500804 48.42198694 633.68068326 42.92468262 633.63768005 C41.67990119 633.64575836 41.67990119 633.64575836 40.40997267 633.65399987 C37.63709532 633.66827527 34.86469564 633.66117681 32.09179688 633.65405273 C30.1006685 633.65975647 28.1095434 633.66672074 26.11842346 633.67485046 C20.7156085 633.69279525 15.31295583 633.69161114 9.91012001 633.68590808 C5.39950181 633.68281857 0.88891489 633.68890594 -3.62169886 633.69494683 C-14.26166032 633.70899439 -24.9015415 633.70742843 -35.54150391 633.69604492 C-46.51948937 633.68455935 -57.49723067 633.69864632 -68.47518396 633.7254414 C-77.90124054 633.74758746 -87.3272204 633.75423835 -96.75330114 633.74836498 C-102.38283988 633.7449921 -108.01222203 633.74743278 -113.64173889 633.76461601 C-118.93432522 633.78006587 -124.22654925 633.77615122 -129.51912117 633.75731087 C-131.46134941 633.75361978 -133.40360438 633.75674855 -135.34580803 633.76719666 C-137.9975187 633.7803725 -140.64802391 633.76888967 -143.29968262 633.75120544 C-144.06797535 633.76081045 -144.83626809 633.77041546 -145.62784243 633.78031152 C-151.80752669 633.69553196 -155.29540928 631.70289246 -159.54304695 627.34728909 C-161.0207959 624.63921229 -161.03723382 622.77307084 -160.99874878 619.69337463 C-160.99249985 618.5623381 -160.98625092 617.43130157 -160.97981262 616.26599121 C-160.95795395 615.02909546 -160.93609528 613.79219971 -160.91357422 612.51782227 C-160.89716322 610.51262748 -160.88077237 608.50743244 -160.86513448 606.50223148 C-160.84598212 604.34732954 -160.81989987 602.19259499 -160.79253769 600.03778267 C-160.73788657 595.53504812 -160.71681343 591.03254906 -160.70315552 586.52952576 C-160.69808714 584.98525708 -160.69299624 583.44098847 -160.68788338 581.89671993 C-160.6853475 581.12328397 -160.68281163 580.349848 -160.68019891 579.55297458 C-160.64329228 569.07356791 -160.57949949 558.5950792 -160.44433594 548.11645508 C-160.3533712 541.043708 -160.30930751 533.97229838 -160.31732762 526.89895099 C-160.31963139 523.16082807 -160.29854821 519.42623529 -160.21950912 515.6888752 C-159.09724836 498.04949599 -159.09724836 498.04949599 -166.23964119 482.80589199 C-167.93173933 481.27945045 -169.64915409 479.92094435 -171.5017395 478.5960083 C-179.85511208 472.44454732 -183.30017529 461.01432999 -186.6875 451.5625 C-187.11119873 450.39332031 -187.53489746 449.22414063 -187.97143555 448.01953125 C-194.93365627 428.45944548 -199.73693479 408.76843871 -203.17260742 388.30371094 C-203.50614634 386.3255674 -203.85190086 384.34942905 -204.2121582 382.37597656 C-205.73824814 373.83219065 -206.56353863 365.26790941 -207.25 356.625 C-207.3501239 355.40961548 -207.3501239 355.40961548 -207.45227051 354.16967773 C-208.57439338 340.227017 -208.82411582 326.3441229 -208.89379883 312.36083984 C-209.0055406 290.5313743 -209.368149 270.48281595 -215.52197266 249.43115234 C-216.97916837 244.3351209 -218.17606208 239.17864661 -219.38671875 234.01953125 C-219.62015991 233.02480301 -219.85360107 232.03007477 -220.09411621 231.00520325 C-220.57220256 228.96529528 -221.04992157 226.92530118 -221.52728271 224.88522339 C-222.70335928 219.88498603 -223.90741019 214.89155972 -225.11328125 209.8984375 C-225.34067993 208.95651047 -225.56807861 208.01458344 -225.80236816 207.04411316 C-226.43009644 204.44591792 -227.05862489 201.84791786 -227.6875 199.25 C-227.85505798 198.55700806 -228.02261597 197.86401611 -228.19525146 197.15002441 C-234.24347895 172.00422902 -234.24347895 172.00422902 -241.6875 147.25 C-242.59134807 135.15917991 -241.29081666 124.70911128 -233.36328125 115.08984375 C-226.68355526 107.75615857 -220.17463621 104.28688752 -210.6875 101.25 C-210.05585938 101.04761719 -209.42421875 100.84523438 -208.7734375 100.63671875 C-197.80328382 98.60292621 -187.44737653 99.81159393 -178.10546875 105.9453125 C-171.90785876 110.53544644 -167.60224718 115.64153392 -163.6875 122.25 C-163.12546875 123.17425781 -162.5634375 124.09851563 -161.984375 125.05078125 C-155.81262546 136.2127517 -152.8062471 148.5412372 -149.42431641 160.76660156 C-148.77457192 163.2211301 -148.77457192 163.2211301 -147.6875 165.25 C-147.48396211 152.96988056 -148.03278438 140.87175155 -148.97116089 128.62994385 C-150.16143605 112.784794 -151.01919917 96.95287122 -151.109375 81.06079102 C-151.11961586 79.30048394 -151.13646682 77.54020012 -151.16064453 75.7800293 C-151.36294009 59.18055495 -149.68379647 43.283648 -138.03125 30.421875 C-128.83775795 21.83550035 -118.18569223 19.64354437 -105.96484375 19.91796875 C-95.65671286 20.48200293 -87.08070984 24.57637678 -79.8046875 31.8046875 C-63.44887798 50.69534572 -64.4704283 78.46159141 -63.42138672 102.09204102 C-63.38649643 102.82130798 -63.35160614 103.55057495 -63.31565857 104.30194092 C-63.2212906 106.28996704 -63.13559554 108.27839952 -63.05053711 110.2668457 C-62.61723274 115.02095518 -61.70795934 119.59190806 -60.6875 124.25 C-57.73446174 111.39595148 -54.86493014 98.52727005 -52.09838867 85.63183594 C-48.80062305 70.26056454 -45.48602155 54.88897072 -41.86734009 39.58950806 C-41.54469823 38.22020503 -41.22616515 36.84992589 -40.91220093 35.47860718 C-38.34054444 24.28519194 -35.20983237 13.44668581 -25.6875 6.25 C-16.89291286 1.02482091 -10.09485392 0.04862061 0 0 Z M-221.625 122.0625 C-227.681285 129.86139531 -228.42669003 136.59037257 -227.6875 146.25 C-226.63295365 151.71605939 -225.15277108 157.0254941 -223.625 162.375 C-223.20999926 163.87709883 -222.79686008 165.37971311 -222.38549805 166.8828125 C-221.55573275 169.90979438 -220.71894689 172.93467756 -219.87597656 175.95800781 C-218.18563089 182.03830751 -216.5833316 188.14105792 -215 194.25 C-214.71552002 195.34465576 -214.43104004 196.43931152 -214.13793945 197.56713867 C-211.97918193 205.94830735 -210.01408866 214.36611933 -208.10791016 222.80786133 C-206.59934028 229.43947051 -205.00664127 236.04535116 -203.34765625 242.640625 C-203.14392395 243.4506044 -202.94019165 244.2605838 -202.73028564 245.09510803 C-201.7166565 249.11704045 -200.69664223 253.13727182 -199.67041016 257.15600586 C-199.29456414 258.63915199 -198.91874893 260.12230593 -198.54296875 261.60546875 C-198.37031998 262.27423035 -198.1976712 262.94299194 -198.01979065 263.63201904 C-195.82053176 272.33879756 -195.51670389 280.64820069 -195.44140625 289.58203125 C-195.41687145 291.57780796 -195.39232551 293.57358458 -195.36720943 295.56935406 C-195.30727218 300.44076803 -195.25677317 305.31227491 -195.21069336 310.18383789 C-194.97008679 334.94856361 -193.8456583 359.44658478 -189.9375 383.9375 C-189.80811035 384.7645343 -189.6787207 385.5915686 -189.54541016 386.44366455 C-187.41929833 399.95230835 -184.78486838 413.18322772 -180.6875 426.25 C-180.45063477 427.01844238 -180.21376953 427.78688477 -179.96972656 428.57861328 C-174.94647302 444.58894195 -167.51553994 458.8481721 -157.87060547 472.54541016 C-156.7665178 474.13615306 -155.71124398 475.76046934 -154.66015625 477.38671875 C-150.58045356 483.50210131 -146.52110213 487.19296072 -140.10546875 490.8125 C-137.8794579 492.13587963 -136.2877286 493.22479265 -134.6875 495.25 C-134.4375 498.375 -134.4375 498.375 -134.6875 501.25 C-136.68923267 503.25173267 -140.62456892 502.62497643 -143.33984375 502.7734375 C-146.05494646 503.03734527 -146.05494646 503.03734527 -147.6875 506.25 C-147.98244701 508.44260034 -147.98244701 508.44260034 -147.92800903 510.90068054 C-147.93076403 511.85362094 -147.93351902 512.80656134 -147.9363575 513.78837872 C-147.92916128 514.83620934 -147.92196507 515.88403997 -147.91455078 516.96362305 C-147.91491239 518.64428092 -147.91491239 518.64428092 -147.9152813 520.35889149 C-147.91378603 523.99324744 -147.89854332 527.6273994 -147.8828125 531.26171875 C-147.87987273 533.50248109 -147.87783188 535.7432448 -147.87670898 537.98400879 C-147.86621399 546.30186011 -147.83829168 554.61968205 -147.8125 562.9375 C-147.77125 581.520625 -147.73 600.10375 -147.6875 619.25 C-83.9975 619.25 -20.3075 619.25 45.3125 619.25 C45.3125 581.3 45.3125 543.35 45.3125 504.25 C38.06427852 504.89045375 38.06427852 504.89045375 34.3125 506.25 C32.81573294 506.36659598 31.31374939 506.42498959 29.8125 506.4375 C29.0390625 506.45167969 28.265625 506.46585938 27.46875 506.48046875 C25.3125 506.25 25.3125 506.25 22.3125 504.25 C21.875 501.8125 21.875 501.8125 22.3125 499.25 C25.8776536 495.57914104 30.78808444 494.84440279 35.5625 493.5625 C65.25965979 485.07299751 93.35769443 464.27734769 115.8359375 443.515625 C117.90193322 441.62559737 119.99291293 439.7786686 122.10546875 437.94140625 C132.35428642 428.99580968 142.70250374 419.81180529 151.3125 409.25 C151.73837402 408.73066895 152.16424805 408.21133789 152.60302734 407.67626953 C168.90300597 387.51652993 174.95114087 365.42207176 178.83813477 340.22851562 C179.16068349 338.20324828 179.50307966 336.1810636 179.86303711 334.16210938 C180.94821159 328.06072674 181.65266836 322.19771324 181.625 316 C181.64111328 315.26265625 181.65722656 314.5253125 181.67382812 313.765625 C181.67935817 307.48348911 180.52216606 301.95436741 176.48046875 297.0078125 C168.68799567 290.58324889 162.34177286 289.46388759 152.3125 290.25 C143.69316144 291.63009788 137.11319887 295.7083202 131.52050781 302.39135742 C126.91140446 308.7617872 124.20315975 315.06140491 121.75 322.5 C120.98302697 324.71052469 120.21350961 326.92016828 119.44140625 329.12890625 C119.0767627 330.18223145 118.71211914 331.23555664 118.33642578 332.32080078 C111.68264787 351.35561894 111.68264787 351.35561894 102.04296875 356.44921875 C89.78186649 362.24426708 74.86314015 361.52690221 61.8125 358.75 C39.01918161 353.92613823 17.67080499 361.3590691 -1.6875 373.25 C-6.25956812 376.30233843 -10.50375742 379.68962307 -14.6875 383.25 C-15.36039063 383.80945313 -16.03328125 384.36890625 -16.7265625 384.9453125 C-29.54295565 396.59125878 -34.4884838 413.21284552 -38.79296875 429.38671875 C-39.6875 432.25 -39.6875 432.25 -41.6875 435.25 C-44.8125 435.4375 -44.8125 435.4375 -47.6875 435.25 C-51.21296251 428.19907499 -47.16651799 417.28643905 -44.82861328 410.13330078 C-35.90444331 384.27002242 -17.65994365 368.7117562 5.83984375 356.40234375 C15.31096319 351.99900522 25.31596478 349.87887056 35.4934082 347.72729492 C37.31884655 347.41181968 37.31884655 347.41181968 38.3125 346.25 C37.93399989 341.55659869 37.28083673 337.07742995 36.28515625 332.48046875 C35.01570191 325.55680559 35.01163049 318.67354763 35.05175781 311.6628418 C35.06243301 309.45137802 35.05182977 307.24073539 35.0390625 305.02929688 C35.00557509 270.71522186 35.00557509 270.71522186 46.3125 259.25 C49.12371923 256.82393369 51.98240206 254.49932423 54.921875 252.23046875 C57.48825466 250.29714124 57.48825466 250.29714124 59.3125 247.25 C59.37095809 244.78349802 59.37095809 244.78349802 58.3125 242.25 C57.466875 241.46625 56.62125 240.6825 55.75 239.875 C53.3125 237.25 53.3125 237.25 52.9375 233.5 C53.3125 230.25 53.3125 230.25 54.3125 229.25 C57.30392132 228.91029622 58.83351582 228.93640093 61.3828125 230.60546875 C62.06085938 231.21003906 62.73890625 231.81460938 63.4375 232.4375 C69.13524689 237.11812843 75.33331563 239.79185593 82.22265625 242.31640625 C94.61944314 247.00399233 103.24284865 254.40043219 111.265625 264.765625 C119.1280444 274.30856152 129.97667222 277.14482413 141.8203125 278.546875 C148.52230873 278.92504407 153.80520003 277.08995227 159.3125 273.25 C164.84477482 267.02303313 164.7006679 258.55324196 164.5703125 250.6015625 C162.97146829 229.81658771 148.14482454 212.28021847 133.18847656 198.83935547 C128.27294502 194.67484345 122.91312045 191.39909231 117.3125 188.25 C116.72001465 187.90388672 116.1275293 187.55777344 115.51708984 187.20117188 C97.17979148 176.50318315 76.03467818 169.12526058 54.52734375 172.71484375 C36.71108733 177.48655109 22.80051961 190.49099701 13.53125 205.9765625 C6.96945885 218.08549746 2.0481206 231.33324083 -2.6875 244.25 C-11.20425751 244.37524643 -11.20425751 244.37524643 -13.49609375 243.78125 C-37.51063146 237.95954389 -67.82313054 241.48472354 -91.6875 246.25 C-92.4825293 246.40484863 -93.27755859 246.55969727 -94.09667969 246.71923828 C-103.01490234 248.50012175 -111.69107549 251.06568343 -120.375 253.75 C-121.30860352 254.03464111 -122.24220703 254.31928223 -123.20410156 254.61254883 C-128.34510651 256.25338468 -132.30854843 258.11931664 -136.6875 261.25 C-140 262.0625 -140 262.0625 -142.6875 262.25 C-143.6875 261.25 -143.6875 261.25 -144.0625 257.5625 C-144.05575716 253.77302153 -143.74747531 253.32167781 -141.125 250.1875 C-138.32501287 247.48826911 -138.32501287 247.48826911 -138.84814453 244.15844727 C-139.83284636 239.57319665 -141.19606275 235.22160547 -142.6796875 230.77734375 C-145.67304039 221.58968459 -148.45618376 212.35045744 -151.1328125 203.06640625 C-151.41821018 202.07811892 -151.41821018 202.07811892 -151.70937347 201.06986618 C-153.28063507 195.62750846 -154.84460743 190.18306337 -156.40808105 184.73846436 C-157.5846698 180.64208091 -158.7638954 176.54647323 -159.94640732 172.45179558 C-160.48551718 170.58126359 -161.02093017 168.70966732 -161.55618286 166.83802795 C-166.47925696 149.37331336 -166.47925696 149.37331336 -173.625 132.75 C-174.14030273 131.74694824 -174.14030273 131.74694824 -174.66601562 130.72363281 C-178.18338276 124.05242531 -181.96457496 118.07715516 -189.09375 114.91015625 C-200.42899112 112.02513253 -213.38160126 113.25471918 -221.625 122.0625 Z " fill="#774226" transform="translate(541.6875,113.75)"/>
<path d="M0 0 C1.12039673 0.0163147 1.12039673 0.0163147 2.26342773 0.03295898 C11.28852327 0.29221647 18.37082633 1.90329948 24.9921875 8.390625 C31.34653519 15.82843289 31.61868878 24.14650519 30.96240234 33.60107422 C29.09006538 52.49405166 24.56863958 71.19118964 20.48779297 89.70263672 C19.66090188 93.49705273 18.85991374 97.29612453 18.06640625 101.09765625 C14.05042889 120.33607491 9.72382659 139.4916904 5.25201416 158.62910461 C4.16157775 163.30553072 3.0987587 167.98697365 2.0625 172.67578125 C-1.37139854 188.13803787 -5.63157355 203.24513003 -10.3125 218.375 C-10.88355469 218.31441406 -11.45460938 218.25382813 -12.04296875 218.19140625 C-23.89233838 216.96690859 -35.71962264 216.20956289 -47.625 215.8125 C-48.85412109 215.76931641 -50.08324219 215.72613281 -51.34960938 215.68164062 C-54.33716486 215.57701806 -57.32478143 215.47483673 -60.3125 215.375 C-59.742694 203.50069663 -58.90572365 191.69417265 -57.625 179.875 C-57.5404657 179.08940704 -57.4559314 178.30381409 -57.36883545 177.49441528 C-54.60295923 152.1509233 -49.68820002 127.25972901 -44.18701172 102.37988281 C-43.19216684 97.85019991 -42.23910742 93.31187679 -41.28515625 88.7734375 C-37.57124889 71.13556782 -33.75325138 53.52271588 -29.64929199 35.9710083 C-29.22035322 34.13215206 -28.79507105 32.29243858 -28.37365723 30.45184326 C-27.78513513 27.88827394 -27.18182818 25.3286345 -26.57421875 22.76953125 C-26.404702 22.0203392 -26.23518524 21.27114716 -26.06053162 20.49925232 C-24.34123555 13.40507638 -21.63224338 7.49018173 -15.3125 3.375 C-10.01184274 0.70494188 -5.90525082 -0.11681009 0 0 Z " fill="#FEBB86" transform="translate(541.3125,126.625)"/>
<path d="M0 0 C13.90630305 14.70094894 12.47555571 39.48611095 13.6875 58.375 C13.81588787 60.32725324 13.9446359 62.27948282 14.07373047 64.23168945 C14.33003512 68.11881565 14.58362493 72.00610418 14.83496094 75.89355469 C15.09895591 79.96910012 15.37005801 84.04408801 15.64764404 88.11872864 C15.87194162 91.41230671 16.09189969 94.7061723 16.3125 98 C16.38791016 99.09771729 16.46332031 100.19543457 16.54101562 101.32641602 C17.86810171 121.5898848 18.37419814 141.85539658 18.37280273 162.15991211 C18.37504738 165.82741989 18.39346826 169.49465218 18.41210938 173.16210938 C18.41503418 175.50260315 18.41702506 177.84309833 18.41796875 180.18359375 C18.42515427 181.2760289 18.43233978 182.36846405 18.43974304 183.4940033 C18.43666641 184.49428055 18.43358978 185.4945578 18.43041992 186.52514648 C18.43184494 187.40460434 18.43326996 188.28406219 18.43473816 189.19017029 C18.1875 191.3125 18.1875 191.3125 16.1875 193.3125 C13.65289333 193.70807445 11.17426175 194.00945457 8.625 194.25 C3.26780903 194.83397887 -1.56285904 195.62937941 -6.6328125 197.5234375 C-16.05964611 200.93601884 -25.91296763 202.16296414 -35.8125 203.3125 C-37.29019012 199.28047089 -38.1140862 195.71711251 -38.375 191.43530273 C-38.44855209 190.29246826 -38.52210419 189.14963379 -38.59788513 187.97216797 C-38.66870804 186.74256348 -38.73953094 185.51295898 -38.8125 184.24609375 C-38.89303116 182.95662842 -38.97356232 181.66716309 -39.05653381 180.33862305 C-39.27329117 176.86256912 -39.47992978 173.38598271 -39.68446732 169.90919113 C-39.85600738 167.01627525 -40.03370432 164.12375173 -40.21154499 161.23121738 C-41.25023799 144.33588483 -42.23167452 127.43730008 -43.08935547 110.53173828 C-43.51330072 102.27278467 -44.02333877 94.02337412 -44.59765625 85.7734375 C-47.09009794 49.88861237 -47.09009794 49.88861237 -47.125 36.1875 C-47.13031738 35.22497314 -47.13563477 34.26244629 -47.14111328 33.27075195 C-47.026584 22.09410066 -45.88097742 10.16307236 -38.17578125 1.46484375 C-26.77098194 -8.96606259 -12.65020267 -7.5901216 0 0 Z " fill="#FEBB86" transform="translate(450.8125,152.6875)"/>
<path d="M0 0 C6.52252573 3.71724491 11.54592333 8.03661906 16.265625 13.8515625 C22.60523936 21.59178933 30.17915318 25.65429239 39.6015625 28.78515625 C42.09042931 30.07745248 42.64975955 31.26467243 43.6328125 33.83984375 C43.18550781 34.32453125 42.73820313 34.80921875 42.27734375 35.30859375 C33.88350455 44.61519584 29.01058739 54.40698263 25.16015625 66.33203125 C24.90613037 67.11787598 24.65210449 67.9037207 24.39038086 68.71337891 C23.89934454 70.25374228 23.41899334 71.79756907 22.95141602 73.34521484 C20.90665049 79.8242642 18.18936247 86.41913631 12.3828125 90.33984375 C2.83822569 94.34356556 -9.3157983 92.18063369 -19.1171875 90.15234375 C-20.24229736 89.92998047 -20.24229736 89.92998047 -21.39013672 89.703125 C-26.33474963 88.5526402 -29.36927607 87.15793636 -32.3671875 82.83984375 C-33.53870872 79.09923025 -34.12869645 75.34001794 -34.6796875 71.46484375 C-34.84428467 70.3857373 -35.00888184 69.30663086 -35.1784668 68.19482422 C-36.36422412 59.96659236 -36.80183586 52.15138488 -36.3671875 43.83984375 C-36.33191525 42.29693479 -36.29952653 40.75395807 -36.26953125 39.2109375 C-36.22086452 37.60800732 -36.17011153 36.00513901 -36.1171875 34.40234375 C-36.10341064 33.66838379 -36.08963379 32.93442383 -36.07543945 32.17822266 C-35.57496596 21.31115129 -28.63084488 13.4039948 -21.3671875 5.83984375 C-14.51266852 0.17447263 -8.80742828 -4.31651188 0 0 Z " fill="#FDAD69" transform="translate(624.3671875,370.16015625)"/>
<path d="M0 0 C0.79375031 -0.00807175 1.58750061 -0.01614349 2.40530396 -0.02445984 C4.09505008 -0.03832819 5.78482455 -0.04903796 7.47460938 -0.05688477 C10.02530932 -0.07391822 12.57465102 -0.11775332 15.125 -0.16210938 C35.08109008 -0.35494315 35.08109008 -0.35494315 42.17724609 6.01831055 C47.26589781 11.555776 48.60383231 16.09434883 48.4453125 23.5546875 C47.86701197 29.76238226 44.15014143 33.74901597 40.1953125 38.23828125 C41.1028125 38.77453125 42.0103125 39.31078125 42.9453125 39.86328125 C46.44495609 41.93125246 48.26112505 44.70053668 50.1953125 48.23828125 C50.58611583 51.03712275 50.77087594 53.33616048 50.6953125 56.11328125 C50.68322754 56.82073486 50.67114258 57.52818848 50.65869141 58.25708008 C50.37576402 65.69464083 48.53291242 69.6726228 43.6328125 75.05078125 C34.78540913 81.52498604 23.01754078 80.64893955 12.61230469 80.51953125 C10.0408705 80.4879193 7.47004822 80.47850525 4.8984375 80.47265625 C3.26561743 80.4635023 1.63280363 80.45313173 0 80.44140625 C-1.15449142 80.43503143 -1.15449142 80.43503143 -2.33230591 80.42852783 C-7.68739922 80.35556953 -7.68739922 80.35556953 -8.8046875 79.23828125 C-8.90498607 76.8097109 -8.94087175 74.40956512 -8.93408203 71.98046875 C-8.93583435 71.22115051 -8.93758667 70.46183228 -8.93939209 69.67950439 C-8.9438108 67.15740709 -8.94087256 64.63537932 -8.9375 62.11328125 C-8.93817303 60.36832669 -8.93914305 58.62337221 -8.94039917 56.87841797 C-8.94187617 53.2164623 -8.93972153 49.55453097 -8.93505859 45.89257812 C-8.9293613 41.18783633 -8.9326403 36.48315157 -8.93863106 31.77841187 C-8.94223662 28.17374234 -8.94109811 24.56908643 -8.93850327 20.9644165 C-8.93783398 19.22918694 -8.93866246 17.49395616 -8.94098282 15.75872803 C-8.94350927 13.33781638 -8.93966888 10.91699839 -8.93408203 8.49609375 C-8.93610626 7.77190247 -8.93813049 7.04771118 -8.94021606 6.30157471 C-8.90902623 -0.95696869 -6.50538331 0.06243636 0 0 Z " fill="#FEFCFB" transform="translate(708.8046875,807.76171875)"/>
<path d="M0 0 C5.60061993 4.66718327 9.71736724 10.07442554 10.5625 17.4375 C10.60375 18.736875 10.645 20.03625 10.6875 21.375 C-2.75402117 22.60628438 -2.75402117 22.60628438 -6.43359375 19.69921875 C-7.875 17.5625 -7.875 17.5625 -8.94140625 15.41796875 C-10.93516345 12.44721372 -12.99763021 11.64693941 -16.3125 10.375 C-22.77640693 9.53004485 -30.01347242 9.07851606 -35.9375 12.1875 C-40.6108386 15.85066279 -42.8292732 20.72916896 -44.3125 26.375 C-45.40675431 35.45827916 -44.87195995 44.28336584 -40.3125 52.375 C-37.13931089 56.28800568 -33.21041642 58.35845131 -28.3125 59.375 C-20.92225092 60.11288969 -15.41212161 59.79196737 -9.3125 55.375 C-6.8375 50.425 -6.8375 50.425 -4.3125 45.375 C-11.9025 45.375 -19.4925 45.375 -27.3125 45.375 C-27.3125 40.755 -27.3125 36.135 -27.3125 31.375 C-14.7725 31.375 -2.2325 31.375 10.6875 31.375 C10.6875 45.565 10.6875 59.755 10.6875 74.375 C6.7275 74.375 2.7675 74.375 -1.3125 74.375 C-2.3125 73.375 -2.3125 73.375 -2.375 69.8125 C-2.354375 68.678125 -2.33375 67.54375 -2.3125 66.375 C-2.85777344 66.77332031 -3.40304687 67.17164063 -3.96484375 67.58203125 C-13.44500985 74.24245564 -21.64264221 76.59901369 -33.3125 75.375 C-43.17670373 73.21439214 -50.63395041 67.69001904 -56.3125 59.375 C-62.77449979 48.31780037 -63.97967175 36.21290477 -61.625 23.73046875 C-59.71872513 16.90759327 -57.19461752 11.51924463 -52.3125 6.375 C-51.66410156 5.67503906 -51.01570313 4.97507812 -50.34765625 4.25390625 C-37.74802131 -8.16345549 -14.78857012 -10.02614923 0 0 Z " fill="#FEFDFC" transform="translate(324.3125,813.625)"/>
<path d="M0 0 C0.92425781 0.49306641 0.92425781 0.49306641 1.8671875 0.99609375 C8.0153472 4.80900824 10.39977955 10.4947552 13.3125 16.875 C14.34040204 21.54728199 14.34910208 26.23435063 14 31 C13 32 13 32 9.30639648 32.11352539 C7.66128708 32.11336624 6.01617269 32.10766988 4.37109375 32.09765625 C3.07474754 32.09553383 3.07474754 32.09553383 1.75221252 32.09336853 C-1.01939292 32.08775239 -3.7909188 32.07519719 -6.5625 32.0625 C-8.4368478 32.05748708 -10.31119685 32.05292381 -12.18554688 32.04882812 C-16.79039544 32.03777772 -21.39518421 32.0205023 -26 32 C-25.55187748 33.29432533 -25.0943299 34.58539016 -24.6328125 35.875 C-24.37902832 36.59429688 -24.12524414 37.31359375 -23.86376953 38.0546875 C-23.06095017 40.20138105 -23.06095017 40.20138105 -20.875 42 C-15.72532602 43.79119095 -10.98328987 43.90900786 -6 41.625 C-3.90283323 40.14913969 -3.90283323 40.14913969 -3 38 C1.95 38 6.9 38 12 38 C10.84648725 43.76756375 9.14028761 46.89290107 5 51 C-3.02362724 56.14270281 -10.53662356 57.90004939 -20 57 C-27.37224298 55.03879434 -34.19084413 50.34363697 -38.3515625 43.91015625 C-42.81746426 35.28357623 -43.95513829 23.98293793 -41 14.625 C-37.55125637 7.17441235 -31.36082987 1.39730609 -24 -2 C-16.17431685 -4.4538159 -7.21719455 -3.85854341 0 0 Z " fill="#FEFCFB" transform="translate(386,832)"/>
<path d="M0 0 C5.76358712 4.26093762 10.30528685 9.64192701 12.1875 16.6171875 C12.1875 21.5671875 12.1875 26.5171875 12.1875 31.6171875 C-0.6825 31.6171875 -13.5525 31.6171875 -26.8125 31.6171875 C-24.87918538 37.6176067 -24.87918538 37.6176067 -20.8125 41.6171875 C-17.61933387 43.21377057 -14.286996 42.99751267 -10.8125 42.6171875 C-7.01468809 41.08305337 -7.01468809 41.08305337 -3.8125 38.6171875 C-1.28200598 38.54405183 1.22054837 38.52471223 3.75 38.5546875 C4.46091797 38.55919922 5.17183594 38.56371094 5.90429688 38.56835938 C7.66540013 38.58017886 9.42646036 38.59811487 11.1875 38.6171875 C8.78144978 45.55227343 5.26832063 50.49241106 -1.36328125 53.9453125 C-10.92824312 57.78753198 -18.80772673 57.66965187 -28.3359375 53.8046875 C-36.45073888 49.91367864 -40.05307872 43.30897759 -43.125 35.1171875 C-44.94242146 25.86486005 -43.54274055 17.77430855 -39.125 9.4296875 C-29.09708189 -2.76642912 -14.76790253 -8.59841693 0 0 Z " fill="#FEFDFC" transform="translate(650.8125,832.3828125)"/>
<path d="M0 0 C4.95 0 9.9 0 15 0 C15.01458252 1.19077148 15.02916504 2.38154297 15.04418945 3.60839844 C15.10219235 8.02927577 15.17942515 12.44964481 15.26245117 16.87011719 C15.29569114 18.78279364 15.32372599 20.69556797 15.34643555 22.60839844 C15.37999869 25.35914794 15.43231489 28.10900132 15.48828125 30.859375 C15.49467117 31.71368103 15.5010611 32.56798706 15.50764465 33.44818115 C15.59563036 37.0065549 15.66111334 39.37975098 17.38793945 42.5402832 C20.17565037 45.06454847 22.97020617 44.47316341 26.55078125 44.33203125 C29.63872663 43.91341027 31.61487444 43.00042789 34 41 C35.66349319 37.67301363 35.24378057 33.93570615 35.31640625 30.2734375 C35.33718735 29.41062164 35.35796844 28.54780579 35.37937927 27.65884399 C35.44486034 24.89764507 35.50375298 22.13634962 35.5625 19.375 C35.6056866 17.50519828 35.64930093 15.63540638 35.69335938 13.765625 C35.80054024 9.17718272 35.90181175 4.58864317 36 0 C38.47923801 -0.02685095 40.9581884 -0.04676547 43.4375 -0.0625 C44.14455078 -0.07087891 44.85160156 -0.07925781 45.58007812 -0.08789062 C47.38693559 -0.09653588 49.19387603 -0.05220011 51 0 C52.70565618 1.70565618 52.12752055 3.90733495 52.12939453 6.23828125 C52.13254669 7.35614014 52.13569885 8.47399902 52.13894653 9.62573242 C52.1369223 10.84236572 52.13489807 12.05899902 52.1328125 13.3125 C52.13376923 14.55169189 52.13472595 15.79088379 52.13571167 17.06762695 C52.13639374 19.69388281 52.13503538 22.32004633 52.13037109 24.94628906 C52.12467381 28.31928714 52.12795302 31.69220565 52.13394356 35.06520081 C52.1384177 38.27263677 52.13528882 41.480063 52.1328125 44.6875 C52.13483673 45.9041333 52.13686096 47.1207666 52.13894653 48.37426758 C52.13421829 50.05105591 52.13421829 50.05105591 52.12939453 51.76171875 C52.12859894 52.75131592 52.12780334 53.74091309 52.12698364 54.76049805 C52 57 52 57 51 58 C48.64686445 58.07271741 46.29166332 58.08370868 43.9375 58.0625 C42.64714844 58.05347656 41.35679687 58.04445313 40.02734375 58.03515625 C39.02832031 58.02355469 38.02929688 58.01195312 37 58 C36.34 56.35 35.68 54.7 35 53 C33.948125 53.928125 33.948125 53.928125 32.875 54.875 C27.64603558 58.73988675 22.42247695 59.73566554 16 59 C11.28472669 58.06167638 7.32864288 56.84750129 4.0625 53.1875 C-0.07884107 46.78724562 -0.27727125 41.18478058 -0.1953125 33.7890625 C-0.1924826 32.82092621 -0.18965271 31.85278992 -0.18673706 30.85531616 C-0.17558696 27.77841572 -0.1504918 24.70181172 -0.125 21.625 C-0.11496352 19.5325563 -0.10583884 17.44010802 -0.09765625 15.34765625 C-0.07566453 10.23165749 -0.04117025 5.11587892 0 0 Z " fill="#FEFCFB" transform="translate(506,830)"/>
<path d="M0 0 C3.93595155 2.63819746 7.19486512 5.68126762 8.80078125 10.20703125 C8.80078125 11.52703125 8.80078125 12.84703125 8.80078125 14.20703125 C6.53053157 14.28800449 4.2594605 14.34620829 1.98828125 14.39453125 C0.09142578 14.44673828 0.09142578 14.44673828 -1.84375 14.5 C-5.19921875 14.20703125 -5.19921875 14.20703125 -6.9609375 12.7578125 C-7.36957031 12.24605469 -7.77820313 11.73429688 -8.19921875 11.20703125 C-11.72916488 10.03038254 -14.49377288 10.00852522 -18.19921875 10.20703125 C-19.18921875 10.86703125 -20.17921875 11.52703125 -21.19921875 12.20703125 C-21.09308039 14.65927819 -21.09308039 14.65927819 -20.19921875 17.20703125 C-15.5330452 19.58447329 -10.26008376 20.43812466 -5.16992188 21.53125 C0.75597628 22.91302341 5.02755815 25.24715309 9.17578125 29.83203125 C11.87830792 35.44497126 11.66200768 40.67119787 9.67578125 46.51953125 C5.69939171 52.21902293 0.64917554 55.79162384 -6.19921875 57.20703125 C-15.70653067 58.14744087 -25.37241316 57.75562455 -33.17578125 51.6640625 C-37.20211174 47.494616 -37.99893608 43.91508721 -38.19921875 38.20703125 C-33.49929806 37.92083852 -28.89107968 37.74915734 -24.19921875 38.20703125 C-22.49240928 39.83256408 -20.8226168 41.4981912 -19.19921875 43.20703125 C-15.16245162 43.77119273 -11.23615194 43.77351375 -7.19921875 43.20703125 C-6.53921875 42.54703125 -5.87921875 41.88703125 -5.19921875 41.20703125 C-5.51963272 38.60422557 -5.51963272 38.60422557 -6.19921875 36.20703125 C-11.89499056 34.22054293 -17.68409997 32.81942787 -23.54296875 31.40234375 C-28.46429422 29.79344889 -32.86500673 27.24318264 -36.19921875 23.20703125 C-37.81293413 18.3658851 -38.17611508 13.02091742 -36.48046875 8.13671875 C-33.86532487 3.26495878 -30.59863829 0.16610659 -25.4921875 -1.875 C-17.22608742 -4.17931022 -7.66436783 -4.08477608 0 0 Z " fill="#FEFCFB" transform="translate(444.19921875,831.79296875)"/>
<path d="M0 0 C10.83984375 -0.09765625 10.83984375 -0.09765625 14 0 C15 1 15 1 15.09765625 4.16015625 C15.08605469 5.44792969 15.07445312 6.73570312 15.0625 8.0625 C15.05347656 9.35285156 15.04445313 10.64320313 15.03515625 11.97265625 C15.02355469 12.97167969 15.01195312 13.97070312 15 15 C15.85464844 14.98839844 16.70929688 14.97679687 17.58984375 14.96484375 C18.69457031 14.95582031 19.79929687 14.94679688 20.9375 14.9375 C22.03964844 14.92589844 23.14179688 14.91429687 24.27734375 14.90234375 C27 15 27 15 28 16 C28.14355117 20.00220653 28.04216403 23.99441683 28 28 C23.71 28 19.42 28 15 28 C15.11797018 32.39675988 15.24219726 36.79328399 15.37231445 41.18969727 C15.41571813 42.68639269 15.45738913 44.18313939 15.49731445 45.67993164 C15.55488616 47.82714312 15.61861716 49.97409521 15.68359375 52.12109375 C15.72025146 53.4145874 15.75690918 54.70808105 15.79467773 56.04077148 C15.6667278 58.88555008 15.6667278 58.88555008 17 60 C18.84891946 60.23363881 20.70488031 60.41303635 22.5625 60.5625 C24.356875 60.706875 26.15125 60.85125 28 61 C28 64.96 28 68.92 28 73 C19.36828094 74.72634381 11.11423322 75.67656395 3.48828125 70.6796875 C-0.46390748 66.21921203 -0.27466581 60.40505849 -0.1953125 54.7578125 C-0.19106766 53.60525467 -0.19106766 53.60525467 -0.18673706 52.42941284 C-0.17561311 49.99444479 -0.1505236 47.55985538 -0.125 45.125 C-0.11496011 43.46615118 -0.10583603 41.80729654 -0.09765625 40.1484375 C-0.07569937 36.09881421 -0.04122406 32.04947113 0 28 C-2.31 28 -4.62 28 -7 28 C-7 24.04 -7 20.08 -7 16 C-4.69 16 -2.38 16 0 16 C0 10.72 0 5.44 0 0 Z " fill="#FEFDFC" transform="translate(469,815)"/>
<path d="M0 0 C1 1 1 1 1.09765625 4.16015625 C1.08605469 5.44792969 1.07445312 6.73570312 1.0625 8.0625 C1.05347656 9.35285156 1.04445313 10.64320313 1.03515625 11.97265625 C1.02355469 12.97167969 1.01195312 13.97070312 1 15 C0.33613281 15.09796875 -0.32773437 15.1959375 -1.01171875 15.296875 C-6.32573102 16.19676613 -10.1683653 16.92888813 -14 21 C-16.41621606 24.64066073 -16.32793793 28.34580024 -16.37890625 32.57421875 C-16.39590073 33.29865677 -16.4128952 34.02309479 -16.43040466 34.76948547 C-16.48339156 37.07540264 -16.52378685 39.3813025 -16.5625 41.6875 C-16.60640372 44.00432098 -16.6530344 46.32100188 -16.70530701 48.63764954 C-16.73731252 50.0776362 -16.76418755 51.51774747 -16.78553772 52.95793152 C-16.88822257 57.88822257 -16.88822257 57.88822257 -18 59 C-22.62 59 -27.24 59 -32 59 C-32 39.86 -32 20.72 -32 1 C-27.38 1 -22.76 1 -18 1 C-17.34 2.65 -16.68 4.3 -16 6 C-15.236875 5.195625 -14.47375 4.39125 -13.6875 3.5625 C-9.30368374 -0.61741783 -5.73885712 -0.18512442 0 0 Z " fill="#FEFCFB" transform="translate(602,829)"/>
<path d="M0 0 C3.39554235 -0.11660824 6.79056679 -0.18738372 10.1875 -0.25 C11.14720703 -0.28351562 12.10691406 -0.31703125 13.09570312 -0.3515625 C20.25784723 -0.45069252 20.25784723 -0.45069252 24.11328125 1.890625 C27.03434454 5.15641004 27.39549959 7.55754458 27.35546875 11.9609375 C26.75359564 15.41344041 24.68176469 16.94190152 22 19 C19.26097274 19.91300909 17.6255173 20.12846608 14.8046875 20.1328125 C14.00675781 20.13410156 13.20882812 20.13539063 12.38671875 20.13671875 C11.14341797 20.13091797 11.14341797 20.13091797 9.875 20.125 C8.62009766 20.13080078 8.62009766 20.13080078 7.33984375 20.13671875 C1.12664874 20.12664874 1.12664874 20.12664874 0 19 C-0.08651611 17.58429877 -0.10704904 16.164405 -0.09765625 14.74609375 C-0.09443359 13.89208984 -0.09121094 13.03808594 -0.08789062 12.15820312 C-0.07951172 11.26037109 -0.07113281 10.36253906 -0.0625 9.4375 C-0.05798828 8.53580078 -0.05347656 7.63410156 -0.04882812 6.70507812 C-0.03700225 4.46998686 -0.0205222 2.23502563 0 0 Z " fill="#F79C60" transform="translate(716,854)"/>
<path d="M0 0 C0.76441406 -0.020625 1.52882813 -0.04125 2.31640625 -0.0625 C6.96001054 -0.09458017 9.99128642 0.22607253 13.75 3.25 C16.23038907 6.9705836 16.21337203 8.84796571 15.75 13.25 C13.53136971 16.15717073 12.23055071 17.08981643 8.75 18.25 C7.34175107 18.33021999 5.93002769 18.35765977 4.51953125 18.34765625 C3.71708984 18.34443359 2.91464844 18.34121094 2.08789062 18.33789062 C1.25451172 18.32951172 0.42113281 18.32113281 -0.4375 18.3125 C-1.28248047 18.30798828 -2.12746094 18.30347656 -2.99804688 18.29882812 C-5.08206155 18.28705403 -7.16603977 18.2691189 -9.25 18.25 C-9.27684312 15.43743719 -9.29676188 12.62512759 -9.3125 9.8125 C-9.32087891 9.01005859 -9.32925781 8.20761719 -9.33789062 7.38085938 C-9.3465143 5.33704779 -9.3022815 3.29316098 -9.25 1.25 C-7.16321478 -0.83678522 -2.86669969 0.01895339 0 0 Z " fill="#F89C5F" transform="translate(725.25,821.75)"/>
<path d="M0 0 C12.87 0 25.74 0 39 0 C38.67 0.66 38.34 1.32 38 2 C35.09375 2.37890625 35.09375 2.37890625 31.5 2.5625 C27.43001233 2.41799469 27.43001233 2.41799469 24 4 C28.95 4.33 33.9 4.66 39 5 C40 9 40 9 39 11 C38.34 10.67 37.68 10.34 37 10 C37.33 8.68 37.66 7.36 38 6 C33.05 6 28.1 6 23 6 C22.34 7.32 21.68 8.64 21 10 C16.94270871 12.68774149 12.70345102 12.66842805 8 12 C4.72430468 10.33237329 2.70471566 9.02504096 0.625 6 C0 4 0 4 0 0 Z " fill="#F79759" transform="translate(360,864)"/>
<path d="M0 0 C2.21932897 1.77546318 3.73719979 3.30738911 5.1875 5.75 C5.1875 6.74 5.1875 7.73 5.1875 8.75 C-2.7325 8.75 -10.6525 8.75 -18.8125 8.75 C-17.80881506 3.73157528 -17.51808528 2.80165846 -13.8125 -0.25 C-8.98799824 -1.85816725 -4.6231662 -2.05474053 0 0 Z " fill="#F7995C" transform="translate(378.8125,843.25)"/>
<path d="M0 0 C3.75212276 2.01502889 5.63644095 3.45466142 8 7 C8 7.99 8 8.98 8 10 C0.08 10 -7.84 10 -16 10 C-14.99631506 4.98157528 -14.70558528 4.05165846 -11 1 C-7.27599129 -0.24133624 -3.86824 -0.54111486 0 0 Z " fill="#F79758" transform="translate(640,842)"/>
<path d="M0 0 C0.33 0 0.66 0 1 0 C2.75021156 19.38225553 4.19046012 38.53074308 4 58 C1.49377629 55.79382938 0.46981662 54.0799206 -0.421875 50.875 C-0.64230469 50.08609375 -0.86273438 49.2971875 -1.08984375 48.484375 C-1.30769531 47.66453125 -1.52554687 46.8446875 -1.75 46 C-1.98332031 45.18015625 -2.21664063 44.3603125 -2.45703125 43.515625 C-4.12921159 37.38763477 -4.12921159 37.38763477 -3 34 C-2.01 36.64 -1.02 39.28 0 42 C0.33 42 0.66 42 1 42 C0.85739161 38.16653972 0.71081654 34.33324362 0.5625 30.5 C0.51883301 29.36626953 0.47516602 28.23253906 0.43017578 27.06445312 C0.11921262 19.26934812 -0.31944269 11.49701993 -0.9140625 3.71875 C-0.94242187 2.8215625 -0.97078125 1.924375 -1 1 C-0.67 0.67 -0.34 0.34 0 0 Z " fill="#F7BB70" transform="translate(391,222)"/>
<path d="M0 0 C1.59752849 0.00031727 3.19507824 0.01165096 4.79248047 0.03173828 C6.05341019 0.03598312 6.05341019 0.03598312 7.33981323 0.04031372 C10.02990843 0.05152648 12.71967307 0.07663275 15.40966797 0.10205078 C17.23127775 0.11207918 19.05289274 0.12120527 20.87451172 0.12939453 C25.34469155 0.15146937 29.81462368 0.18600644 34.28466797 0.22705078 C34.28466797 0.55705078 34.28466797 0.88705078 34.28466797 1.22705078 C22.07466797 1.55705078 9.86466797 1.88705078 -2.71533203 2.22705078 C-3.04533203 6.84705078 -3.37533203 11.46705078 -3.71533203 16.22705078 C3.87466797 16.22705078 11.46466797 16.22705078 19.28466797 16.22705078 C18.15966797 21.85205078 18.15966797 21.85205078 15.28466797 24.22705078 C15.94466797 22.24705078 16.60466797 20.26705078 17.28466797 18.22705078 C16.69451904 18.24276123 16.10437012 18.25847168 15.49633789 18.2746582 C12.82171211 18.33703017 10.14723933 18.37604736 7.47216797 18.41455078 C6.54339844 18.4396875 5.61462891 18.46482422 4.65771484 18.49072266 C3.31870117 18.50522461 3.31870117 18.50522461 1.95263672 18.52001953 C1.13045654 18.53572998 0.30827637 18.55144043 -0.53881836 18.56762695 C-3.24523966 18.14413198 -4.10670568 17.41378719 -5.71533203 15.22705078 C-6.07861328 12.16064453 -6.07861328 12.16064453 -6.02783203 8.66455078 C-6.02396484 7.50826172 -6.02009766 6.35197266 -6.01611328 5.16064453 C-5.54995879 0.61412476 -4.5057031 0.27535181 0 0 Z " fill="#F6904C" transform="translate(300.71533203125,842.77294921875)"/>
<path d="M0 0 C4.95 0 9.9 0 15 0 C16.49286238 2.98572477 16.20457177 5.76969888 16.28125 9.09765625 C16.30886414 10.16009804 16.30886414 10.16009804 16.33703613 11.2440033 C16.39582335 13.51675031 16.44852306 15.78957644 16.5 18.0625 C15.56440577 33.12147961 15.56440577 33.12147961 20 46 C18.125 45.6875 18.125 45.6875 16 45 C13.99332766 41.98999148 13.74508029 41.36507544 13.68115234 37.98754883 C13.66128265 37.18694534 13.64141296 36.38634186 13.62094116 35.56147766 C13.60938995 34.70201035 13.59783875 33.84254303 13.5859375 32.95703125 C13.56657135 32.0734343 13.5472052 31.18983734 13.5272522 30.27946472 C13.46747195 27.45724134 13.42107734 24.63497714 13.375 21.8125 C13.33681878 19.89907075 13.29776696 17.98565867 13.2578125 16.07226562 C13.16177168 11.38164979 13.0777349 6.69095348 13 2 C8.71 1.67 4.42 1.34 0 1 C0 0.67 0 0.34 0 0 Z " fill="#F79758" transform="translate(507,828)"/>
<path d="M0 0 C5.94 0 11.88 0 18 0 C18 0.33 18 0.66 18 1 C12.72 1 7.44 1 2 1 C2 6.61 2 12.22 2 18 C5.06455109 17.93985179 8.12432931 17.85277597 11.1875 17.75 C12.48397461 17.72873047 12.48397461 17.72873047 13.80664062 17.70703125 C19.11555516 17.50362456 22.13169273 17.00445887 26 13 C25.875 14.8125 25.875 14.8125 25 17 C19.90075167 20.34310909 15.55920862 20.40067737 9.6875 20.25 C8.86443359 20.24484375 8.04136719 20.2396875 7.19335938 20.234375 C1.15472274 20.15472274 1.15472274 20.15472274 0 19 C-0.08651611 17.58429877 -0.10704904 16.164405 -0.09765625 14.74609375 C-0.09443359 13.89208984 -0.09121094 13.03808594 -0.08789062 12.15820312 C-0.07951172 11.26037109 -0.07113281 10.36253906 -0.0625 9.4375 C-0.05798828 8.53580078 -0.05347656 7.63410156 -0.04882812 6.70507812 C-0.03700244 4.47002411 -0.01906638 2.23500398 0 0 Z " fill="#F5904E" transform="translate(716,854)"/>
<path d="M0 0 C8.32811594 3.64468969 12.53076578 12.03505402 16 20 C16.36996094 20.75667969 16.73992188 21.51335937 17.12109375 22.29296875 C18.29520058 25.9092178 18.29679428 29.36516325 18.25 33.125 C18.24613281 33.87257568 18.24226562 34.62015137 18.23828125 35.39038086 C18.14516 41.40252148 17.41571126 47.14755079 16 53 C15.67 53 15.34 53 15 53 C15.02094727 52.23969482 15.04189453 51.47938965 15.06347656 50.69604492 C15.14751393 47.19333552 15.19893623 43.69083923 15.25 40.1875 C15.28351562 38.99189453 15.31703125 37.79628906 15.3515625 36.56445312 C15.51582029 21.49380123 9.68359653 11.10765485 0 0 Z " fill="#F9C374" transform="translate(570,120)"/>
<path d="M0 0 C0.66 0 1.32 0 2 0 C2.02696365 1.79158489 2.04637917 3.58328473 2.0625 5.375 C2.07410156 6.37273438 2.08570313 7.37046875 2.09765625 8.3984375 C2 11 2 11 1 13 C-2.63 13.33 -6.26 13.66 -10 14 C-10.33 21.92 -10.66 29.84 -11 38 C-11.99 38.495 -11.99 38.495 -13 39 C-13 30.09 -13 21.18 -13 12 C-8.71 12 -4.42 12 0 12 C0 8.04 0 4.08 0 0 Z " fill="#F6914F" transform="translate(497,831)"/>
<path d="M0 0 C14.48129091 5.30477844 28.89367333 21.53331466 36 35 C35.67 35.99 35.34 36.98 35 38 C34.55011719 37.27296875 34.10023438 36.5459375 33.63671875 35.796875 C24.92513893 22.17957589 13.75211689 9.68554751 0 1 C0 0.67 0 0.34 0 0 Z " fill="#FACA8E" transform="translate(662,305)"/>
<path d="M0 0 C4.43069507 1.13932159 6.38805247 3.29294133 9.08203125 6.7578125 C10.48852105 10.19323865 10.13439425 13.306078 10 17 C7.39472895 17.10792837 4.79391689 17.18724878 2.1875 17.25 C1.44951172 17.28351562 0.71152344 17.31703125 -0.04882812 17.3515625 C-2.20703125 17.390625 -2.20703125 17.390625 -6 17 C-7.8125 15.03125 -7.8125 15.03125 -9 13 C-12.10197397 12.19053578 -12.10197397 12.19053578 -15 12 C-15 11.34 -15 10.68 -15 10 C-8.31551945 10.63061137 -8.31551945 10.63061137 -6.71875 12.5 C-4.01673704 14.8581204 -1.31914449 14.52664475 2.1875 14.6875 C3.45980469 14.75324219 4.73210937 14.81898438 6.04296875 14.88671875 C7.50669922 14.94279297 7.50669922 14.94279297 9 15 C7.16262788 9.29447606 5.55880385 6.07892976 1 2 C0.67 1.34 0.34 0.68 0 0 Z " fill="#F6995C" transform="translate(444,831)"/>
<path d="M0 0 C0.56847656 0.40992188 1.13695312 0.81984375 1.72265625 1.2421875 C10.85100678 7.61222176 18.89299079 9.07011052 30 8 C32.86069376 7.1268125 35.42882089 6.09543079 38.109375 4.77734375 C38.73328125 4.52082031 39.3571875 4.26429688 40 4 C40.66 4.33 41.32 4.66 42 5 C38.83010381 8.77949161 36.83495835 9.44425766 32 10 C20.95099122 10.76278646 10.39989922 11.1808708 1.375 3.875 C0 2 0 2 0 0 Z " fill="#F58A45" transform="translate(408,880)"/>
<path d="M0 0 C0.33 0 0.66 0 1 0 C1.03738281 0.73605469 1.07476562 1.47210937 1.11328125 2.23046875 C1.44625469 9.67827547 1.44625469 9.67827547 5 16 C9.3077845 19.2292523 13.18391423 20.8787698 18.375 22.25 C20.24285156 22.75273438 20.24285156 22.75273438 22.1484375 23.265625 C23.08945312 23.50796875 24.03046875 23.7503125 25 24 C24.34 24.66 23.68 25.32 23 26 C15.44258524 25.59233862 7.85783681 22.23337654 2.5625 16.875 C-0.75603755 12.70879253 -1.2097337 8.21598598 -1 3 C-0.67 2.01 -0.34 1.02 0 0 Z " fill="#F69250" transform="translate(406,841)"/>
<path d="M0 0 C-1.423125 0.8971875 -1.423125 0.8971875 -2.875 1.8125 C-6.13964197 3.81562526 -6.13964197 3.81562526 -8 7 C-8.66 7 -9.32 7 -10 7 C-11.42415912 13.98443993 -12.74602127 20.98305518 -14 28 C-14.33 28 -14.66 28 -15 28 C-15.84595489 18.28718455 -14.6231705 11.10960643 -9 3 C-6.07917712 0.00212904 -4.20796416 -1.40265472 0 0 Z " fill="#F69352" transform="translate(294,825)"/>
<path d="M0 0 C0.99 0 1.98 0 3 0 C3 0.66 3 1.32 3 2 C3.8353125 2.3403125 3.8353125 2.3403125 4.6875 2.6875 C10.96818344 6.25221222 15.52496208 12.80862516 19 19 C19.7760349 21.81823201 19.9454258 24.05299316 20 27 C17.89978613 24.89978613 16.92815299 22.86955618 15.69067383 20.20068359 C12.67320656 13.71275146 9.5069321 8.64817784 4 4 C2.66666667 2.66666667 1.33333333 1.33333333 0 0 Z " fill="#F7BF74" transform="translate(453,138)"/>
<path d="M0 0 C0.66 0.33 1.32 0.66 2 1 C2 1.99 2 2.98 2 4 C-5.92 4 -13.84 4 -22 4 C-22 3.01 -22 2.02 -22 1 C-14.74 1.33 -7.48 1.66 0 2 C0 1.34 0 0.68 0 0 Z " fill="#F69351" transform="translate(382,848)"/>
<path d="M0 0 C0.99 0.33 1.98 0.66 3 1 C-2.99948928 7.28669887 -9.06893729 13.24502783 -17 17 C-11.90499173 10.6656654 -6.07469335 5.37210426 0 0 Z " fill="#6D381F" transform="translate(681,535)"/>
<path d="M0 0 C-1.58561638 3.85593074 -4.06509954 6.33216291 -7 9.25 C-7.886875 10.14203125 -8.77375 11.0340625 -9.6875 11.953125 C-12 14 -12 14 -14 14 C-12.43387807 10.15588253 -9.97905879 7.84049791 -7 5 C-6.113125 4.071875 -5.22625 3.14375 -4.3125 2.1875 C-2 0 -2 0 0 0 Z " fill="#6C381F" transform="translate(597,366)"/>
<path d="M0 0 C0.33 0 0.66 0 1 0 C1.04898437 0.77085937 1.09796875 1.54171875 1.1484375 2.3359375 C1.22320312 3.33882812 1.29796875 4.34171875 1.375 5.375 C1.44460938 6.37273437 1.51421875 7.37046875 1.5859375 8.3984375 C1.76363964 11.15508879 1.76363964 11.15508879 4 13 C4.046875 15.12890625 4.046875 15.12890625 3.75 17.5625 C3.66234375 18.36816406 3.5746875 19.17382812 3.484375 20.00390625 C3.32453125 20.66261719 3.1646875 21.32132813 3 22 C2.34 22.33 1.68 22.66 1 23 C-0.23402862 18.22907044 -0.11265112 13.57530554 -0.0625 8.6875 C-0.05798828 7.85154297 -0.05347656 7.01558594 -0.04882812 6.15429688 C-0.03710548 4.10283351 -0.01917203 2.05140727 0 0 Z " fill="#FBC377" transform="translate(479,216)"/>
<path d="M0 0 C1.21945312 -0.02578125 2.43890625 -0.0515625 3.6953125 -0.078125 C6.875 0.25 6.875 0.25 9.875 3.25 C1.955 3.25 -5.965 3.25 -14.125 3.25 C-10.34232113 -0.53267887 -5.10993257 0.06509468 0 0 Z " fill="#F7914E" transform="translate(432.125,826.75)"/>
<path d="M0 0 C5.40953115 0.3380957 9.17750718 3.41593229 13 7 C15.00714824 9.50303192 16.82940805 11.99995833 18 15 C17.67 15.99 17.34 16.98 17 18 C16.16121545 16.71186658 15.32913217 15.41936744 14.5 14.125 C14.0359375 13.40570312 13.571875 12.68640625 13.09375 11.9453125 C12 10 12 10 12 8 C11.42765625 7.72285156 10.8553125 7.44570313 10.265625 7.16015625 C8.02232523 6.01143206 5.89123711 4.76586006 3.75 3.4375 C3.04359375 3.00308594 2.3371875 2.56867187 1.609375 2.12109375 C1.07828125 1.75113281 0.5471875 1.38117187 0 1 C0 0.67 0 0.34 0 0 Z " fill="#F69453" transform="translate(381,829)"/>
<path d="M0 0 C6.72601195 3.24704025 6.72601195 3.24704025 8.0546875 6.8984375 C8.32539063 8.04570313 8.59609375 9.19296875 8.875 10.375 C9.16117187 11.51710938 9.44734375 12.65921875 9.7421875 13.8359375 C10 17 10 17 8.5703125 19.4140625 C8.05210937 19.93742188 7.53390625 20.46078125 7 21 C6.97421875 20.20335937 6.9484375 19.40671875 6.921875 18.5859375 C6.57576149 12.11990793 6.21499431 7.98135691 2 3 C1.34 2.01 0.68 1.02 0 0 Z " fill="#F7914E" transform="translate(448,856)"/>
<path d="M0 0 C0.33 0 0.66 0 1 0 C0.98839844 0.99 0.97679687 1.98 0.96484375 3 C0.9102781 9.73800533 0.91101976 16.32999603 2 23 C1.34 23 0.68 23 0 23 C-1.13127933 20.73744135 -1.12890585 19.48212091 -1.1328125 16.97265625 C-1.13410156 16.18052734 -1.13539063 15.38839844 -1.13671875 14.57226562 C-1.13285156 13.74404297 -1.12898437 12.91582031 -1.125 12.0625 C-1.12886719 11.23814453 -1.13273438 10.41378906 -1.13671875 9.56445312 C-1.13542969 8.77103516 -1.13414062 7.97761719 -1.1328125 7.16015625 C-1.13168457 6.43449463 -1.13055664 5.70883301 -1.12939453 4.96118164 C-1 3 -1 3 0 0 Z " fill="#F68940" transform="translate(607,849)"/>
<path d="M0 0 C-1.11666174 3.34998521 -1.74694925 3.79340222 -4.5625 5.6875 C-5.20316406 6.12449219 -5.84382812 6.56148438 -6.50390625 7.01171875 C-6.99761719 7.33785156 -7.49132812 7.66398437 -8 8 C-8.66 7.34 -9.32 6.68 -10 6 C-8.71283353 4.99421411 -7.42011342 3.99553202 -6.125 3 C-5.40570312 2.443125 -4.68640625 1.88625 -3.9453125 1.3125 C-2 0 -2 0 0 0 Z " fill="#F3A966" transform="translate(612,371)"/>
<path d="M0 0 C-1.82748903 2.46313739 -3.22976216 3.83428618 -6.26953125 4.48828125 C-8.51479346 4.72518293 -10.74455578 4.90361349 -13 5 C-11.5977422 2.1954844 -9.93929378 1.9557882 -7.0625 0.8125 C-6.16660156 0.44769531 -5.27070313 0.08289063 -4.34765625 -0.29296875 C-2 -1 -2 -1 0 0 Z " fill="#F69759" transform="translate(450,885)"/>
<path d="M0 0 C2.80362763 -0.22732116 4.46186517 -0.34081872 6.875 1.1875 C8 3 8 3 7.6875 5.6875 C7.460625 6.450625 7.23375 7.21375 7 8 C6.01 8 5.02 8 4 8 C4.33 6.35 4.66 4.7 5 3 C2.525 2.01 2.525 2.01 0 1 C0 0.67 0 0.34 0 0 Z " fill="#F69250" transform="translate(432,866)"/>
<path d="M0 0 C0.66 0.33 1.32 0.66 2 1 C-1.3 4.3 -4.6 7.6 -8 11 C-8.66 10.34 -9.32 9.68 -10 9 C-6.7 6.03 -3.4 3.06 0 0 Z " fill="#68341C" transform="translate(658,556)"/>
<path d="M0 0 C0.66 0.33 1.32 0.66 2 1 C-1.63 4.3 -5.26 7.6 -9 11 C-9.66 10.67 -10.32 10.34 -11 10 C-3.70159453 2.51708428 -3.70159453 2.51708428 0 0 Z " fill="#6A361D" transform="translate(524,484)"/>
<path d="M0 0 C0.66 0 1.32 0 2 0 C2 1.32 2 2.64 2 4 C3.98 2.68 5.96 1.36 8 0 C8.66 0.33 9.32 0.66 10 1 C4.5 6 4.5 6 0 6 C0 4.02 0 2.04 0 0 Z " fill="#EDAE69" transform="translate(560,285)"/>
<path d="M0 0 C0 3 0 3 -1.75 4.82421875 C-2.4925 5.43910156 -3.235 6.05398437 -4 6.6875 C-4.7425 7.31011719 -5.485 7.93273437 -6.25 8.57421875 C-6.8275 9.04472656 -7.405 9.51523438 -8 10 C-8 7 -8 7 -6.25 5.17578125 C-5.5075 4.56089844 -4.765 3.94601563 -4 3.3125 C-3.2575 2.68988281 -2.515 2.06726563 -1.75 1.42578125 C-1.1725 0.95527344 -0.595 0.48476562 0 0 Z " fill="#69361F" transform="translate(317,221)"/>
<path d="M0 0 C5.08938811 1.59043379 8.87456643 4.7446951 13 8 C12.01 8.33 11.02 8.66 10 9 C6.35069019 6.28242887 3.1572054 3.27863638 0 0 Z " fill="#F6C388" transform="translate(662,305)"/>
<path d="M0 0 C0.66 0.33 1.32 0.66 2 1 C-3.16923077 5.92307692 -3.16923077 5.92307692 -7.375 6.3125 C-8.674375 6.1578125 -8.674375 6.1578125 -10 6 C-8.0331974 4.0331974 -6.4555341 3.0628363 -4 1.8125 C-3.29875 1.44769531 -2.5975 1.08289063 -1.875 0.70703125 C-1.25625 0.47371094 -0.6375 0.24039063 0 0 Z " fill="#F59253" transform="translate(389,883)"/>
<path d="M0 0 C0.33 0 0.66 0 1 0 C1.375 2.0625 1.375 2.0625 1 5 C-0.79177109 7.53572282 -2.84238121 9.77174488 -5 12 C-5.33 11.01 -5.66 10.02 -6 9 C-4.72641268 7.28724465 -3.38576923 5.62332967 -2 4 C-1.29114106 2.68861096 -0.60543548 1.36222983 0 0 Z " fill="#F69253" transform="translate(662,871)"/>
<path d="M0 0 C0.66 0.33 1.32 0.66 2 1 C-2.39453125 5.00390625 -2.39453125 5.00390625 -4 6 C-4.99 5.67 -5.98 5.34 -7 5 C-4.88437775 2.67281553 -2.94982021 1.14186589 0 0 Z " fill="#F59659" transform="translate(317,883)"/>
<path d="M0 0 C0.66 0.33 1.32 0.66 2 1 C0.02 3.31 -1.96 5.62 -4 8 C-4.33 7.01 -4.66 6.02 -5 5 C-3.35 3.35 -1.7 1.7 0 0 Z " fill="#FAC489" transform="translate(570,301)"/>
<path d="M0 0 C1.76462683 3.08809695 2 4.23312136 2 8 C1.34 8 0.68 8 0 8 C-0.38063221 5.6739143 -0.71269945 3.33944736 -1 1 C-0.67 0.67 -0.34 0.34 0 0 Z " fill="#F59657" transform="translate(607,864)"/>
</svg>
