<?xml version="1.0" encoding="UTF-8"?>
<svg version="1.1" xmlns="http://www.w3.org/2000/svg" width="1024" height="1024">
<path d="M0 0 C337.92 0 675.84 0 1024 0 C1024 337.92 1024 675.84 1024 1024 C686.08 1024 348.16 1024 0 1024 C0 686.08 0 348.16 0 0 Z " fill="#F99F64" transform="translate(0,0)"/>
<path d="M0 0 C34.24951891 -0.50280674 66.38413233 0.13173949 92.72949219 24.42578125 C96.77540178 28.38299468 100.54760248 32.55218665 104.23339844 36.84375 C106.62412376 39.58633611 109.0816857 42.26508192 111.54589844 44.94140625 C115.07297126 48.77207828 118.57486866 52.62213795 122.04589844 56.50390625 C124.31053934 59.0309387 126.5827707 61.47827851 128.98339844 63.87890625 C133.11515353 68.01066135 136.29798935 71.30305796 136.42089844 77.25390625 C136.3127047 83.40127761 134.45765643 87.91812016 130.35839844 92.50390625 C126.97870767 95.6890306 123.17229489 98.05880434 119.17089844 100.37890625 C118.58977295 100.71656006 118.00864746 101.05421387 117.40991211 101.40209961 C107.81952164 106.72440952 96.73202616 107.87262228 86.09667969 105.33203125 C71.89696733 99.86603319 58.98944121 90.38265748 47.40527344 80.6953125 C42.91889014 76.98331681 38.39440683 73.88126271 32.92089844 71.81640625 C32.07011719 71.48125 31.21933594 71.14609375 30.34277344 70.80078125 C22.2408779 68.92497292 13.92761852 70.3210537 5.79589844 71.44140625 C-1.05851165 72.35268008 -7.89602613 73.19807119 -14.78588867 73.78857422 C-44.02635411 76.32671914 -72.54895273 87.53027039 -93.82910156 108.06640625 C-94.78945313 108.94941406 -95.74980469 109.83242188 -96.73925781 110.7421875 C-117.7764828 130.71423654 -134.89482551 160.39893331 -143.1953125 188.01806641 C-143.62980579 189.4223032 -144.10975453 190.81303933 -144.62695312 192.18896484 C-147.73237359 201.40714084 -147.35155032 211.00078178 -147.33007812 220.61572266 C-147.32911024 223.66406096 -147.37072996 226.70983883 -147.41503906 229.7578125 C-147.54642354 251.34888041 -142.24878951 269.51835107 -127.82910156 286.06640625 C-127.15105469 286.88882812 -126.47300781 287.71125 -125.77441406 288.55859375 C-110.64145938 306.35228772 -92.60788034 313.17607847 -69.82910156 316.06640625 C-34.24820746 318.75653044 -2.93373281 311.19229078 27.08496094 291.671875 C52.5687977 275.20061465 81.93568514 257.42828853 113.35839844 263.19140625 C126.30973273 266.30610074 137.40519115 274.06039668 145.06933594 285 C147.37681454 289.32856803 147.84021873 293.41865392 146.63964844 298.16796875 C142.58457728 307.89263013 131.8124089 312.58287221 122.92089844 317.00390625 C97.91913959 329.76305604 75.19818078 346.40563214 53.06787109 363.59814453 C-54.42197175 446.79555957 -54.42197175 446.79555957 -115.6184082 449.25878906 C-121.59733272 449.55771455 -121.59733272 449.55771455 -127.01660156 451.9296875 C-129.104557 454.00498792 -129.104557 454.00498792 -129.26660156 457.19140625 C-129.10090511 460.18972306 -129.10090511 460.18972306 -126.82910156 462.06640625 C-115.93910156 462.06640625 -105.04910156 462.06640625 -93.82910156 462.06640625 C-93.82910156 492.75640625 -93.82910156 523.44640625 -93.82910156 555.06640625 C-143.19136225 555.10670928 -143.19136225 555.10670928 -163.80761719 555.11523438 C-178.06714231 555.12117806 -192.32666155 555.12818165 -206.58618164 555.1418457 C-216.96929477 555.15179051 -227.35240314 555.15825919 -237.7355209 555.16049474 C-243.23694482 555.1618022 -248.73835513 555.16489023 -254.2397747 555.17213631 C-259.41149141 555.17889332 -264.58318881 555.18102387 -269.75490952 555.17951393 C-271.65892072 555.1797904 -273.56293252 555.18179741 -275.46693993 555.18561172 C-278.05463922 555.19054401 -280.64226441 555.18940627 -283.22996521 555.18666077 C-283.99356918 555.18957361 -284.75717316 555.19248645 -285.54391664 555.19548756 C-290.71498035 555.18052746 -290.71498035 555.18052746 -291.82910156 554.06640625 C-291.93556503 552.26256516 -291.97153642 550.45454044 -291.98059082 548.64758301 C-291.98893448 547.47069916 -291.99727814 546.29381531 -292.00587463 545.08126831 C-292.01005905 543.77763336 -292.01424347 542.47399841 -292.01855469 541.13085938 C-292.02649397 539.75257106 -292.03488167 538.37428526 -292.04368591 536.9960022 C-292.061796 534.01620718 -292.07679479 531.03641793 -292.08946228 528.05659485 C-292.10971494 523.31971766 -292.13737863 518.58290145 -292.1661377 513.84606934 C-292.22123906 504.60776729 -292.26922547 495.3694353 -292.31607819 486.13108826 C-292.37534227 474.46026421 -292.43646108 462.78945793 -292.50665045 451.11869383 C-292.53002982 447.19490575 -292.55161942 443.27112606 -292.56874084 439.3473053 C-292.64029345 423.01127197 -292.87238204 406.71046701 -293.60525513 390.38769531 C-293.90811078 383.54553869 -293.99048875 376.71227654 -293.99707031 369.86328125 C-294.00206291 367.92198334 -294.00206291 367.92198334 -294.00715637 365.94146729 C-294.0130198 363.24661421 -294.01500977 360.55179256 -294.0144043 357.85693359 C-294.01432317 355.17034149 -294.02127145 352.48392043 -294.03491211 349.79736328 C-294.16045651 324.59431842 -293.12565456 299.53953527 -289.57910156 274.56640625 C-289.47272369 273.80056213 -289.36634583 273.03471802 -289.25674438 272.2456665 C-284.12023364 235.46879614 -275.30272127 198.57295437 -258.81689453 165.10839844 C-257.68470186 162.7678993 -256.60174608 160.40742998 -255.52050781 158.04296875 C-250.69800815 147.5654517 -245.48558642 137.68021463 -239.13085938 128.05517578 C-237.75173141 125.94820346 -236.40916429 123.82088128 -235.07128906 121.6875 C-229.80594001 113.33357424 -224.2465497 105.59113208 -217.82910156 98.06640625 C-216.5326169 96.42436555 -215.24091679 94.77853551 -213.95410156 93.12890625 C-200.2610273 76.05252376 -184.3766821 59.16210876 -166.59375 46.33935547 C-164.69121847 44.96694271 -162.81187932 43.56552639 -160.93066406 42.1640625 C-113.05016922 6.97704326 -57.75789956 1.00166722 0 0 Z " fill="#FEB681" transform="translate(571.8291015625,173.93359375)"/>
<path d="M0 0 C1.5855258 -0.00322539 3.17105131 -0.00659034 4.75657654 -0.01008606 C8.05509124 -0.01602203 11.35357995 -0.01793151 14.65209961 -0.01733398 C18.84303659 -0.01723218 23.03380488 -0.03092854 27.22470188 -0.04810619 C30.49098961 -0.05930949 33.75723744 -0.06125072 37.0235424 -0.06072426 C38.567439 -0.06189016 40.11133711 -0.06623192 41.65521431 -0.07405663 C71.25960013 -0.21018235 95.59903421 8.92239708 116.87109375 29.73046875 C120.13685204 33.07729196 123.25890851 36.52255905 126.30859375 40.06640625 C132.00833477 46.67515769 137.88682436 53.0623884 144.12109375 59.16796875 C153.89067084 68.76137314 161.92283414 76.91094085 162.55859375 91.04296875 C162.22142759 101.26169706 158.75224051 108.57093484 151.66796875 115.88671875 C137.86639904 128.24886094 121.55941786 134.27624295 103.27294922 133.35449219 C98.14748887 132.91021584 93.76953347 131.28413824 89.12109375 129.16796875 C88.50524414 128.88888672 87.88939453 128.60980469 87.25488281 128.32226562 C74.94687068 122.66382374 64.06213034 115.66025119 53.58203125 107.0625 C43.85420684 99.5736193 36.26565987 97.23332756 24.12109375 98.16796875 C19.71214264 98.93088584 15.42487951 99.94868374 11.12109375 101.16796875 C11.41242188 101.89242187 11.70375 102.616875 12.00390625 103.36328125 C22.13871943 128.80662343 27.56625301 158.61566647 18.12109375 185.16796875 C17.8473291 185.9475293 17.57356445 186.72708984 17.29150391 187.53027344 C8.86136641 210.97016795 -3.24268619 232.45009952 -20.87890625 250.16796875 C-21.50796875 250.83183594 -22.13703125 251.49570312 -22.78515625 252.1796875 C-33.26739539 262.40906561 -47.03184498 266.51396562 -61.24267578 266.70898438 C-70.04366689 266.58784997 -75.82051157 264.38851727 -82.87890625 259.16796875 C-79.10976528 276.42666689 -72.61680724 289.8516098 -59.87890625 302.16796875 C-59.13769531 302.95171875 -58.39648438 303.73546875 -57.6328125 304.54296875 C-50.15140864 312.01064526 -41.26979936 314.28709366 -30.87890625 314.73046875 C-9.59399937 314.05162913 10.85382544 305.43939631 28.84033203 294.546875 C69.6978991 269.84514745 69.6978991 269.84514745 82.49609375 265.96484375 C84.74981698 265.28067777 86.8809046 264.49469182 89.05859375 263.60546875 C105.75200782 257.2890418 118.56339385 259.17516198 135.12109375 264.16796875 C136.12011719 264.46703125 137.11914062 264.76609375 138.1484375 265.07421875 C151.36026284 269.69942827 163.78808222 281.16140474 170.24609375 293.48046875 C173.47877473 301.5334107 173.44267397 310.37976777 170.55859375 318.54296875 C164.59161332 331.20208349 153.00657112 336.71170973 141.12109375 342.85546875 C112.73767448 357.53984833 87.39378944 377.61469997 61.96337891 396.79541016 C50.78443547 405.22366987 39.54544697 413.55303354 28.16259766 421.70410156 C26.24296805 423.08057837 24.32783334 424.46305053 22.4140625 425.84765625 C-40.36193062 471.16796875 -40.36193062 471.16796875 -66.87890625 471.16796875 C-66.88033127 472.40301147 -66.88175629 473.6380542 -66.88322449 474.91052246 C-66.89991145 486.56339741 -66.94273741 498.21592391 -67.01099682 509.8686142 C-67.04525209 515.85907474 -67.07037461 521.84928064 -67.07446289 527.83984375 C-67.07874884 533.62373041 -67.10723729 539.40704277 -67.15233803 545.19075012 C-67.16530335 547.39464469 -67.16962416 549.59860803 -67.16506004 551.80253601 C-67.16014742 554.89567681 -67.18627754 557.98714341 -67.21948242 561.08007812 C-67.21085678 561.98638977 -67.20223114 562.89270142 -67.19334412 563.82647705 C-67.30330674 569.95787141 -68.64594479 574.58344462 -72.87890625 579.16796875 C-77.11949371 582.52190303 -81.09281574 582.59541312 -86.29832458 582.5556488 C-87.14365865 582.56103434 -87.98899272 582.56641988 -88.85994297 582.57196862 C-91.69120076 582.58627082 -94.5219925 582.5791389 -97.35327148 582.57202148 C-99.38366065 582.57772386 -101.4140466 582.58468761 -103.44442749 582.59281921 C-108.95886735 582.61078022 -114.47314833 582.60957669 -119.98760867 582.60387683 C-124.59013362 582.60078927 -129.19262785 582.60687261 -133.79514843 582.61291558 C-144.65227656 582.62696884 -155.50932602 582.6253928 -166.36645508 582.61401367 C-177.56992864 582.60253107 -188.77316286 582.61660879 -199.97660488 582.64341015 C-209.59372216 582.66555586 -219.21076426 582.67220708 -228.82790524 582.66633373 C-234.57259384 582.66296034 -240.317129 582.66540474 -246.06179619 582.68258476 C-251.46352992 582.69803378 -256.86490866 582.69412088 -262.26662827 582.67527962 C-264.24916961 582.67158811 -266.23173713 582.6747185 -268.21425438 582.68516541 C-270.92074853 582.69833852 -273.6260611 582.68686062 -276.33250427 582.66917419 C-277.11704292 582.6787792 -277.90158157 582.68838421 -278.70989412 582.69828027 C-284.94388088 582.61446057 -288.39435962 580.65119781 -292.72940636 576.31844997 C-294.30571841 573.36948973 -294.26127533 571.09861041 -294.27090454 567.76026917 C-294.28199753 566.44097412 -294.29309052 565.12167908 -294.30451965 563.7624054 C-294.3017508 562.3019709 -294.298705 560.84153692 -294.29541016 559.38110352 C-294.30279011 557.841841 -294.31149509 556.30258435 -294.32142639 554.76333618 C-294.34476534 550.5835881 -294.34989989 546.4039885 -294.35208559 542.22418332 C-294.35774479 537.85024615 -294.38101808 533.47640581 -294.40267944 529.1025238 C-294.44122252 520.8142071 -294.46542738 512.52591807 -294.48380411 504.23753446 C-294.51718227 489.3962635 -294.57497392 474.55507607 -294.63779581 459.71390384 C-294.6592787 454.50521372 -294.67455385 449.29655212 -294.6846354 444.0878278 C-294.69165862 440.84699383 -294.70253978 437.60618023 -294.71427727 434.36536026 C-294.71883111 432.86294538 -294.72168188 431.36052423 -294.72270012 429.8581028 C-294.72427537 427.80624389 -294.73186637 425.75448975 -294.74087524 423.70265198 C-294.74343134 422.55468423 -294.74598743 421.40671648 -294.74862099 420.22396183 C-294.86841704 417.41400551 -295.28594146 414.90844479 -295.87890625 412.16796875 C-295.97585667 409.63899329 -296.0258177 407.13775189 -296.02416992 404.60913086 C-296.02752853 403.86333771 -296.03088715 403.11754456 -296.03434753 402.34915161 C-296.04384439 399.88118819 -296.04580204 397.41329308 -296.046875 394.9453125 C-296.0500956 393.20349603 -296.05346025 391.46167982 -296.05696106 389.71986389 C-296.06295424 386.05387754 -296.06480148 382.38791473 -296.06420898 378.72192383 C-296.06412866 375.01874812 -296.07091634 371.31569856 -296.0847168 367.61254883 C-296.16391065 346.03680552 -295.96082069 324.66272683 -293.87890625 303.16796875 C-293.80556061 302.38805573 -293.73221497 301.6081427 -293.65664673 300.80459595 C-293.24874346 296.5596107 -292.75347041 292.33262125 -292.19140625 288.10546875 C-292.02334473 286.84130127 -291.8552832 285.57713379 -291.68212891 284.2746582 C-286.50219488 246.56553751 -276.83434821 210.18961 -261.87890625 175.16796875 C-261.53150391 174.35134766 -261.18410156 173.53472656 -260.82617188 172.69335938 C-253.34529245 155.37959989 -243.79561713 138.53869767 -232.87890625 123.16796875 C-232.08160291 122.02243343 -231.28475402 120.87658171 -230.48828125 119.73046875 C-222.12267909 107.77336847 -212.73159442 96.73266724 -203.19921875 85.69970703 C-202.09751496 84.42158396 -201.00294122 83.13731942 -199.91015625 81.8515625 C-192.88414908 73.64903054 -185.17023444 66.0840847 -176.87890625 59.16796875 C-176.34056152 58.71583008 -175.8022168 58.26369141 -175.24755859 57.79785156 C-160.96820604 45.84428818 -146.33712133 35.30885192 -130.06640625 26.23046875 C-128.94580811 25.60350098 -127.82520996 24.9765332 -126.6706543 24.33056641 C-115.64723467 18.28853282 -104.66237336 13.78907715 -92.50390625 10.60546875 C-90.81007813 10.15941284 -90.81007813 10.15941284 -89.08203125 9.7043457 C-70.87442115 5.01307313 -52.98439509 2.51964868 -34.22349548 1.38487244 C-32.079955 1.2458593 -29.93733841 1.0911854 -27.79640198 0.91659546 C-18.52176814 0.16785645 -9.29657268 0.00452499 0 0 Z M-85.87890625 24.16796875 C-87.13646729 24.50513916 -87.13646729 24.50513916 -88.41943359 24.84912109 C-126.34415843 35.10725677 -157.03398113 59.15568134 -184.44140625 86.54296875 C-185.32248047 87.41179687 -186.20355469 88.280625 -187.11132812 89.17578125 C-193.13775514 95.18886562 -198.61286127 101.48184457 -203.87890625 108.16796875 C-204.38268799 108.80283203 -204.88646973 109.43769531 -205.40551758 110.09179688 C-222.90044141 132.30463846 -237.32057805 156.37751469 -248.87890625 182.16796875 C-249.33861816 183.19027588 -249.79833008 184.21258301 -250.27197266 185.26586914 C-254.32064405 194.47116541 -257.70856526 203.81761942 -260.87890625 213.35546875 C-261.27009644 214.52775528 -261.27009644 214.52775528 -261.66918945 215.72372437 C-266.41798061 230.03641665 -270.07540602 244.33981694 -272.87890625 259.16796875 C-273.24609375 261.00390625 -273.61328125 262.83984375 -273.98046875 264.67578125 C-276.2688988 276.55657401 -277.71756252 288.52643359 -279.06640625 300.54296875 C-279.15126282 301.29311249 -279.23611938 302.04325623 -279.32354736 302.81613159 C-281.53386563 322.56472715 -282.0419113 342.13408515 -282.00927734 361.99365234 C-282.0036269 365.4467791 -282.00684282 368.89982725 -282.01284981 372.35295105 C-282.01655204 375.09214821 -282.01527321 377.8313283 -282.01272202 380.57052612 C-282.01177328 382.43577121 -282.01469503 384.30101711 -282.01785278 386.16625977 C-282.00012912 392.93907721 -281.82907139 399.68171802 -281.52597618 406.44690704 C-280.80533444 422.54707477 -280.67882171 438.63501041 -280.60851479 454.74767494 C-280.59000487 458.71360011 -280.56572149 462.67948971 -280.54187012 466.64538574 C-280.4724265 478.36475349 -280.41227985 490.0841667 -280.35284424 501.80358887 C-280.30613304 510.98571488 -280.25710515 520.16781697 -280.20135736 529.34989309 C-280.17304371 534.05708859 -280.14944357 538.76427692 -280.12943268 543.4715147 C-280.1160954 546.37782712 -280.09868685 549.28410444 -280.08012199 552.19038773 C-280.06861611 554.18785223 -280.06209087 556.18534346 -280.05567932 558.18283081 C-280.04733566 559.35971466 -280.038992 560.53659851 -280.03039551 561.74914551 C-280.02266491 563.2919154 -280.02266491 563.2919154 -280.01477814 564.86585236 C-280.13679831 567.13148241 -280.13679831 567.13148241 -278.87890625 568.16796875 C-276.33694436 568.26572349 -273.82217664 568.29792152 -271.2797699 568.28822327 C-270.47445566 568.28907769 -269.66914142 568.28993212 -268.83942372 568.29081243 C-266.12005922 568.2924697 -263.40075537 568.28694186 -260.68139648 568.28149414 C-258.74038698 568.2812123 -256.79937736 568.28136995 -254.85836792 568.28193665 C-249.57139641 568.28222473 -244.28444737 568.27632631 -238.99748111 568.26936269 C-233.47879572 568.26313089 -227.96010987 568.26252549 -222.44142151 568.26133728 C-211.98311467 568.25822345 -201.52481823 568.25000936 -191.06651598 568.23998779 C-176.93977831 568.22674349 -162.81303782 568.22132717 -148.68629551 568.21548557 C-126.41715796 568.20606951 -104.14804236 568.18615093 -81.87890625 568.16796875 C-81.87890625 537.47796875 -81.87890625 506.78796875 -81.87890625 475.16796875 C-92.76890625 475.16796875 -103.65890625 475.16796875 -114.87890625 475.16796875 C-116.87890625 473.16796875 -116.87890625 473.16796875 -117.31640625 470.29296875 C-116.87890625 467.16796875 -116.87890625 467.16796875 -115.06640625 465.03125 C-110.33855477 462.2675427 -105.83173782 462.44779452 -100.44140625 462.23046875 C-58.16998427 459.63835325 -21.52264812 440.56909201 11.96386719 415.74853516 C14.73134354 413.7208482 17.54181888 411.7593717 20.35791016 409.80004883 C30.41191827 402.80292274 40.12252682 395.37804116 49.8359375 387.91845703 C53.60054764 385.03466914 57.39575592 382.19304424 61.1953125 379.35546875 C63.38956846 377.71490355 65.5792221 376.06893758 67.765625 374.41796875 C89.61745674 357.93392146 111.41830014 342.30402233 135.796875 329.75 C136.55436035 329.35756104 137.3118457 328.96512207 138.09228516 328.56079102 C139.51565112 327.82684344 140.94340616 327.10131203 142.37646484 326.38647461 C149.20399913 322.87649746 155.39329716 318.53730399 158.5078125 311.29296875 C159.68069146 307.2289805 159.6362005 304.137932 158.12109375 300.16796875 C150.63721114 288.45478383 139.84167945 280.19941566 126.46875 276.41796875 C90.0734623 268.72204888 55.3338547 294.56437662 25.6875 312.44140625 C24.16635831 313.35192263 22.64432698 314.26095572 21.12109375 315.16796875 C20.50588867 315.53615723 19.89068359 315.9043457 19.25683594 316.28369141 C-6.94580608 331.47181845 -45.06948506 333.38984495 -73.88671875 326.23828125 C-75.21807896 325.88387254 -76.54887789 325.52734337 -77.87890625 325.16796875 C-78.90757812 324.91789062 -79.93625 324.6678125 -80.99609375 324.41015625 C-100.01945817 319.37966171 -115.88798562 302.45414083 -125.796875 286.11328125 C-130.68362966 277.39830713 -134.90200146 265.77877861 -135.07177734 255.74511719 C-135.08784027 254.87610779 -135.1039032 254.00709839 -135.12045288 253.11175537 C-135.16553288 249.10511437 -135.20605453 245.09863376 -135.22900391 241.09179688 C-135.24543779 238.99728182 -135.2725577 236.90281983 -135.31103516 234.80859375 C-135.55392345 221.49409104 -134.65683085 210.6432101 -129.87890625 198.16796875 C-129.11309388 195.74024485 -128.40525216 193.29931073 -127.69140625 190.85546875 C-121.36213854 172.04623431 -109.77758074 154.88184949 -97.87890625 139.16796875 C-96.96044922 137.94013672 -96.96044922 137.94013672 -96.0234375 136.6875 C-75.28079789 109.786221 -44.4290095 92.01881281 -10.69921875 87.50341797 C-3.00332627 86.58806511 4.7156732 85.86344274 12.43432617 85.16918945 C13.72701416 85.052771 15.01970215 84.93635254 16.3515625 84.81640625 C17.51067139 84.71505371 18.66978027 84.61370117 19.86401367 84.50927734 C22.98049875 84.18270166 26.03543169 83.70826408 29.12109375 83.16796875 C39.77893746 81.9098759 49.00230688 85.49763236 57.36035156 91.99755859 C59.72422379 93.90452041 62.06349632 95.84032143 64.40234375 97.77783203 C73.26565618 104.94653956 83.07720516 110.82627519 93.12109375 116.16796875 C93.81332031 116.55210937 94.50554687 116.93625 95.21875 117.33203125 C103.18332033 121.07800499 114.79884677 120.31705108 122.93359375 117.60546875 C132.2950377 113.6074987 142.85235505 107.70544614 147.55859375 98.29296875 C148.57785689 92.63039577 149.1631747 88.10326194 146.37109375 82.91796875 C145.62859375 82.01046875 144.88609375 81.10296875 144.12109375 80.16796875 C143.48171875 79.32234375 142.84234375 78.47671875 142.18359375 77.60546875 C139.47784475 74.40776538 136.49385965 71.52569293 133.5168457 68.58129883 C120.87088762 56.06606708 120.87088762 56.06606708 115.875 50.21875 C96.46662793 27.52521918 76.11123338 16.17672477 46.03515625 13.62890625 C2.90709939 10.43617016 -44.16792931 12.79759318 -85.87890625 24.16796875 Z " fill="#7E4C30" transform="translate(559.87890625,160.83203125)"/>
<path d="M0 0 C3.125 0.375 3.125 0.375 5.09765625 2.4296875 C7.38905867 5.75862281 9.08880937 9.18184501 10.6875 12.875 C10.97818359 13.50664062 11.26886719 14.13828125 11.56835938 14.7890625 C16.35473606 25.71099588 17.66507465 36.793409 17.5625 48.625 C17.55202637 49.90205811 17.54155273 51.17911621 17.53076172 52.49487305 C16.93146738 83.74747754 0.97950102 115.67104364 -20.375 138.25 C-28.5556616 145.97931475 -38.10891957 151.48038982 -49.5 151.875 C-58.55598745 151.5561272 -64.59980833 147.73499156 -70.875 141.375 C-72.875 138.375 -72.875 138.375 -72.78515625 135.56640625 C-71.70048786 131.76308406 -69.8102021 129.2787226 -67.3125 126.3125 C-51.51852284 106.6743659 -39.46482222 81.28571899 -40.44921875 55.55078125 C-41.0675546 50.93878998 -42.45170986 47.32221487 -44.875 43.375 C-45.514375 42.323125 -46.15375 41.27125 -46.8125 40.1875 C-50.18186632 35.59290956 -53.76285099 31.33484719 -57.875 27.375 C-53.62182695 17.05545909 -35.55687104 9.74422515 -25.640625 5.50390625 C-17.00161905 2.01210155 -9.17366305 0.88777384 0 0 Z " fill="#FDA86B" transform="translate(550.875,262.625)"/>
<path d="M0 0 C5.31698012 4.44347624 8.42977956 9.88677053 10.640625 16.37109375 C10.640625 17.36109375 10.640625 18.35109375 10.640625 19.37109375 C5.360625 20.03109375 0.080625 20.69109375 -5.359375 21.37109375 C-5.91625 20.13359375 -6.473125 18.89609375 -7.046875 17.62109375 C-8.91123824 13.88575606 -10.78869747 11.6599896 -14.359375 9.37109375 C-20.55501808 7.30587939 -27.9409632 7.41206838 -33.984375 9.80859375 C-34.768125 10.32421875 -35.551875 10.83984375 -36.359375 11.37109375 C-37.349375 11.70109375 -38.339375 12.03109375 -39.359375 12.37109375 C-40.51577876 14.18815012 -40.51577876 14.18815012 -41.359375 16.37109375 C-41.64039063 17.02464844 -41.92140625 17.67820312 -42.2109375 18.3515625 C-45.41474768 27.49374812 -46.43499131 39.48865294 -42.671875 48.62109375 C-40.3013362 52.936476 -37.41778912 56.13604528 -33.171875 58.68359375 C-26.05916783 60.4222555 -19.82077172 59.86326406 -13.26953125 56.5703125 C-8.23176679 53.40754422 -7.2272633 49.97475864 -5.359375 44.37109375 C-11.959375 44.37109375 -18.559375 44.37109375 -25.359375 44.37109375 C-25.359375 39.75109375 -25.359375 35.13109375 -25.359375 30.37109375 C-13.479375 30.37109375 -1.599375 30.37109375 10.640625 30.37109375 C10.640625 44.56109375 10.640625 58.75109375 10.640625 73.37109375 C6.020625 73.37109375 1.400625 73.37109375 -3.359375 73.37109375 C-3.854375 69.41109375 -3.854375 69.41109375 -4.359375 65.37109375 C-5.7515625 66.54671875 -5.7515625 66.54671875 -7.171875 67.74609375 C-13.7988251 73.34218495 -19.87004613 73.56523847 -28.234375 73.62109375 C-29.38099609 73.65203125 -29.38099609 73.65203125 -30.55078125 73.68359375 C-38.47870425 73.73743363 -45.10895718 71.39860374 -51.359375 66.37109375 C-59.95616107 56.91462907 -62.55685015 46.98176955 -62.484375 34.37109375 C-62.48824219 33.69820312 -62.49210937 33.0253125 -62.49609375 32.33203125 C-62.47593972 21.89224263 -60.27023833 12.96150459 -53.2421875 4.9609375 C-39.02919882 -8.19468351 -16.51961147 -11.69560728 0 0 Z " fill="#FEFCFB" transform="translate(325.359375,814.62890625)"/>
<path d="M0 0 C4.2716114 0.57502461 6.51287648 2.26412543 9.25 5.4375 C14.4712094 12.97113314 17.300309 19.12225944 16.25 28.4375 C12.65087737 45.49660673 4.97949438 61.6231125 -4.875 75.9375 C-5.34107666 76.62521484 -5.80715332 77.31292969 -6.28735352 78.02148438 C-10.76451022 84.21357765 -17.14148416 88.97432388 -24.75 90.4375 C-30.04348569 90.49599155 -35.68025423 90.42134847 -40.5 88 C-43.42274107 84.67132267 -43.48231251 82.79078288 -43.203125 78.45703125 C-40.37994276 59.64392893 -21.86781788 3.47897103 0 0 Z " fill="#FAA266" transform="translate(481.75,300.5625)"/>
<path d="M0 0 C5.90227291 4.69995806 8.4236459 10.34488007 10.359375 17.4921875 C10.42125 18.1521875 10.483125 18.8121875 10.546875 19.4921875 C8.53205766 21.50700484 4.75610637 21.2135902 1.984375 21.5546875 C1.27345703 21.64556641 0.56253906 21.73644531 -0.16992188 21.83007812 C-1.93050903 22.05458253 -3.69175978 22.27387147 -5.453125 22.4921875 C-5.74445312 21.80511719 -6.03578125 21.11804688 -6.3359375 20.41015625 C-8.8827444 14.77956622 -8.8827444 14.77956622 -13.078125 10.3671875 C-19.16602439 8.78884321 -25.63480015 8.15244151 -31.390625 11.1171875 C-36.4609241 15.04925619 -38.7943589 19.37945795 -40.453125 25.4921875 C-40.7803606 28.57959985 -40.83333367 31.63904815 -40.828125 34.7421875 C-40.82868896 35.58394531 -40.82925293 36.42570313 -40.82983398 37.29296875 C-40.71590143 43.73794048 -39.51658326 48.78357452 -36.453125 54.4921875 C-36.123125 55.4821875 -35.793125 56.4721875 -35.453125 57.4921875 C-33.02929423 58.66172166 -33.02929423 58.66172166 -30.453125 59.4921875 C-29.793125 59.8221875 -29.133125 60.1521875 -28.453125 60.4921875 C-18.87763431 61.30077735 -18.87763431 61.30077735 -10.453125 57.4921875 C-8.21390114 54.01378151 -6.75735439 50.40487568 -5.453125 46.4921875 C-3.72366847 46.63454207 -1.99456846 46.78123132 -0.265625 46.9296875 C0.69730469 47.01089844 1.66023437 47.09210937 2.65234375 47.17578125 C5.33337102 47.46884901 7.9131736 47.91922504 10.546875 48.4921875 C10.2803292 55.6889242 8.0552248 60.85203441 3.546875 66.4921875 C-6.1598101 75.19596787 -17.91986936 75.28534654 -30.28320312 74.67871094 C-39.03941282 73.92603945 -45.80610386 68.99853795 -51.453125 62.4921875 C-59.44457999 50.03721252 -60.59021511 34.87678555 -57.6484375 20.58203125 C-54.0903421 10.28809317 -47.81352 2.90768956 -38.140625 -2.0703125 C-25.94107682 -7.6996465 -11.59909745 -7.12938155 0 0 Z " fill="#FEFCFB" transform="translate(752.453125,813.5078125)"/>
<path d="M0 0 C7.22049795 5.13690598 10.44109984 11.88443519 12.15234375 20.53125 C12.15234375 23.83125 12.15234375 27.13125 12.15234375 30.53125 C-0.71765625 30.53125 -13.58765625 30.53125 -26.84765625 30.53125 C-24.72515614 38.03292117 -24.72515614 38.03292117 -21.66015625 40.53125 C-16.80112127 42.25890688 -12.69207034 42.37326513 -7.97265625 40.21875 C-5.62793175 38.53384517 -5.62793175 38.53384517 -3.84765625 35.53125 C0.77234375 36.19125 5.39234375 36.85125 10.15234375 37.53125 C8.75889567 44.49849042 5.23675368 48.40191526 -0.53515625 52.46875 C-7.76358796 56.15672536 -16.99361217 55.72581506 -24.84765625 54.53125 C-32.05098596 52.14460462 -37.27536639 47.1688711 -40.84765625 40.53125 C-45.08372822 30.56117948 -44.81338358 21.5310366 -40.84765625 11.53125 C-37.4280253 5.18050681 -32.48486102 0.29909333 -25.72265625 -2.34375 C-16.85239967 -4.85220416 -8.0443458 -4.69362154 0 0 Z " fill="#FEFBFA" transform="translate(650.84765625,833.46875)"/>
<path d="M0 0 C5.06034079 3.84821264 7.29435087 10.07055261 9.25 15.9375 C9.25 20.2275 9.25 24.5175 9.25 28.9375 C-3.29 28.9375 -15.83 28.9375 -28.75 28.9375 C-27.3875572 35.52293658 -27.3875572 35.52293658 -24.6875 38.375 C-20.64522586 40.52514582 -17.23863629 40.76692192 -12.75 39.9375 C-9.87970131 38.14356332 -8.25868362 36.95486724 -6.75 33.9375 C3.80808656 34.71654328 3.80808656 34.71654328 8.25 36.9375 C5.53223622 43.50542913 2.51394717 47.43771457 -3.75 50.9375 C-11.57300152 54.16922428 -21.79688388 54.62366719 -29.87109375 51.875 C-37.61460848 47.53768886 -42.82713006 40.94236489 -45.27734375 32.41796875 C-46.94288612 23.67731249 -46.22487374 15.70003607 -41.75 7.9375 C-31.26450656 -6.34320684 -15.33325465 -9.3189177 0 0 Z " fill="#FEFBFA" transform="translate(391.75,835.0625)"/>
<path d="M0 0 C4.95 0 9.9 0 15 0 C15.01981934 1.16047852 15.03963867 2.32095703 15.06005859 3.51660156 C15.13617912 7.82557734 15.22488666 12.13421828 15.31738281 16.44287109 C15.3556459 18.30706162 15.39050346 20.1713253 15.421875 22.03564453 C15.46758356 24.71673716 15.52556822 27.39732733 15.5859375 30.078125 C15.59748871 30.91055725 15.60903992 31.7429895 15.62094116 32.60064697 C15.67852826 38.11025081 15.67852826 38.11025081 18 43 C21.74476572 44.87238286 26.31927215 44.40882569 30.3125 43.4375 C33.36274175 40.83914592 34.70929182 36.91498807 35.30038452 33.02127075 C35.43856821 30.89720377 35.49307385 28.78859904 35.51171875 26.66015625 C35.52966995 25.89319931 35.54762115 25.12624237 35.56611633 24.33604431 C35.6198448 21.91158374 35.65399275 19.48731568 35.6875 17.0625 C35.72070634 15.40817654 35.75519902 13.75387838 35.79101562 12.09960938 C35.87554886 8.06654607 35.94253679 4.03353612 36 0 C40.62 0 45.24 0 50 0 C50 18.81 50 37.62 50 57 C45.38 57 40.76 57 36 57 C35.67 55.35 35.34 53.7 35 52 C33.906875 52.639375 32.81375 53.27875 31.6875 53.9375 C25.09349651 57.79436997 18.49407701 57.61228938 11 57 C6.0134372 54.76464426 3.65839957 51.72604367 1 47 C0.10601956 44.14281891 -0.12230649 41.58420637 -0.11352539 38.59863281 C-0.11344986 37.7380426 -0.11337433 36.87745239 -0.11329651 35.99078369 C-0.10813522 35.07085632 -0.10297394 34.15092896 -0.09765625 33.203125 C-0.0962413 32.25435486 -0.09482635 31.30558472 -0.09336853 30.32806396 C-0.08777742 27.30201038 -0.07522652 24.27603117 -0.0625 21.25 C-0.05748385 19.19661565 -0.05292115 17.14323014 -0.04882812 15.08984375 C-0.03781089 10.05986724 -0.02055233 5.02994622 0 0 Z " fill="#FEFDFD" transform="translate(506,831)"/>
<path d="M0 0 C3.14770503 2.78967223 4.07128686 4.36927037 5.0234375 8.5859375 C5.0646875 9.6171875 5.1059375 10.6484375 5.1484375 11.7109375 C0.8584375 12.3709375 -3.4315625 13.0309375 -7.8515625 13.7109375 C-9.1715625 12.0609375 -10.4915625 10.4109375 -11.8515625 8.7109375 C-14.67377584 7.63297118 -16.75053307 7.76016019 -19.8515625 7.7109375 C-20.8415625 8.3709375 -21.8315625 9.0309375 -22.8515625 9.7109375 C-23.10187227 12.29473927 -23.10187227 12.29473927 -22.8515625 14.7109375 C-16.74640071 16.78129705 -16.74640071 16.78129705 -10.5703125 18.625 C2.47082713 22.3040371 2.47082713 22.3040371 6.2734375 28.5625 C8.29346997 33.52240114 7.71048205 39.05602855 6.0234375 44.0234375 C2.95473521 48.42191078 -0.87227635 51.60604947 -5.8515625 53.7109375 C-8.94633371 54.11819187 -12.04510088 54.03538754 -15.1640625 54.0234375 C-16.40833008 54.04760742 -16.40833008 54.04760742 -17.67773438 54.07226562 C-25.34012825 54.07831329 -31.21272496 52.19314066 -36.8515625 46.7109375 C-39.44200681 42.51263121 -39.8515625 40.79750849 -39.8515625 35.7109375 C-35.2315625 35.3809375 -30.6115625 35.0509375 -25.8515625 34.7109375 C-25.2328125 35.6803125 -24.6140625 36.6496875 -23.9765625 37.6484375 C-22.19477404 40.73929112 -22.19477404 40.73929112 -19.8515625 41.7109375 C-15.61185192 41.94647698 -12.48977948 42.03939636 -8.8515625 39.7109375 C-8.51730515 37.33718889 -8.51730515 37.33718889 -8.8515625 34.7109375 C-11.94062286 31.71098465 -14.94476197 31.06638168 -19.1015625 30.2734375 C-27.04104917 28.55366093 -33.21518598 26.75822981 -37.8515625 19.7109375 C-39.70758494 15.99889263 -39.30031851 11.762207 -38.8515625 7.7109375 C-36.09824016 2.20429283 -32.48425854 -1.21449269 -26.7890625 -3.5390625 C-17.93559258 -5.68009771 -7.63832121 -5.31781856 0 0 Z " fill="#FEFCFB" transform="translate(447.8515625,834.2890625)"/>
<path d="M0 0 C4.95 0 9.9 0 15 0 C15 5.28 15 10.56 15 16 C19.29 16 23.58 16 28 16 C28 19.96 28 23.92 28 28 C23.71 28 19.42 28 15 28 C15.0934535 32.3786383 15.19952754 36.75673196 15.31738281 41.13476562 C15.35569998 42.62458889 15.39054808 44.11450554 15.421875 45.60449219 C15.46746729 47.74448048 15.52546874 49.88382436 15.5859375 52.0234375 C15.63306885 53.95582275 15.63306885 53.95582275 15.68115234 55.92724609 C15.68458268 59.10481505 15.68458268 59.10481505 18 61 C20.44012949 61.24287489 20.44012949 61.24287489 23.125 61.125 C25.538125 61.063125 25.538125 61.063125 28 61 C28 64.96 28 68.92 28 73 C24.79024078 73.1354964 21.58624371 73.23434038 18.375 73.3125 C17.47136719 73.35439453 16.56773437 73.39628906 15.63671875 73.43945312 C11.27762386 73.51899865 8.01233027 73.53883095 4.4765625 70.79296875 C0.03657577 65.7857282 -0.2861194 61.36322304 -0.1953125 54.85546875 C-0.19106766 53.7007885 -0.19106766 53.7007885 -0.18673706 52.52278137 C-0.17559157 50.07752575 -0.15049781 47.63264388 -0.125 45.1875 C-0.1149629 43.52409385 -0.10583833 41.86068193 -0.09765625 40.19726562 C-0.07567073 36.13136763 -0.04118014 32.06574706 0 28 C-2.64 28 -5.28 28 -8 28 C-8 24.04 -8 20.08 -8 16 C-5.36 16 -2.72 16 0 16 C0 10.72 0 5.44 0 0 Z " fill="#FEFDFC" transform="translate(469,815)"/>
<path d="M0 0 C0.56920166 0.20423584 1.13840332 0.40847168 1.72485352 0.61889648 C6.46681399 2.26876846 10.93216845 3.4494808 15.9375 4.0625 C21.78 4.78 21.78 4.78 24 7 C24.37338425 9.76185811 24.65078048 12.47592202 24.875 15.25 C26.92970685 35.99883335 35.15971907 52.7149704 48.234375 68.73828125 C50 71 50 71 50 72 C37.14496774 71.58532154 28.72837091 63.86853453 20 55 C16.84738557 51.4417003 13.89833874 47.76666694 11 44 C10.50757813 43.41992188 10.01515625 42.83984375 9.5078125 42.2421875 C3.71142254 35.07770551 -0.15978229 23.64777914 -0.09765625 14.453125 C-0.09443359 13.60878906 -0.09121094 12.76445312 -0.08789062 11.89453125 C-0.07951172 11.02183594 -0.07113281 10.14914062 -0.0625 9.25 C-0.05798828 8.36183594 -0.05347656 7.47367187 -0.04882812 6.55859375 C-0.037074 4.37232671 -0.02064249 2.18619821 0 0 Z " fill="#FBA467" transform="translate(438,401)"/>
<path d="M0 0 C0 4.62 0 9.24 0 14 C-1.546875 14.2475 -3.09375 14.495 -4.6875 14.75 C-9.75258621 15.76731576 -13.13632553 17.21318158 -16.09912109 21.64355469 C-17.3803705 24.99494204 -17.35747932 28.28622531 -17.4140625 31.828125 C-17.43342865 32.57713074 -17.4527948 33.32613647 -17.4727478 34.09783936 C-17.53235716 36.48177836 -17.57885354 38.86576614 -17.625 41.25 C-17.66319701 42.86981231 -17.70224975 44.48960468 -17.7421875 46.109375 C-17.83964904 50.07281082 -17.91936277 54.03604345 -18 58 C-22.95 58 -27.9 58 -33 58 C-33 39.19 -33 20.38 -33 1 C-28.38 1 -23.76 1 -19 1 C-18.67 3.31 -18.34 5.62 -18 8 C-17.2575 7.05125 -16.515 6.1025 -15.75 5.125 C-11.29113055 -0.57244429 -6.80046117 -0.20001356 0 0 Z " fill="#FEFCFB" transform="translate(603,830)"/>
<path d="M0 0 C0.99 0.495 0.99 0.495 2 1 C2 31.03 2 61.06 2 92 C-62.35 92 -126.7 92 -193 92 C-193 91.67 -193 91.34 -193 91 C-97.465 90.505 -97.465 90.505 0 90 C0 60.3 0 30.6 0 0 Z " fill="#FEC68C" transform="translate(476,637)"/>
<path d="M0 0 C0.33 0 0.66 0 1 0 C1.19573608 1.43640171 1.38127816 2.87419504 1.5625 4.3125 C1.71912109 5.51326172 1.71912109 5.51326172 1.87890625 6.73828125 C2 9 2 9 1 12 C-2.63 12.33 -6.26 12.66 -10 13 C-10 13.99 -10 14.98 -10 16 C-7.36 16 -4.72 16 -2 16 C-0.875 17.75 -0.875 17.75 0 20 C-0.875 22.25 -0.875 22.25 -2 24 C-2.66 23.67 -3.32 23.34 -4 23 C-3.34 21.35 -2.68 19.7 -2 18 C-4.2458605 17.69674878 -6.4971469 17.43347478 -8.75 17.1875 C-10.00296875 17.03667969 -11.2559375 16.88585937 -12.546875 16.73046875 C-16.15750408 16.62116777 -16.15750408 16.62116777 -18.265625 19.42578125 C-18.83796875 20.27527344 -19.4103125 21.12476563 -20 22 C-24.80864914 23.60288305 -29.17071411 23.77236515 -33.8125 21.8125 C-36.32166673 19.73347613 -37.63127524 17.95356397 -39 15 C-39 13.68 -39 12.36 -39 11 C-26.13 11 -13.26 11 0 11 C0 7.37 0 3.74 0 0 Z " fill="#F18F59" transform="translate(663,853)"/>
<path d="M0 0 C12.54 0 25.08 0 38 0 C37.67 0.66 37.34 1.32 37 2 C34.03 2 31.06 2 28 2 C28 2.99 28 3.98 28 5 C26.02 5 24.04 5 22 5 C21.7525 5.598125 21.505 6.19625 21.25 6.8125 C19.70462524 9.51690582 18.79352635 10.56742238 16 12 C12.18252522 12.66896701 8.68074969 12.78458232 5.1171875 11.12109375 C3.5 9.9375 3.5 9.9375 1 7 C0.67 4.69 0.34 2.38 0 0 Z " fill="#F28F5A" transform="translate(363,864)"/>
<path d="M0 0 C0 0.66 0 1.32 0 2 C-2.31116552 2.94090928 -4.62358956 3.87837899 -6.9375 4.8125 C-7.62175049 5.0894873 -8.30600098 5.36647461 -9.01098633 5.65185547 C-12.70239733 7.1315589 -16.37555197 8.48013641 -20.1875 9.625 C-23.70569003 10.7495056 -25.57559674 12.14266758 -28 15 C-32.66666667 19 -32.66666667 19 -35 19 C-35.22429687 19.59296875 -35.44859375 20.1859375 -35.6796875 20.796875 C-37.38655104 23.64501417 -39.24967212 24.62802017 -42.125 26.25 C-43.03507812 26.77078125 -43.94515625 27.2915625 -44.8828125 27.828125 C-45.58148438 28.21484375 -46.28015625 28.6015625 -47 29 C-47.99 28.01 -48.98 27.02 -50 26 C-45.74007734 15.66408238 -27.57634945 8.28753298 -17.625 4.09375 C-16.21197585 3.53240945 -14.79537863 2.97996199 -13.375 2.4375 C-12.72450684 2.18605225 -12.07401367 1.93460449 -11.40380859 1.67553711 C-7.47978958 0.25765281 -4.16067114 -0.24964027 0 0 Z " fill="#F49763" transform="translate(543,264)"/>
<path d="M0 0 C0.79792969 0.00386719 1.59585937 0.00773438 2.41796875 0.01171875 C3.61486328 0.00591797 3.61486328 0.00591797 4.8359375 0 C10.79136108 0.01011108 10.79136108 0.01011108 11.91796875 1.13671875 C11.99068616 3.4898543 12.00167743 5.84505543 11.98046875 8.19921875 C11.97144531 9.48957031 11.96242188 10.77992188 11.953125 12.109375 C11.94152344 13.10839844 11.92992187 14.10742188 11.91796875 15.13671875 C12.70042969 15.12511719 13.48289062 15.11351562 14.2890625 15.1015625 C15.30097656 15.09253906 16.31289063 15.08351563 17.35546875 15.07421875 C18.36480469 15.06261719 19.37414062 15.05101562 20.4140625 15.0390625 C22.91796875 15.13671875 22.91796875 15.13671875 23.91796875 16.13671875 C23.99068616 18.4898543 24.00167743 20.84505543 23.98046875 23.19921875 C23.97144531 24.48957031 23.96242188 25.77992188 23.953125 27.109375 C23.94152344 28.10839844 23.92992187 29.10742188 23.91796875 30.13671875 C19.95796875 30.13671875 15.99796875 30.13671875 11.91796875 30.13671875 C12.01143188 34.37295417 12.11750788 38.60862726 12.23535156 42.84423828 C12.27366549 44.28555615 12.30851418 45.72697043 12.33984375 47.16845703 C12.38544321 49.23895761 12.44344319 51.30879308 12.50390625 53.37890625 C12.5510376 55.24844971 12.5510376 55.24844971 12.59912109 57.15576172 C12.61479184 60.25213651 12.61479184 60.25213651 14.91796875 62.13671875 C11.04296875 61.26171875 11.04296875 61.26171875 9.91796875 60.13671875 C9.830059 57.84520458 9.81102837 55.55099351 9.8203125 53.2578125 C9.82172745 52.57115005 9.8231424 51.88448761 9.82460022 51.17701721 C9.83021396 48.97604074 9.84276868 46.77516466 9.85546875 44.57421875 C9.86048199 43.08528792 9.8650452 41.59635551 9.86914062 40.10742188 C9.88018782 36.450488 9.89746162 32.79361317 9.91796875 29.13671875 C14.20796875 29.13671875 18.49796875 29.13671875 22.91796875 29.13671875 C22.91796875 25.17671875 22.91796875 21.21671875 22.91796875 17.13671875 C18.62796875 17.13671875 14.33796875 17.13671875 9.91796875 17.13671875 C9.91796875 11.85671875 9.91796875 6.57671875 9.91796875 1.13671875 C4.96796875 1.13671875 0.01796875 1.13671875 -5.08203125 1.13671875 C-5.08203125 6.41671875 -5.08203125 11.69671875 -5.08203125 17.13671875 C-7.72203125 17.13671875 -10.36203125 17.13671875 -13.08203125 17.13671875 C-13.08203125 21.09671875 -13.08203125 25.05671875 -13.08203125 29.13671875 C-13.41203125 29.13671875 -13.74203125 29.13671875 -14.08203125 29.13671875 C-14.10889063 26.99095238 -14.12836213 24.8450923 -14.14453125 22.69921875 C-14.15613281 21.50425781 -14.16773438 20.30929687 -14.1796875 19.078125 C-14.08203125 16.13671875 -14.08203125 16.13671875 -13.08203125 15.13671875 C-11.08244761 15.09591092 -9.08157871 15.09417519 -7.08203125 15.13671875 C-7.09363281 14.13769531 -7.10523438 13.13867188 -7.1171875 12.109375 C-7.12621094 10.81902344 -7.13523437 9.52867187 -7.14453125 8.19921875 C-7.15613281 6.91144531 -7.16773438 5.62367188 -7.1796875 4.296875 C-7.01190836 -1.13245809 -4.88447256 0.00829282 0 0 Z " fill="#F28A51" transform="translate(474.08203125,813.86328125)"/>
<path d="M0 0 C2 0.8125 2 0.8125 3.796875 3.38671875 C5.84361276 6.19733269 5.84361276 6.19733269 9.453125 6.08203125 C10.70609375 5.93121094 11.9590625 5.78039062 13.25 5.625 C14.51328125 5.48707031 15.7765625 5.34914063 17.078125 5.20703125 C18.04234375 5.07683594 19.0065625 4.94664062 20 4.8125 C17.79662631 5.94700305 15.73332991 6.90139003 13.375 7.6875 C10.54669219 9.02722475 10.22562956 10.03515595 9 12.8125 C-6.20689655 11.60560345 -6.20689655 11.60560345 -10 7.8125 C-10.3125 5.4375 -10.3125 5.4375 -10 2.8125 C-7.1830042 -0.70874475 -4.29741233 -0.40288241 0 0 Z " fill="#F2915B" transform="translate(434,841.1875)"/>
<path d="M0 0 C3 1.625 3 1.625 5 4 C5.33 5.98 5.66 7.96 6 10 C-1.26 10 -8.52 10 -16 10 C-14.99282785 4.96413924 -14.65953092 4.10505654 -11 1 C-7.53154217 -0.73422892 -3.79228327 -0.46502956 0 0 Z " fill="#F2905B" transform="translate(640,842)"/>
<path d="M0 0 C2.66546305 1.37849055 3.91049034 2.70663574 6 5 C6.33 6.65 6.66 8.3 7 10 C-0.26 10 -7.52 10 -15 10 C-13.80392157 4.01960784 -13.80392157 4.01960784 -11 1 C-7.26355133 -0.24548289 -3.874166 -0.6505675 0 0 Z " fill="#F28F59" transform="translate(378,842)"/>
<path d="M0 0 C1.98 0.66 3.96 1.32 6 2 C5.67 2.99 5.34 3.98 5 5 C4.8078451 9.5085621 4.8078451 9.5085621 5.5 13.9375 C6.51946226 18.14278181 6.61129884 22.47175291 5 26.5 C4.67 26.995 4.34 27.49 4 28 C3.34 27.67 2.68 27.34 2 27 C0.02160526 20.91263158 -0.25202541 15.36104174 -0.125 9 C-0.11597656 8.12988281 -0.10695313 7.25976562 -0.09765625 6.36328125 C-0.07434619 4.2420658 -0.03848579 2.12099438 0 0 Z " fill="#F39763" transform="translate(438,401)"/>
<path d="M0 0 C2.25222136 2.12051251 3.91532443 4.30548759 5.625 6.875 C9.56056068 12.03685857 13.55142787 15.38439863 20.16650391 16.29980469 C25.43920925 16.78795893 30.70704678 16.93719257 36 17 C34 19 34 19 31.27734375 19.265625 C14.67416024 19.18794929 14.67416024 19.18794929 9.25 14.75 C8.13625 13.38875 8.13625 13.38875 7 12 C6.55785156 11.48695313 6.11570312 10.97390625 5.66015625 10.4453125 C0 3.85 0 3.85 0 0 Z " fill="#F18E59" transform="translate(347,871)"/>
<path d="M0 0 C0.33 0 0.66 0 1 0 C1.38297872 18.34042553 1.38297872 18.34042553 -1 27 C-1.99 27.33 -2.98 27.66 -4 28 C-3.86722656 26.88882812 -3.73445312 25.77765625 -3.59765625 24.6328125 C-3.41912275 23.13022592 -3.24074773 21.62762051 -3.0625 20.125 C-2.9704126 19.3515625 -2.8783252 18.578125 -2.78344727 17.78125 C-2.19047025 12.7559142 -1.66353857 7.73091493 -1.24609375 2.6875 C-1 1 -1 1 0 0 Z " fill="#F69B65" transform="translate(567,309)"/>
<path d="M0 0 C1.32 0.33 2.64 0.66 4 1 C2.74194623 5.50802601 1.09592835 8.4912812 -2 12 C-3.4606285 9.35261084 -4 8.10551666 -4 5 C-2 2.3125 -2 2.3125 0 0 Z " fill="#F29863" transform="translate(551,362)"/>
<path d="M0 0 C0.33 0.66 0.66 1.32 1 2 C1.66 2.33 2.32 2.66 3 3 C3 3.66 3 4.32 3 5 C3.33 5.99 3.66 6.98 4 8 C2.59554165 10.2636564 0.8032087 12.0208685 -1 14 C-3 11 -3 11 -2.5390625 8.30078125 C-2.23742187 7.31464844 -1.93578125 6.32851563 -1.625 5.3125 C-1.32851563 4.31863281 -1.03203125 3.32476562 -0.7265625 2.30078125 C-0.48679687 1.54152344 -0.24703125 0.78226562 0 0 Z " fill="#EC9160" transform="translate(446,352)"/>
<path d="M0 0 C3.63061667 1.53218685 5.9863773 3.7183144 8.75 6.5 C9.94882812 7.69109375 9.94882812 7.69109375 11.171875 8.90625 C13 11 13 11 13 13 C13.99 13.33 14.98 13.66 16 14 C17.84499398 15.87617698 19.3683599 17.92737609 21 20 C20.67 20.66 20.34 21.32 20 22 C12.86733056 15.03406829 6.34067852 7.68567093 0 0 Z " fill="#76442C" transform="translate(659,193)"/>
<path d="M0 0 C4.75919118 2.11194793 7.63955882 5.54319299 11.125 9.3125 C11.75792969 9.97701172 12.39085937 10.64152344 13.04296875 11.32617188 C16.17062735 14.68292648 18.7233817 17.47937218 20 22 C16.29430504 19.21910062 13.43919961 16.3128594 10.5625 12.6875 C7.11518952 8.387009 3.60952251 4.16483366 0 0 Z " fill="#75452D" transform="translate(671,187)"/>
<path d="M0 0 C-7.72891233 5.84381176 -15.61991922 5.13862188 -25 5 C-25 4.67 -25 4.34 -25 4 C-23.76636719 3.83564453 -23.76636719 3.83564453 -22.5078125 3.66796875 C-16.08935366 2.75634007 -10.05922623 1.60637763 -3.92578125 -0.51171875 C-2 -1 -2 -1 0 0 Z " fill="#F18D57" transform="translate(751,885)"/>
<path d="M0 0 C1.32 0 2.64 0 4 0 C3.60446947 1.6510403 3.18286103 3.2958515 2.75 4.9375 C2.40195312 6.31228516 2.40195312 6.31228516 2.046875 7.71484375 C1 10 1 10 -1.109375 10.81640625 C-1.73328125 10.87699219 -2.3571875 10.93757813 -3 11 C-2.32829194 7.1936543 -1.27253436 3.64793184 0 0 Z " fill="#F59964" transform="translate(561,338)"/>
<path d="M0 0 C0.66 0.99 1.32 1.98 2 3 C-1.42232972 4.14077657 -4.08673217 4.09815117 -7.6875 4.0625 C-9.45673828 4.04896484 -9.45673828 4.04896484 -11.26171875 4.03515625 C-12.16535156 4.02355469 -13.06898438 4.01195312 -14 4 C-13.01 3.67 -12.02 3.34 -11 3 C-11 2.34 -11 1.68 -11 1 C-7.30992118 -0.18082522 -3.85119054 -0.28527337 0 0 Z " fill="#F8A066" transform="translate(554,263)"/>
<path d="M0 0 C0 0.33 0 0.66 0 1 C-0.87011719 1.14695312 -0.87011719 1.14695312 -1.7578125 1.296875 C-9.08659475 2.69974421 -13.87843044 5.48446355 -19 11 C-18.67 8.36 -18.34 5.72 -18 3 C-17.01 3.33 -16.02 3.66 -15 4 C-13.32433994 2.98146153 -11.64963703 1.96123264 -9.984375 0.92578125 C-6.62621815 -0.64091791 -3.6496329 -0.25611459 0 0 Z " fill="#F18950" transform="translate(603,828)"/>
<path d="M0 0 C0.66 0 1.32 0 2 0 C0.26477491 5.73959067 -1.5405963 10.92908542 -7 14 C-7.99 13.67 -8.98 13.34 -10 13 C-9.278125 12.525625 -8.55625 12.05125 -7.8125 11.5625 C-4.13354822 8.21056616 -2.21355185 4.40826495 0 0 Z " fill="#F18F5A" transform="translate(761,870)"/>
<path d="M0 0 C6.90546218 6.54201681 6.90546218 6.54201681 7.125 12.25 C7.08375 13.1575 7.0425 14.065 7 15 C6.01 15.495 6.01 15.495 5 16 C4.87625 14.205625 4.87625 14.205625 4.75 12.375 C4.24098391 8.09014813 2.56708979 5.47799261 0 2 C0 1.34 0 0.68 0 0 Z " fill="#EEB27D" transform="translate(712,455)"/>
<path d="M0 0 C4.49797113 1.68673918 8.72886302 3.81673892 13 6 C10 7 10 7 7.95703125 6.22265625 C7.24933594 5.83980469 6.54164063 5.45695312 5.8125 5.0625 C5.09707031 4.68222656 4.38164062 4.30195313 3.64453125 3.91015625 C3.10183594 3.60980469 2.55914062 3.30945313 2 3 C1.67 4.32 1.34 5.64 1 7 C0.67 4.69 0.34 2.38 0 0 Z " fill="#F6AB6C" transform="translate(477,420)"/>
<path d="M0 0 C-1.45654411 2.91308822 -3.35387648 3.05452316 -6.375 4.125 C-7.35210938 4.47820313 -8.32921875 4.83140625 -9.3359375 5.1953125 C-12 6 -12 6 -15 6 C-11.31946413 1.45345569 -5.73670284 -0.52151844 0 0 Z " fill="#F2905B" transform="translate(631,829)"/>
<path d="M0 0 C0.66 0.33 1.32 0.66 2 1 C-0.0214155 5.57478244 -2.31993178 8.61831569 -6 12 C-6.66 11.67 -7.32 11.34 -8 11 C-7.59007812 10.45730469 -7.18015625 9.91460938 -6.7578125 9.35546875 C-6.21898437 8.64003906 -5.68015625 7.92460938 -5.125 7.1875 C-4.59132813 6.47980469 -4.05765625 5.77210938 -3.5078125 5.04296875 C-2.29185219 3.39543703 -1.13583859 1.70375789 0 0 Z " fill="#F28D57" transform="translate(400,872)"/>
<path d="M0 0 C-1.3125 1.5 -1.3125 1.5 -3 3 C-3.99 3 -4.98 3 -6 3 C-6 3.66 -6 4.32 -6 5 C-7.65 5.66 -9.3 6.32 -11 7 C-8.38092426 1.15744643 -6.57566735 -0.43837782 0 0 Z " fill="#E78F5E" transform="translate(485,301)"/>
<path d="M0 0 C0.6875 1.6875 0.6875 1.6875 1 4 C-0.25 6.75 -0.25 6.75 -2 9 C-2.99 9 -3.98 9 -5 9 C-3.90931332 5.22454612 -3.0916909 2.52956528 0 0 Z " fill="#F39964" transform="translate(540,383)"/>
<path d="M0 0 C0 0.66 0 1.32 0 2 C-6.28571429 4.42857143 -6.28571429 4.42857143 -10 3 C-10 2.34 -10 1.68 -10 1 C-6.61981469 -0.04005702 -3.5219721 -0.08004482 0 0 Z " fill="#E8945F" transform="translate(543,264)"/>
<path d="M0 0 C1.57554035 2.88628401 2.46276373 5.53342384 3.125 8.75 C3.29257812 9.54921875 3.46015625 10.3484375 3.6328125 11.171875 C3.81457031 12.07679688 3.81457031 12.07679688 4 13 C3.34 13 2.68 13 2 13 C-0.24828052 8.50343896 -0.16682272 4.92127034 0 0 Z " fill="#ECAE7A" transform="translate(425,425)"/>
<path d="M0 0 C0.66 0.33 1.32 0.66 2 1 C0.90751403 2.50852857 -0.19938499 4.00662831 -1.3125 5.5 C-1.92738281 6.3353125 -2.54226563 7.170625 -3.17578125 8.03125 C-3.77777344 8.6809375 -4.37976563 9.330625 -5 10 C-5.99 10 -6.98 10 -8 10 C-5.36 6.7 -2.72 3.4 0 0 Z " fill="#F49764" transform="translate(473,308)"/>
<path d="M0 0 C0.66 0.33 1.32 0.66 2 1 C0.90716423 2.03295436 -0.19970579 3.05107835 -1.3125 4.0625 C-1.92738281 4.63097656 -2.54226563 5.19945312 -3.17578125 5.78515625 C-3.77777344 6.18605469 -4.37976563 6.58695313 -5 7 C-5.99 6.67 -6.98 6.34 -8 6 C-5.38485683 3.87961365 -2.80362384 1.86908256 0 0 Z " fill="#F08D58" transform="translate(318,882)"/>
<path d="M0 0 C0.763125 0.309375 1.52625 0.61875 2.3125 0.9375 C4.18789677 1.67893593 6.08684652 2.36228217 8 3 C9.1875 6.0625 9.1875 6.0625 10 9 C8.8944811 8.06409496 7.79064547 7.12620142 6.6875 6.1875 C6.07261719 5.66542969 5.45773437 5.14335938 4.82421875 4.60546875 C3.14575321 3.12827531 1.56117966 1.59960869 0 0 Z " fill="#F18E58" transform="translate(443,831)"/>
<path d="M0 0 C0 2.62113708 -0.31292445 4.50935112 -1 7 C-1.66 7 -2.32 7 -3 7 C-3.33 7.66 -3.66 8.32 -4 9 C-3.38461538 3.46153846 -3.38461538 3.46153846 -1.4375 1.125 C-0.963125 0.75375 -0.48875 0.3825 0 0 Z " fill="#F18E58" transform="translate(286,828)"/>
<path d="M0 0 C0.66 0.33 1.32 0.66 2 1 C-1.465 3.97 -1.465 3.97 -5 7 C-5 6.01 -5 5.02 -5 4 C-2.5 1.8125 -2.5 1.8125 0 0 Z " fill="#73432A" transform="translate(619,541)"/>
<path d="M0 0 C0.4125 0.556875 0.825 1.11375 1.25 1.6875 C3.12256399 4.16195956 5.05339344 6.5835229 7 9 C6.01 9 5.02 9 4 9 C0.8217901 5.7309841 0 4.67834007 0 0 Z " fill="#F0A96F" transform="translate(478,397)"/>
</svg>
