<?xml version="1.0" encoding="UTF-8"?>
<svg version="1.1" xmlns="http://www.w3.org/2000/svg" width="1024" height="1024">
<path d="M0 0 C337.92 0 675.84 0 1024 0 C1024 337.92 1024 675.84 1024 1024 C686.08 1024 348.16 1024 0 1024 C0 686.08 0 348.16 0 0 Z " fill="#BEB1FE" transform="translate(0,0)"/>
<path d="M0 0 C0.96035156 0.42410156 1.92070313 0.84820312 2.91015625 1.28515625 C9.86620349 4.72012318 14.79169494 9.32758855 20 15 C21.32756889 16.33907296 22.65918881 17.6741867 24 19 C24.27328125 18.40703125 24.5465625 17.8140625 24.828125 17.203125 C29.87051858 7.72342507 40.98825159 2.30031531 50.64453125 -1.39453125 C66.65426917 -6.21961733 83.98486512 -5.37557141 99.25 1.625 C113.46150001 9.35439296 121.53797528 21.15230232 126.13000488 36.36502075 C127.54412933 42.2734597 127.60824069 48.06193468 127.66015625 54.11328125 C127.71339486 56.09123536 127.76669804 58.06919014 127.82374477 60.04703808 C127.95884904 64.85618296 128.05961874 69.66502525 128.1081543 74.47583008 C128.13733826 77.19975973 128.19527145 79.92023784 128.2842865 82.64286804 C128.36623854 85.18725582 128.40659872 87.73343332 128.39894104 90.27912903 C128.60407028 95.41030348 128.74001278 98.70077327 132.41061401 102.48568726 C135.19520992 104.50876051 138.03995979 106.24894746 141 108 C168.67496266 130.80745352 178.81666801 175.84957223 188 209 C188.44484741 210.56258545 188.44484741 210.56258545 188.89868164 212.15673828 C190.69000499 218.77110025 191.51898407 224.90098397 191.4375 231.75 C191.42630127 232.70608154 191.41510254 233.66216309 191.40356445 234.6472168 C190.37828258 274.21513355 160.27775372 314.93771438 138 346 C137.46552246 346.74556152 136.93104492 347.49112305 136.38037109 348.25927734 C128.29299882 359.48751105 119.86149398 370.37357291 111 381 C110.27103516 381.87760986 110.27103516 381.87760986 109.52734375 382.77294922 C103.96522222 389.4584829 98.28312085 395.96474412 92.2890625 402.26953125 C85.70730497 410.12046728 84.27408653 415.48927272 84.40405273 425.80664062 C84.39796494 427.70569405 84.39796494 427.70569405 84.39175415 429.64311218 C84.38300298 432.38296542 84.3896397 435.12218275 84.40841484 437.86198425 C84.43765252 442.20002325 84.4296749 446.53752174 84.41651917 450.87561035 C84.39590546 459.30181306 84.41142472 467.72775073 84.43199158 476.15393829 C84.45717371 486.87911914 84.46992581 497.60415183 84.44203526 508.3293376 C84.43211815 512.63592117 84.44212203 516.94184829 84.46794307 521.24835968 C84.47721417 523.28461068 84.47737054 525.3206224 84.47354126 527.35688782 C84.46903386 529.83130254 84.47866349 532.30580287 84.50559998 534.78007507 C84.46601341 541.30199155 84.21429184 546.78425145 80 552 C74.13311981 556.36273963 68.09991365 556.57085902 61.03137207 556.50793457 C59.94803982 556.51417453 58.86470757 556.5204145 57.74854708 556.52684355 C54.12966734 556.54275896 50.51146249 556.53017431 46.89257812 556.51757812 C44.29357003 556.52299985 41.694565 556.53012279 39.0955658 556.53881836 C32.77591959 556.55657553 26.45646375 556.5527762 20.13681018 556.5411678 C14.99927708 556.53212266 9.86179721 556.53091413 4.72425842 556.53526306 C3.9921814 556.53587599 3.26010437 556.53648893 2.50584319 556.53712043 C1.0184963 556.53839937 -0.46885058 556.53969623 -1.95619744 556.5410108 C-15.89276033 556.55240838 -29.82921786 556.53931582 -43.76576346 556.51780933 C-55.71580261 556.49993907 -67.66568631 556.50304341 -79.61572266 556.52148438 C-93.50348166 556.54290564 -107.39114839 556.55130982 -121.2789216 556.53903532 C-122.76070053 556.53776117 -124.24247947 556.53650368 -125.72425842 556.53526306 C-126.45326205 556.53464596 -127.18226567 556.53402886 -127.93336031 556.53339306 C-133.06285016 556.52994392 -138.19228133 556.53575907 -143.32176208 556.54518127 C-150.22965141 556.55759165 -157.13724261 556.54871613 -164.04510307 556.52560425 C-166.57990977 556.52031645 -169.11474118 556.52183209 -171.64953804 556.53065491 C-175.1104825 556.54159045 -178.57048742 556.52786917 -182.03137207 556.50793457 C-183.03371368 556.51685746 -184.03605529 556.52578034 -185.06877089 556.53497362 C-191.15349051 556.46702585 -196.02204415 555.6974165 -201 552 C-203.8268435 548.55476974 -204.37393519 545.9524594 -204.36508179 541.55522156 C-204.37039413 540.47448364 -204.37570648 539.39374573 -204.38117981 538.28025818 C-204.36724434 536.51670738 -204.36724434 536.51670738 -204.35302734 534.7175293 C-204.35518753 533.4714389 -204.35734772 532.22534851 -204.35957336 530.9414978 C-204.36266111 528.23597338 -204.36044263 525.53104476 -204.34955978 522.82559776 C-204.33316577 518.54248029 -204.34168055 514.25963357 -204.35440063 509.97651672 C-204.38448794 498.56693393 -204.38308416 487.15740013 -204.36414778 475.74779779 C-204.35179489 468.24995335 -204.35373134 460.75241664 -204.38253558 453.2546075 C-204.39772574 449.00233053 -204.39035239 444.75089133 -204.36582541 440.49866712 C-204.35333744 437.22259954 -204.37335302 433.94669473 -204.38818359 430.6706543 C-204.37484482 429.50102646 -204.36150604 428.33139862 -204.34776306 427.12632751 C-204.41928643 420.01318895 -205.50358134 415.55545421 -210 410 C-210.69480469 409.07316406 -211.38960938 408.14632813 -212.10546875 407.19140625 C-213.13607422 405.89009766 -213.13607422 405.89009766 -214.1875 404.5625 C-223.59907376 392.1179606 -230.86292871 378.31219985 -237 364 C-237.28939453 363.33500488 -237.57878906 362.67000977 -237.87695312 361.98486328 C-252.32780299 328.07145082 -257.0293573 290.01346113 -260.25 253.625 C-260.33335602 252.68924133 -260.41671204 251.75348267 -260.50259399 250.78936768 C-262.80507361 224.46845116 -263.1664978 198.17865355 -263.13037109 171.77636719 C-263.12465572 167.57923814 -263.12808279 163.38217219 -263.13379955 159.18504524 C-263.1681342 129.71784615 -263.1681342 129.71784615 -262.58984375 116.1640625 C-262.55581451 115.32961609 -262.52178528 114.49516968 -262.48672485 113.63543701 C-261.58338295 96.04685239 -255.0473156 78.99330582 -242.6328125 66.33203125 C-230.94922333 55.98321413 -216.38341567 49.57777508 -200.75 49.6875 C-199.50101929 49.69487183 -199.50101929 49.69487183 -198.22680664 49.70239258 C-187.34208358 49.90804329 -178.48008675 52.69366826 -169 58 C-168.90203125 57.38253906 -168.8040625 56.76507813 -168.703125 56.12890625 C-166.26405852 42.31453835 -159.61571953 30.18892138 -148 22 C-145.38482766 20.43495438 -142.71510108 19.00846885 -140 17.625 C-139.34789551 17.29105225 -138.69579102 16.95710449 -138.02392578 16.61303711 C-124.54069601 10.08959746 -105.30638922 9.16216265 -91.0625 13.625 C-86.43369092 15.5484812 -82.15210523 18.08826778 -77.9609375 20.828125 C-76.09460409 22.17099539 -76.09460409 22.17099539 -74 22 C-72.85032522 20.38562728 -71.75656823 18.73134526 -70.6875 17.0625 C-55.65756535 -3.97940852 -23.13735686 -10.30109785 0 0 Z " fill="#FEC9A5" transform="translate(571,186)"/>
<path d="M0 0 C0.96035156 0.42410156 1.92070313 0.84820312 2.91015625 1.28515625 C9.86620349 4.72012318 14.79169494 9.32758855 20 15 C21.32756889 16.33907296 22.65918881 17.6741867 24 19 C24.27328125 18.40703125 24.5465625 17.8140625 24.828125 17.203125 C29.87051858 7.72342507 40.98825159 2.30031531 50.64453125 -1.39453125 C66.65426917 -6.21961733 83.98486512 -5.37557141 99.25 1.625 C113.46150001 9.35439296 121.53797528 21.15230232 126.13000488 36.36502075 C127.54412933 42.2734597 127.60824069 48.06193468 127.66015625 54.11328125 C127.71339486 56.09123536 127.76669804 58.06919014 127.82374477 60.04703808 C127.95884904 64.85618296 128.05961874 69.66502525 128.1081543 74.47583008 C128.13733826 77.19975973 128.19527145 79.92023784 128.2842865 82.64286804 C128.36623854 85.18725582 128.40659872 87.73343332 128.39894104 90.27912903 C128.60407028 95.41030348 128.74001278 98.70077327 132.41061401 102.48568726 C135.19520992 104.50876051 138.03995979 106.24894746 141 108 C168.67496266 130.80745352 178.81666801 175.84957223 188 209 C188.44484741 210.56258545 188.44484741 210.56258545 188.89868164 212.15673828 C190.69000499 218.77110025 191.51898407 224.90098397 191.4375 231.75 C191.42630127 232.70608154 191.41510254 233.66216309 191.40356445 234.6472168 C190.37828258 274.21513355 160.27775372 314.93771438 138 346 C137.46552246 346.74556152 136.93104492 347.49112305 136.38037109 348.25927734 C128.29299882 359.48751105 119.86149398 370.37357291 111 381 C110.27103516 381.87760986 110.27103516 381.87760986 109.52734375 382.77294922 C103.96522222 389.4584829 98.28312085 395.96474412 92.2890625 402.26953125 C85.70730497 410.12046728 84.27408653 415.48927272 84.40405273 425.80664062 C84.39796494 427.70569405 84.39796494 427.70569405 84.39175415 429.64311218 C84.38300298 432.38296542 84.3896397 435.12218275 84.40841484 437.86198425 C84.43765252 442.20002325 84.4296749 446.53752174 84.41651917 450.87561035 C84.39590546 459.30181306 84.41142472 467.72775073 84.43199158 476.15393829 C84.45717371 486.87911914 84.46992581 497.60415183 84.44203526 508.3293376 C84.43211815 512.63592117 84.44212203 516.94184829 84.46794307 521.24835968 C84.47721417 523.28461068 84.47737054 525.3206224 84.47354126 527.35688782 C84.46903386 529.83130254 84.47866349 532.30580287 84.50559998 534.78007507 C84.46601341 541.30199155 84.21429184 546.78425145 80 552 C74.13311981 556.36273963 68.09991365 556.57085902 61.03137207 556.50793457 C59.94803982 556.51417453 58.86470757 556.5204145 57.74854708 556.52684355 C54.12966734 556.54275896 50.51146249 556.53017431 46.89257812 556.51757812 C44.29357003 556.52299985 41.694565 556.53012279 39.0955658 556.53881836 C32.77591959 556.55657553 26.45646375 556.5527762 20.13681018 556.5411678 C14.99927708 556.53212266 9.86179721 556.53091413 4.72425842 556.53526306 C3.9921814 556.53587599 3.26010437 556.53648893 2.50584319 556.53712043 C1.0184963 556.53839937 -0.46885058 556.53969623 -1.95619744 556.5410108 C-15.89276033 556.55240838 -29.82921786 556.53931582 -43.76576346 556.51780933 C-55.71580261 556.49993907 -67.66568631 556.50304341 -79.61572266 556.52148438 C-93.50348166 556.54290564 -107.39114839 556.55130982 -121.2789216 556.53903532 C-122.76070053 556.53776117 -124.24247947 556.53650368 -125.72425842 556.53526306 C-126.45326205 556.53464596 -127.18226567 556.53402886 -127.93336031 556.53339306 C-133.06285016 556.52994392 -138.19228133 556.53575907 -143.32176208 556.54518127 C-150.22965141 556.55759165 -157.13724261 556.54871613 -164.04510307 556.52560425 C-166.57990977 556.52031645 -169.11474118 556.52183209 -171.64953804 556.53065491 C-175.1104825 556.54159045 -178.57048742 556.52786917 -182.03137207 556.50793457 C-183.03371368 556.51685746 -184.03605529 556.52578034 -185.06877089 556.53497362 C-191.15349051 556.46702585 -196.02204415 555.6974165 -201 552 C-203.8268435 548.55476974 -204.37393519 545.9524594 -204.36508179 541.55522156 C-204.37039413 540.47448364 -204.37570648 539.39374573 -204.38117981 538.28025818 C-204.36724434 536.51670738 -204.36724434 536.51670738 -204.35302734 534.7175293 C-204.35518753 533.4714389 -204.35734772 532.22534851 -204.35957336 530.9414978 C-204.36266111 528.23597338 -204.36044263 525.53104476 -204.34955978 522.82559776 C-204.33316577 518.54248029 -204.34168055 514.25963357 -204.35440063 509.97651672 C-204.38448794 498.56693393 -204.38308416 487.15740013 -204.36414778 475.74779779 C-204.35179489 468.24995335 -204.35373134 460.75241664 -204.38253558 453.2546075 C-204.39772574 449.00233053 -204.39035239 444.75089133 -204.36582541 440.49866712 C-204.35333744 437.22259954 -204.37335302 433.94669473 -204.38818359 430.6706543 C-204.37484482 429.50102646 -204.36150604 428.33139862 -204.34776306 427.12632751 C-204.41928643 420.01318895 -205.50358134 415.55545421 -210 410 C-210.69480469 409.07316406 -211.38960938 408.14632813 -212.10546875 407.19140625 C-213.13607422 405.89009766 -213.13607422 405.89009766 -214.1875 404.5625 C-223.59907376 392.1179606 -230.86292871 378.31219985 -237 364 C-237.28939453 363.33500488 -237.57878906 362.67000977 -237.87695312 361.98486328 C-252.32780299 328.07145082 -257.0293573 290.01346113 -260.25 253.625 C-260.33335602 252.68924133 -260.41671204 251.75348267 -260.50259399 250.78936768 C-262.80507361 224.46845116 -263.1664978 198.17865355 -263.13037109 171.77636719 C-263.12465572 167.57923814 -263.12808279 163.38217219 -263.13379955 159.18504524 C-263.1681342 129.71784615 -263.1681342 129.71784615 -262.58984375 116.1640625 C-262.55581451 115.32961609 -262.52178528 114.49516968 -262.48672485 113.63543701 C-261.58338295 96.04685239 -255.0473156 78.99330582 -242.6328125 66.33203125 C-230.94922333 55.98321413 -216.38341567 49.57777508 -200.75 49.6875 C-199.50101929 49.69487183 -199.50101929 49.69487183 -198.22680664 49.70239258 C-187.34208358 49.90804329 -178.48008675 52.69366826 -169 58 C-168.90203125 57.38253906 -168.8040625 56.76507813 -168.703125 56.12890625 C-166.26405852 42.31453835 -159.61571953 30.18892138 -148 22 C-145.38482766 20.43495438 -142.71510108 19.00846885 -140 17.625 C-139.34789551 17.29105225 -138.69579102 16.95710449 -138.02392578 16.61303711 C-124.54069601 10.08959746 -105.30638922 9.16216265 -91.0625 13.625 C-86.43369092 15.5484812 -82.15210523 18.08826778 -77.9609375 20.828125 C-76.09460409 22.17099539 -76.09460409 22.17099539 -74 22 C-72.85032522 20.38562728 -71.75656823 18.73134526 -70.6875 17.0625 C-55.65756535 -3.97940852 -23.13735686 -10.30109785 0 0 Z M-232 75 C-232.77085937 75.71929687 -233.54171875 76.43859375 -234.3359375 77.1796875 C-250.4247112 93.48226551 -249.31550066 114.84687115 -249.30078125 136.14453125 C-249.30468189 138.51877414 -249.30901929 140.89301634 -249.31376648 143.26725769 C-249.32120934 148.24744927 -249.32095682 153.22757 -249.31567383 158.20776367 C-249.31108696 163.22934025 -249.31779103 168.25067214 -249.33618164 173.2722168 C-249.471179 210.48367988 -248.99949685 247.53518125 -243.1875 284.375 C-242.99566635 285.63186615 -242.99566635 285.63186615 -242.79995728 286.91412354 C-236.30984777 329.37106454 -224.6183561 372.60895604 -195.8125 405.6328125 C-192.67300494 409.73310131 -191.75165926 413.34320152 -191.7215271 418.46064758 C-191.71036362 419.54453262 -191.69920013 420.62841766 -191.68769836 421.74514771 C-191.68553818 422.92406586 -191.68337799 424.10298401 -191.68115234 425.31762695 C-191.67110672 426.56681412 -191.6610611 427.81600128 -191.65071106 429.1030426 C-191.62514643 432.5200291 -191.60827473 435.93685009 -191.59528303 439.35389352 C-191.5796334 442.92804944 -191.55284904 446.50212162 -191.5272522 450.07621765 C-191.4804968 456.84046934 -191.44373706 463.60473685 -191.41057932 470.36906737 C-191.37233501 478.07162785 -191.32293092 485.77410414 -191.27259517 493.47659361 C-191.16932351 509.31766819 -191.08004766 525.15879001 -191 541 C-188.05425271 542.68308005 -185.95038911 543.24985027 -182.56778717 543.24888897 C-181.68099069 543.25348777 -180.79419421 543.25808656 -179.88052511 543.26282471 C-178.91049504 543.25768115 -177.94046496 543.25253759 -176.94104004 543.24723816 C-175.90730586 543.24965257 -174.87357167 543.25206699 -173.80851221 543.25455457 C-170.33386636 543.2602043 -166.85940331 543.25151871 -163.38476562 543.24291992 C-160.89808604 543.24399249 -158.4114067 543.24593079 -155.92472839 543.24867249 C-149.86526032 543.25302342 -143.80586418 543.24807205 -137.74640691 543.23882218 C-130.69185827 543.22844023 -123.63732144 543.22850832 -116.58276659 543.22899476 C-103.99673521 543.22949547 -91.41072924 543.22033174 -78.82470703 543.20581055 C-66.60823097 543.19172298 -54.39177727 543.18463977 -42.17529297 543.18530273 C-41.42289559 543.18534269 -40.67049822 543.18538265 -39.89530092 543.18542381 C-39.14421224 543.18546417 -38.39312356 543.18550452 -37.61927462 543.1855461 C-23.71682309 543.18623583 -9.81438107 543.18034653 4.08806738 543.17139288 C9.00696934 543.16837546 13.92586956 543.16731319 18.84477234 543.16686058 C25.46358314 543.1661075 32.0823734 543.15976666 38.7011776 543.14969444 C41.13446089 543.14676759 43.56774689 543.14554445 46.00103188 543.14612198 C49.31439321 543.1466109 52.62768796 543.14097439 55.94104004 543.13371277 C56.91107011 543.13526137 57.88110019 543.13680997 58.88052511 543.1384055 C59.76732159 543.13518106 60.65411807 543.13195661 61.56778717 543.12863445 C62.33265395 543.12793003 63.09752072 543.1272256 63.88556528 543.12649983 C66.03632902 542.99782655 67.93217787 542.5904204 70 542 C70.00219984 541.01657969 70.00219984 541.01657969 70.00444412 540.01329231 C70.04156628 524.02857977 70.10065226 508.04411994 70.18390274 492.05958748 C70.22363837 484.32943519 70.25605855 476.5993839 70.27099609 468.86914062 C70.28404115 462.12802307 70.31107809 455.38712825 70.35461307 448.64613616 C70.37716424 445.0798835 70.39291453 441.5139049 70.39188385 437.94757462 C70.39099364 433.95708762 70.42135414 429.96740367 70.45410156 425.97705078 C70.4490712 424.80675827 70.44404083 423.63646576 70.43885803 422.43070984 C70.55543899 413.22030812 72.49249151 405.28315255 78.5625 398.125 C79.25859375 397.29742188 79.9546875 396.46984375 80.671875 395.6171875 C83.64143445 392.27892436 86.67751022 389.00468529 89.72314453 385.73608398 C94.68644961 380.35704472 99.12029963 374.60375039 103.58642578 368.81201172 C105.48515736 366.37809362 107.43371831 363.98638453 109.38134766 361.59155273 C120.89356144 347.3979227 131.30574608 332.48480502 141 317 C141.45616699 316.27312988 141.91233398 315.54625977 142.38232422 314.79736328 C172.07891833 268.49121529 172.07891833 268.49121529 175.36010742 215.39599609 C168.04313294 184.7040706 157.41987615 140.65621669 133 119 C132.03513672 118.13761719 132.03513672 118.13761719 131.05078125 117.2578125 C120.1637485 108.38035374 106.70618777 104.75962958 92.89404297 104.81152344 C92.02063704 104.81392406 91.1472311 104.81632469 90.24735832 104.81879807 C80.48617257 104.9170716 70.83614553 105.83004825 61.1328125 106.828125 C59.19633895 107.02092892 57.25980375 107.21311441 55.32321167 107.40472412 C51.29732408 107.80528713 47.27221646 108.21275779 43.24755859 108.62548828 C38.15769666 109.14696556 33.06633792 109.65163494 27.97427559 110.1511116 C23.98380587 110.54435629 19.99425435 110.94637009 16.00490952 111.35085297 C14.13099409 111.53991632 12.25682832 111.72651921 10.38238907 111.91031647 C0.25643278 112.90860047 -9.7914246 114.16889498 -19.82080078 115.89746094 C-20.72150236 116.04547276 -21.62220394 116.19348457 -22.55019951 116.3459816 C-30.67205401 117.81891541 -37.59281393 120.37319241 -42.74609375 127.04296875 C-47.79946315 134.93000324 -47.98938218 143.87025554 -47 153 C-43.6903553 165.39803411 -31.65162425 175.34986929 -21.31640625 182.09765625 C-6.6729143 190.4973978 9.24474223 192.57663774 25.8125 192.4375 C26.55879669 192.43512329 27.30509338 192.43274658 28.07400513 192.43029785 C42.6322775 192.35773957 55.20232787 190.41970351 68.703125 184.63671875 C71.5210352 183.85556337 73.22724064 184.13002349 76 185 C78 187 78 187 78.25 190.3125 C76.80126557 194.58626658 76.17132989 194.86277542 72.3125 196.8125 C68.61264305 198.42621092 64.880604 199.87666726 61 201 C62.16596759 209.05072862 71.55446166 215.7204775 77.37109375 220.8203125 C78.93476709 222.19551792 78.93476709 222.19551792 81 222 C81.36180905 229.35678392 81.36180905 229.35678392 79.875 232 C77.10328237 233.4782494 75.11030483 233.29170947 72 233 C69.33203125 231.35546875 69.33203125 231.35546875 66.8125 229.1875 C65.97332031 228.47980469 65.13414062 227.77210938 64.26953125 227.04296875 C62 225 62 225 60.50390625 223.1875 C59.03382761 221.76270068 59.03382761 221.76270068 56.8203125 222.08203125 C24.74743627 230.77424553 -3.68021773 246.42896461 -28 269 C-28.60585938 269.54011719 -29.21171875 270.08023438 -29.8359375 270.63671875 C-43.70649058 283.5630323 -51.66544084 301.14812879 -57 319 C-57.22429687 319.72445313 -57.44859375 320.44890625 -57.6796875 321.1953125 C-59.28550667 326.90214677 -59.73239703 332.82718293 -60.33984375 338.70703125 C-61 342 -61 342 -62.375 343.93359375 C-64.89504267 345.58737175 -67.06971552 345.24938591 -70 345 C-70.66 344.67 -71.32 344.34 -72 344 C-74.16857536 315.76032974 -61.35267378 287.86370597 -43.43359375 266.71484375 C-18.415136 238.80500725 14.1859908 223.42740582 49 211 C48.14760343 208.50892388 48.14760343 208.50892388 47 206 C40.27480272 203.34835079 29.94209456 204.51953122 23 206 C19.89926274 207.6859522 17.76847156 209.49035363 15.2421875 211.93359375 C4.70202038 221.64744115 -11.62037822 222.74245239 -25.21484375 222.34375 C-38.17293522 221.63385651 -48.17883044 215.0115444 -58 207 C-58.3403125 207.56847656 -58.680625 208.13695312 -59.03125 208.72265625 C-66.50953582 220.63620202 -76.88873424 227.39224424 -90.68359375 230.6184082 C-103.51196096 232.7316816 -118.73282833 233.10240855 -130 226 C-130.82242188 225.50757813 -131.64484375 225.01515625 -132.4921875 224.5078125 C-136.9557557 221.68332508 -141.02245077 218.46760702 -145 215 C-145.4846875 215.72445312 -145.969375 216.44890625 -146.46875 217.1953125 C-153.62756906 227.5205323 -162.51988605 235.2888257 -175.19921875 237.67578125 C-188.91520454 239.2635453 -200.77795149 238.3086831 -212.4375 230.125 C-230.64033312 215.01321402 -239.02699837 181.71651713 -241.203125 158.8671875 C-241.32817153 153.55270995 -241.32817153 153.55270995 -239.8125 151 C-237.38703603 149.66181298 -235.73476716 149.72652328 -233 150 C-231.515 150.495 -231.515 150.495 -230 151 C-229.30394068 153.37873482 -228.81370168 155.63156387 -228.375 158.0625 C-226.6542946 166.55190769 -224.51807496 174.91155574 -222.20880127 183.25680542 C-221.82461408 184.65074419 -221.44520681 186.04601067 -221.07098389 187.44265747 C-217.45448365 200.91409053 -213.1991123 214.54300804 -200.828125 222.375 C-191.85885962 226.70914166 -180.31809329 226.39428774 -170.9375 223.5 C-163.51741159 220.30245439 -159.58526819 215.03450602 -156.5625 207.6875 C-152.79613793 197.64912076 -155.38687575 185.81310049 -156.5625 175.4375 C-156.73566478 173.87298214 -156.9086735 172.308447 -157.08154297 170.74389648 C-158.83586564 155.00606396 -160.73325982 139.28427961 -162.625 123.5625 C-162.77679718 122.29961151 -162.92859436 121.03672302 -163.08499146 119.73556519 C-164.08784391 91.97650875 -164.08784391 91.97650875 -177 69.31640625 C-194.15257411 58.02652837 -217.36146671 61.01937831 -232 75 Z " fill="#6F4534" transform="translate(571,186)"/>
<path d="M0 0 C7.1703278 5.83171141 10.06742796 11.60033405 11.06809998 20.74209595 C11.14101761 21.47431366 11.21393524 22.20653137 11.2890625 22.9609375 C11.37152725 23.7687265 11.453992 24.5765155 11.53895569 25.40878296 C12.85812026 38.92701908 13.69435668 52.49209665 14.62018204 66.04183197 C15.05530021 72.39754783 15.49702901 78.75281083 15.93771172 85.10814285 C16.04679752 86.68234853 16.1557317 88.25656472 16.26451302 89.83079147 C16.92377496 99.37016472 17.60409166 108.90726695 18.3359375 118.44140625 C18.40815018 119.38921967 18.48036285 120.33703308 18.55476379 121.31356812 C18.872482 125.47679616 19.1959961 129.63939824 19.53100586 133.80126953 C20.0963728 141.03168342 20.46408695 148.23448438 20.515625 155.48828125 C20.52427078 156.18629852 20.53291656 156.8843158 20.54182434 157.60348511 C20.52721251 165.42075395 18.44241932 171.29030333 13.21875 177.08203125 C3.1125745 186.29712461 -9.17100625 188.09539464 -22.29296875 187.76953125 C-31.92372429 187.15859345 -39.56672801 182.8556809 -46.28125 175.95703125 C-55.09008473 164.85187636 -55.85946476 150.58925079 -57.24468231 136.99929428 C-57.6643005 132.89060352 -58.10097424 128.78372304 -58.53710938 124.67675781 C-58.67298021 123.39413087 -58.67298021 123.39413087 -58.81159592 122.08559227 C-59.80363721 112.78107208 -60.90484659 103.49018188 -62.015625 94.19921875 C-62.21418299 92.53046991 -62.41262861 90.86170769 -62.61096191 89.19293213 C-63.41306182 82.44969256 -64.21731312 75.70672471 -65.03076172 68.96484375 C-65.54017552 64.74070055 -66.04326548 60.51584372 -66.54236603 56.29047012 C-66.72978456 54.7139403 -66.91949935 53.13768139 -67.11174774 51.56173325 C-70.56277542 23.25249337 -70.56277542 23.25249337 -61.84375 10.95703125 C-47.65706326 -6.37832162 -19.44352953 -12.66688762 0 0 Z " fill="#FEC9A5" transform="translate(483.65625,216.73046875)"/>
<path d="M0 0 C5.57042332 4.90075494 10.27422653 13.24449694 11.22940063 20.60656738 C11.27825409 21.59298218 11.32710754 22.57939697 11.37744141 23.59570312 C11.4373526 24.72036987 11.49726379 25.84503662 11.55899048 27.00378418 C11.61428925 28.2090979 11.66958801 29.41441162 11.7265625 30.65625 C11.82219986 32.52561218 11.82219986 32.52561218 11.91976929 34.43273926 C12.08712338 37.73822196 12.24683244 41.04389758 12.40301514 44.34991455 C12.53198195 47.04279676 12.66836264 49.73527891 12.80517006 52.42777252 C13.08832466 58.0028966 13.36557041 63.57831722 13.63134766 69.15429688 C13.70224106 70.63391907 13.70224106 70.63391907 13.77456665 72.14343262 C13.86943773 74.72371839 13.89335055 77.29327287 13.875 79.875 C13.14200684 79.97522461 12.40901367 80.07544922 11.65380859 80.17871094 C-27.00799194 83.17672309 -27.00799194 83.17672309 -59.125 101.875 C-60.14340282 103.53048587 -61.14859574 105.19440115 -62.125 106.875 C-62.455 106.875 -62.785 106.875 -63.125 106.875 C-63.20016846 105.7003418 -63.27533691 104.52568359 -63.3527832 103.31542969 C-63.71014598 97.75167685 -64.07268731 92.18826903 -64.4375 86.625 C-64.50369537 85.61524109 -64.56989075 84.60548218 -64.63809204 83.56512451 C-65.66199987 68.03146829 -66.83372715 52.51713499 -68.21020508 37.01074219 C-68.27180817 36.30595734 -68.33341125 35.60117249 -68.3968811 34.87503052 C-68.56092943 33.00319703 -68.72890039 31.13170844 -68.8972168 29.26025391 C-69.55663352 19.46017646 -68.39881096 11.7172637 -62.125 3.875 C-45.43490158 -13.1131359 -19.02315333 -12.93574426 0 0 Z " fill="#FECAA5" transform="translate(576.125,204.125)"/>
<path d="M0 0 C8.83895299 7.62034734 13.76695614 17.13994329 14.64916992 28.78295898 C14.7310303 30.47842236 14.7993513 32.17458321 14.85546875 33.87109375 C14.91568962 35.24238182 14.91568962 35.24238182 14.97712708 36.64137268 C15.10087017 39.53139911 15.2067267 42.42176649 15.3125 45.3125 C15.39406146 47.24549033 15.47673531 49.17843405 15.56054688 51.11132812 C15.93569433 60.03191556 16.27976938 68.94467461 16.125 77.875 C15.23035034 77.66387573 15.23035034 77.66387573 14.31762695 77.44848633 C7.91339235 76.03892106 1.86030325 75.52748793 -4.6875 75.5625 C-6.2489978 75.56443359 -6.2489978 75.56443359 -7.84204102 75.56640625 C-19.63567937 75.70189718 -31.36653279 76.74145842 -43.10668945 77.80737305 C-50.7167766 78.49403773 -58.22434553 79.05879951 -65.875 78.875 C-68.22535142 47.52671758 -68.22535142 47.52671758 -68.79150391 32.01806641 C-68.86710514 30.07763473 -68.96912634 28.13827683 -69.07421875 26.19921875 C-69.42067148 16.60606219 -66.36305414 10.75649159 -59.91796875 3.76171875 C-44.54987643 -10.43099366 -17.07894528 -12.10116223 0 0 Z " fill="#FECAA6" transform="translate(669.875,203.125)"/>
<path d="M0 0 C6.4903213 4.69925112 11.18523955 9.45132424 14 17 C14 18.32 14 19.64 14 21 C8.59690144 21.82137365 3.46459226 22.41242206 -2 22 C-4.3936945 20.21015946 -5.36385773 18.60730623 -6.8046875 16.015625 C-8.83015033 12.60013865 -11.26465904 11.97976156 -15 11 C-21.56780109 10.1347807 -26.79808071 10.43666359 -32.27734375 14.36328125 C-37.20061455 19.04094671 -40.11337405 24.67934332 -40.29223633 31.40893555 C-40.37702433 40.41995887 -39.48754777 46.6641298 -33.6875 53.875 C-28.57214824 57.91969674 -23.73193295 59.55887048 -17.28125 59.37109375 C-14.0224157 58.84097516 -11.46357987 57.52426465 -8.62890625 55.875 C-7 55 -7 55 -5 55 C-3.46075452 52.03145514 -2.25353997 49.13384992 -1 46 C-6.94 46 -12.88 46 -19 46 C-19 41.38 -19 36.76 -19 32 C-7.78 32 3.44 32 15 32 C15 45.2 15 58.4 15 72 C10.38 72 5.76 72 1 72 C0.67 70.02 0.34 68.04 0 66 C-0.70125 66.598125 -1.4025 67.19625 -2.125 67.8125 C-8.48511577 72.65171852 -13.45061829 73.55376982 -21.25 73.5 C-22.65789795 73.49250732 -22.65789795 73.49250732 -24.09423828 73.48486328 C-31.08347784 73.30839807 -36.3370948 72.32169081 -42 68 C-42.63679688 67.56558594 -43.27359375 67.13117188 -43.9296875 66.68359375 C-50.55134881 61.6960334 -54.95357573 53.95208701 -57 46 C-58.29426958 32.60135192 -57.80098891 20.37045255 -49.75 9.1875 C-37.95228922 -4.84424537 -16.35042407 -9.66514766 0 0 Z " fill="#FDFDFE" transform="translate(320,816)"/>
<path d="M0 0 C6.27 0 12.54 0 19 0 C20.35931641 3.69703125 20.35931641 3.69703125 21.74609375 7.46875 C22.97620814 10.81263044 24.20684343 14.15631907 25.4375 17.5 C25.91494659 18.79753204 25.91494659 18.79753204 26.40203857 20.12127686 C30.60653951 31.54487165 34.82636868 42.96170734 39.15795898 54.33789062 C46 72.41883648 46 72.41883648 46 76 C40.39 76 34.78 76 29 76 C26.8829823 70.87818299 25.08927353 66.44636767 24 61 C14.43 61.33 4.86 61.66 -5 62 C-6.65 66.62 -8.3 71.24 -10 76 C-15.94 76 -21.88 76 -28 76 C-25.99105974 69.05605434 -23.70583443 62.3123294 -21.125 55.5625 C-20.33258437 53.47163786 -19.54097062 51.38047171 -18.75 49.2890625 C-18.316875 48.14469727 -17.88375 47.00033203 -17.4375 45.82128906 C-15.81544577 41.52029318 -14.21971371 37.20963071 -12.625 32.8984375 C-12.33575653 32.11695847 -12.04651306 31.33547943 -11.74850464 30.53031921 C-10.58757325 27.39311673 -9.42689251 24.25582611 -8.269104 21.11746216 C-7.45443829 18.90974474 -6.63755535 16.70285824 -5.8203125 14.49609375 C-5.57998291 13.84277069 -5.33965332 13.18944763 -5.09204102 12.5163269 C-3.51784986 8.27249451 -1.78768876 4.17127377 0 0 Z " fill="#FDFDFE" transform="translate(718,812)"/>
<path d="M0 0 C6.74916201 4.76332507 10.16019587 10.42503693 11.96484375 18.38671875 C11.96484375 22.01671875 11.96484375 25.64671875 11.96484375 29.38671875 C-0.57515625 29.38671875 -13.11515625 29.38671875 -26.03515625 29.38671875 C-23.95199453 37.64914324 -23.95199453 37.64914324 -21.19140625 40.421875 C-18.51345232 41.62016236 -16.46719394 41.82019123 -13.53515625 41.82421875 C-12.59671875 41.84355469 -11.65828125 41.86289062 -10.69140625 41.8828125 C-7.89203638 41.63362911 -7.89203638 41.63362911 -6.17578125 39.375 C-3.56558299 36.95056402 -1.83950649 36.96742918 1.6484375 37.03515625 C2.33035156 37.06867187 3.01226563 37.1021875 3.71484375 37.13671875 C4.41222656 37.15476562 5.10960937 37.1728125 5.828125 37.19140625 C7.54095914 37.23833321 9.25308199 37.3100727 10.96484375 37.38671875 C10.14267362 42.432247 8.5224073 45.71580146 4.96484375 49.38671875 C-3.53641441 55.00362146 -13.56573777 55.79244663 -23.484375 53.92578125 C-30.09561698 51.71770436 -35.21040429 47.44253459 -38.41015625 41.26171875 C-42.06837875 33.34087176 -42.31616366 23.78922828 -40.31640625 15.35546875 C-38.44241134 10.3379985 -36.2129742 6.8512507 -32.03515625 3.38671875 C-30.82859375 2.30390625 -30.82859375 2.30390625 -29.59765625 1.19921875 C-21.43999214 -4.57083635 -8.73681132 -4.63685517 0 0 Z " fill="#FDFDFE" transform="translate(648.03515625,834.61328125)"/>
<path d="M0 0 C5.31340931 4.36665638 8.34663924 9.38655695 10 16 C10 19.96 10 23.92 10 28 C-2.54 28 -15.08 28 -28 28 C-25.91683828 36.26242449 -25.91683828 36.26242449 -23.15625 39.03515625 C-20.47829607 40.23344361 -18.43203769 40.43347248 -15.5 40.4375 C-14.5615625 40.45683594 -13.623125 40.47617187 -12.65625 40.49609375 C-9.85688013 40.24691036 -9.85688013 40.24691036 -8.140625 37.98828125 C-5.53042674 35.56384527 -3.80435024 35.58071043 -0.31640625 35.6484375 C0.36550781 35.68195312 1.04742187 35.71546875 1.75 35.75 C2.44738281 35.76804687 3.14476562 35.78609375 3.86328125 35.8046875 C5.57611539 35.85161446 7.28823824 35.92335395 9 36 C8.21365384 41.86185321 5.19897822 45.0333423 1 49 C-6.80488955 53.74414855 -15.10140689 53.78756623 -24 53 C-30.88820056 50.99730284 -36.23330574 47.11621642 -40 41 C-44.29976555 32.95633212 -44.29228559 22.79220863 -42.34375 14.05859375 C-39.79285474 6.85671273 -35.39821089 2.08053728 -28.9375 -1.875 C-19.23608912 -5.59043395 -9.13828769 -4.91424534 0 0 Z " fill="#FDFDFE" transform="translate(388,836)"/>
<path d="M0 0 C5.28 0 10.56 0 16 0 C16.0093457 1.13018555 16.01869141 2.26037109 16.02832031 3.42480469 C16.06822392 7.62214421 16.13398326 11.81875104 16.20751953 16.015625 C16.2357271 17.83128439 16.25694274 19.64706652 16.27099609 21.46289062 C16.29242909 24.07485789 16.33907885 26.68534974 16.390625 29.296875 C16.39185364 30.10743347 16.39308228 30.91799194 16.39434814 31.75311279 C16.48698685 35.32590106 16.69049205 37.5660142 18.79199219 40.51269531 C21.51537459 42.34715413 23.77533305 42.55854199 27.03125 42.39453125 C30.14541729 41.77046201 31.85846802 40.2713218 34 38 C35.22318866 34.33043403 35.23116124 30.87678997 35.31640625 27.05078125 C35.33718735 26.27816452 35.35796844 25.50554779 35.37937927 24.70951843 C35.44471038 22.2439352 35.50368315 19.77824639 35.5625 17.3125 C35.60570087 15.63996309 35.64931566 13.96743681 35.69335938 12.29492188 C35.80115324 8.19672118 35.90034835 4.09843916 36 0 C41.28 0 46.56 0 52 0 C52 18.15 52 36.3 52 55 C47.05 55 42.1 55 37 55 C36.67 53.35 36.34 51.7 36 50 C35.0925 50.804375 34.185 51.60875 33.25 52.4375 C28.28527864 56.83804848 22.57919738 56.33843451 16.203125 56.28125 C10.57222577 55.78682958 7.63306638 53.67720331 3.6875 49.625 C-0.11017417 43.71750685 -0.27633662 38.24161528 -0.1953125 31.4453125 C-0.1924826 30.54376434 -0.18965271 29.64221619 -0.18673706 28.71334839 C-0.17559439 25.85042724 -0.1505008 22.98782566 -0.125 20.125 C-0.11496255 18.17708787 -0.10583804 16.22917081 -0.09765625 14.28125 C-0.07567443 9.5207113 -0.0411855 4.76040973 0 0 Z " fill="#FDFDFE" transform="translate(504,833)"/>
<path d="M0 0 C3.74520343 2.49680229 6.0994329 4.89877626 8 9 C8.1875 11.8125 8.1875 11.8125 8 14 C2.92673288 14.84554452 -1.863101 15.5136899 -7 15 C-8.875 12.5625 -8.875 12.5625 -10 10 C-12.77100394 8.61449803 -14.9334706 8.8122533 -18 9 C-18.99 9.66 -19.98 10.32 -21 11 C-21.25030977 13.58380177 -21.25030977 13.58380177 -21 16 C-16.50223236 17.83582353 -12.10285319 19.24835978 -7.37402344 20.38769531 C3.70168051 23.08763487 3.70168051 23.08763487 8 28 C10.53877407 32.27863323 10.54096058 36.13980727 10 41 C7.77375304 47.2100573 4.32171464 49.81803618 -1.4375 52.75 C-9.50791046 55.53184603 -19.28502694 55.07168825 -27.171875 51.90234375 C-33.05847903 48.99677638 -35.68433323 44.97674886 -38 39 C-38 38.34 -38 37.68 -38 37 C-33.05 36.67 -28.1 36.34 -23 36 C-22.01 37.65 -21.02 39.3 -20 41 C-16.85658007 42.57170996 -13.44228549 42.23175783 -10 42 C-8.515 41.505 -8.515 41.505 -7 41 C-6.67 38.69 -6.34 36.38 -6 34 C-7.134375 33.75765625 -8.26875 33.5153125 -9.4375 33.265625 C-29.83238671 28.7841765 -29.83238671 28.7841765 -36 20 C-37.20643566 16.38069302 -37.32268559 13.80768995 -37 10 C-34.12014753 4.46182218 -30.05565113 0.22482105 -24.203125 -2.12109375 C-16.00062425 -4.37177993 -7.58045385 -3.79022693 0 0 Z " fill="#FDFDFE" transform="translate(443,835)"/>
<path d="M0 0 C5.28 0 10.56 0 16 0 C16 4.62 16 9.24 16 14 C19.96 14 23.92 14 28 14 C28 17.96 28 21.92 28 26 C24.04 26 20.08 26 16 26 C16.33 35.9 16.66 45.8 17 56 C23.48145503 57.0942809 23.48145503 57.0942809 28 57 C28 60.96 28 64.92 28 69 C22.10441412 70.96519529 14.64260967 71.06598109 8.6640625 69.31640625 C4.46973691 67.10934846 2.23985795 64.07122936 0 60 C-0.33674287 57.18041216 -0.47176343 54.77773826 -0.390625 51.9765625 C-0.38496521 51.23038666 -0.37930542 50.48421082 -0.37347412 49.71542358 C-0.35122898 47.35127363 -0.30105984 44.98868541 -0.25 42.625 C-0.22991944 41.01434493 -0.2116714 39.40366591 -0.1953125 37.79296875 C-0.15140381 33.86138493 -0.08246318 29.93095648 0 26 C-2.97 26 -5.94 26 -9 26 C-9 22.04 -9 18.08 -9 14 C-6.03 14 -3.06 14 0 14 C0 9.38 0 4.76 0 0 Z " fill="#FDFDFE" transform="translate(467,819)"/>
<path d="M0 0 C1 1 1 1 1.09765625 4.16015625 C1.08605469 5.44792969 1.07445312 6.73570312 1.0625 8.0625 C1.05347656 9.35285156 1.04445313 10.64320313 1.03515625 11.97265625 C1.02355469 12.97167969 1.01195312 13.97070312 1 15 C-0.32064453 15.02126953 -0.32064453 15.02126953 -1.66796875 15.04296875 C-3.41013672 15.11451172 -3.41013672 15.11451172 -5.1875 15.1875 C-6.33605469 15.22230469 -7.48460937 15.25710938 -8.66796875 15.29296875 C-12.98134762 16.20823437 -14.2832695 17.55184206 -17 21 C-17.5068646 23.90588609 -17.72245392 26.24335126 -17.70703125 29.14453125 C-17.72215256 29.91431808 -17.73727386 30.68410492 -17.75285339 31.47721863 C-17.79565263 33.92261218 -17.8045601 36.3667696 -17.8125 38.8125 C-17.83565061 40.47594414 -17.86101713 42.13935902 -17.88867188 43.80273438 C-17.95560055 47.86915838 -17.97663383 51.93216224 -18 56 C-23.28 56 -28.56 56 -34 56 C-34 37.85 -34 19.7 -34 1 C-29.05 1 -24.1 1 -19 1 C-18.67 2.98 -18.34 4.96 -18 7 C-17.54109375 6.57847656 -17.0821875 6.15695312 -16.609375 5.72265625 C-15.99578125 5.17480469 -15.3821875 4.62695312 -14.75 4.0625 C-14.14671875 3.51722656 -13.5434375 2.97195313 -12.921875 2.41015625 C-8.95345598 -0.50163088 -4.79507971 -0.1809464 0 0 Z " fill="#FDFDFE" transform="translate(602,832)"/>
<path d="M0 0 C2.5572024 2.50717018 4.94881863 5.07007269 7.25 7.8125 C19.88754421 22.23636374 37.8927569 32.39242329 57 35 C48.22332886 40.85111409 37.18811983 40.93094729 27 40 C23.33232393 39.13442845 20.27794372 37.84205564 17 36 C16.20980469 35.56429687 15.41960938 35.12859375 14.60546875 34.6796875 C8.54327132 31.00014478 4.18179412 26.36358823 1 20 C0.84876169 18.4804236 0.75118307 16.95527498 0.68359375 15.4296875 C0.64169922 14.53378906 0.59980469 13.63789063 0.55664062 12.71484375 C0.51732422 11.77769531 0.47800781 10.84054687 0.4375 9.875 C0.39431641 8.93011719 0.35113281 7.98523438 0.30664062 7.01171875 C0.20040928 4.67462908 0.09836824 2.3374317 0 0 Z " fill="#FCCCA7" transform="translate(517,355)"/>
<path d="M0 0 C2 1 2 1 2.96142578 3.26904297 C3.2861084 4.25018066 3.61079102 5.23131836 3.9453125 6.2421875 C4.29980469 7.30824219 4.65429688 8.37429688 5.01953125 9.47265625 C5.38433594 10.59542969 5.74914062 11.71820312 6.125 12.875 C6.49753906 13.99003906 6.87007812 15.10507812 7.25390625 16.25390625 C10 24.59277701 10 24.59277701 10 28 C3.73 28 -2.54 28 -9 28 C-8.25023558 24.25117791 -7.40819133 21.04867059 -6.15234375 17.48046875 C-5.61577148 15.9480957 -5.61577148 15.9480957 -5.06835938 14.38476562 C-4.69517578 13.32966797 -4.32199219 12.27457031 -3.9375 11.1875 C-3.56044922 10.11306641 -3.18339844 9.03863281 -2.79492188 7.93164062 C-1.86625342 5.28669882 -0.93451811 2.64287946 0 0 Z " fill="#B3ADFE" transform="translate(727,831)"/>
<path d="M0 0 C4.42727286 3.16233776 4.90980952 4.54904761 6 10 C-1.26 10 -8.52 10 -16 10 C-15 4 -15 4 -13.0625 1.625 C-8.6915904 -0.69425816 -4.84638689 -0.92312131 0 0 Z " fill="#B2ACFE" transform="translate(639,844)"/>
<path d="M0 0 C2.77406113 1.37290602 3.8999013 2.5768092 6 5 C6 6.65 6 8.3 6 10 C-1.26 10 -8.52 10 -16 10 C-12.24483672 1.23795235 -9.5411839 -1.76322397 0 0 Z " fill="#B2ACFE" transform="translate(376,844)"/>
<path d="M0 0 C0.33 0 0.66 0 1 0 C1 2.31 1 4.62 1 7 C0.01 6.34 -0.98 5.68 -2 5 C-2.7425 5.474375 -3.485 5.94875 -4.25 6.4375 C-9.32599906 9.32159037 -14.26576011 9.42585892 -20 9 C-23.5625 8 -23.5625 8 -26 7 C-22.6441387 5.88137957 -20.27384601 6.00207514 -16.75 6.125 C-10.40096145 6.17449139 -5.98860144 5.68974129 -1.125 1.3125 C-0.75375 0.879375 -0.3825 0.44625 0 0 Z " fill="#AEA8FE" transform="translate(540,882)"/>
<path d="M0 0 C0 0.33 0 0.66 0 1 C-1.17755859 1.20302734 -1.17755859 1.20302734 -2.37890625 1.41015625 C-9.92817914 2.95706247 -14.25657413 4.89734683 -19 11 C-19.9590625 12.2065625 -19.9590625 12.2065625 -20.9375 13.4375 C-21.288125 13.953125 -21.63875 14.46875 -22 15 C-21.67747582 9.67835106 -18.70788909 6.52510582 -15 3 C-10.08040341 -0.38905543 -5.7575987 -0.34545592 0 0 Z " fill="#AEA7FE" transform="translate(303,826)"/>
<path d="M0 0 C1.65 0 3.3 0 5 0 C4.67 9.24 4.34 18.48 4 28 C3.67 28 3.34 28 3 28 C2.98018066 27.22285645 2.96036133 26.44571289 2.93994141 25.64501953 C2.84492991 22.13799309 2.73515441 18.63158206 2.625 15.125 C2.5940625 13.90167969 2.563125 12.67835938 2.53125 11.41796875 C2.49257813 10.25136719 2.45390625 9.08476563 2.4140625 7.8828125 C2.3826416 6.80402832 2.3512207 5.72524414 2.31884766 4.61376953 C2.25323678 1.84238346 2.25323678 1.84238346 0 0 Z " fill="#AFA8FE" transform="translate(462,845)"/>
<path d="M0 0 C0.66 0.66 1.32 1.32 2 2 C-2.81954715 6.91593809 -7.60705666 11.71330145 -13 16 C-13.66 15.67 -14.32 15.34 -15 15 C-10.05 10.05 -5.1 5.1 0 0 Z " fill="#623A2B" transform="translate(542,437)"/>
<path d="M0 0 C0.33 0 0.66 0 1 0 C1.04898438 0.85464844 1.09796875 1.70929688 1.1484375 2.58984375 C1.22320313 3.69457031 1.29796875 4.79929687 1.375 5.9375 C1.44460938 7.03964844 1.51421875 8.14179688 1.5859375 9.27734375 C1.72257813 10.17582031 1.85921875 11.07429688 2 12 C2.66 12.33 3.32 12.66 4 13 C3.39816251 15.02045442 2.72693904 17.02111039 2 19 C1.34 19.33 0.68 19.66 0 20 C0 13.4 0 6.8 0 0 Z " fill="#F7D7B1" transform="translate(513,291)"/>
<path d="M0 0 C4 4 4 4 5 7 C4.34 7 3.68 7 3 7 C2.67 10.96 2.34 14.92 2 19 C1.67 19 1.34 19 1 19 C0.67 12.73 0.34 6.46 0 0 Z " fill="#F9DEB8" transform="translate(517,355)"/>
<path d="M0 0 C5.61 0 11.22 0 17 0 C17.66 1.98 18.32 3.96 19 6 C18.01 6.66 17.02 7.32 16 8 C16 5.69 16 3.38 16 1 C10.72 1 5.44 1 0 1 C0 0.67 0 0.34 0 0 Z " fill="#AAA3FE" transform="translate(567,832)"/>
<path d="M0 0 C0.33 0.99 0.66 1.98 1 3 C-1.97 5.97 -4.94 8.94 -8 12 C-8.66 11.67 -9.32 11.34 -10 11 C-6.7 7.37 -3.4 3.74 0 0 Z " fill="#633B2D" transform="translate(657,575)"/>
<path d="M0 0 C0.66 0.66 1.32 1.32 2 2 C-0.31 4.64 -2.62 7.28 -5 10 C-5.66 9.01 -6.32 8.02 -7 7 C-4.69 4.69 -2.38 2.38 0 0 Z " fill="#F9D0AB" transform="translate(429,220)"/>
<path d="M0 0 C0.66 0.66 1.32 1.32 2 2 C-1.465 4.97 -1.465 4.97 -5 8 C-3.8141763 4.62496331 -2.72426311 2.35277269 0 0 Z " fill="#FAD4AE" transform="translate(533,308)"/>
<path d="M0 0 C0.66 0.33 1.32 0.66 2 1 C-1.465 3.97 -1.465 3.97 -5 7 C-5.66 6.67 -6.32 6.34 -7 6 C-4.69 4.02 -2.38 2.04 0 0 Z " fill="#5C3628" transform="translate(526,297)"/>
</svg>
