<?xml version="1.0" encoding="UTF-8"?>
<svg version="1.1" xmlns="http://www.w3.org/2000/svg" width="1024" height="1024">
<path d="M0 0 C337.92 0 675.84 0 1024 0 C1024 337.92 1024 675.84 1024 1024 C686.08 1024 348.16 1024 0 1024 C0 686.08 0 348.16 0 0 Z " fill="#F99D63" transform="translate(0,0)"/>
<path d="M0 0 C12.36698476 7.88145578 19.44823003 19.70786112 22.9375 33.78125 C25.43024983 45.76562419 26.23821335 57.34459508 26.25 69.5625 C26.25100708 70.28832275 26.25201416 71.01414551 26.25305176 71.76196289 C26.23580882 90.24436805 24.22181983 108.15099576 19.50732422 126.04394531 C18.9999229 128.00029727 18.52824222 129.96211965 18.06640625 131.9296875 C15.93501407 140.92543263 13.26371857 149.69257322 10.4375 158.4921875 C7.20778839 168.56400952 4.50400084 178.77421474 1.8125 189 C1.55017578 189.99225586 1.28785156 190.98451172 1.01757812 192.00683594 C-3.31232717 208.60857464 -2.85634649 224.79303559 0.24609375 241.60546875 C1.96363444 251.2440924 2.15808554 260.80157094 2.13037109 270.56665039 C2.12503525 272.79775873 2.13033224 275.02866357 2.13671875 277.25976562 C2.16448759 324.96794945 -13.73104649 364.62833007 -47.1875 398.3125 C-47.78151611 398.91126953 -48.37553223 399.51003906 -48.98754883 400.12695312 C-52.14359 403.27111128 -55.35215795 406.1377829 -58.875 408.875 C-61.03053841 410.66822451 -61.8770639 411.43469546 -62.4765625 414.19140625 C-62.55828912 416.66630109 -62.55828912 416.66630109 -62 420 C-60.63077961 420.2799295 -59.25389462 420.52245963 -57.875 420.75 C-56.72644531 420.95882812 -56.72644531 420.95882812 -55.5546875 421.171875 C-49.6276948 420.77311708 -45.14052015 415.45702128 -41.11328125 411.44921875 C-40.57393448 410.91834152 -40.03458771 410.38746429 -39.47889709 409.84049988 C-37.74908602 408.13034982 -36.02927009 406.41073694 -34.3125 404.6875 C-33.7269635 404.100755 -33.141427 403.51401001 -32.53814697 402.90948486 C-5.00390488 375.22005098 7.42304052 342.22450707 14 304 C16 305 16 305 17.25 308.125 C20.21364074 315.3562834 25.61674779 319.78705354 32 324 C31.319375 324.639375 30.63875 325.27875 29.9375 325.9375 C24.08395254 331.82430625 19.18545028 338.31663925 16 346 C15.62746094 346.84820312 15.25492188 347.69640625 14.87109375 348.5703125 C10.89096025 358.74946926 9.74845601 371.77680332 14.02734375 382.0859375 C14.50880859 383.03339844 14.50880859 383.03339844 15 384 C15.52787109 385.04027344 15.52787109 385.04027344 16.06640625 386.1015625 C18.60529856 390.57604598 21.56344946 393.65824074 25.64453125 396.7734375 C26.31548828 397.38058594 26.31548828 397.38058594 27 398 C27 398.66 27 399.32 27 400 C26.29875 400.680625 25.5975 401.36125 24.875 402.0625 C17.58855516 409.18381295 14.53904338 417.27351075 12 427 C11.8040625 427.65097656 11.608125 428.30195312 11.40625 428.97265625 C9.10374065 440.4630635 10.84415 452.77503956 17.15234375 462.6015625 C21.15114422 467.7923944 25.99718369 472.28379353 32 475 C30.95274513 477.11390334 29.8870593 479.21284979 28.78125 481.296875 C28.3584375 482.10640625 27.935625 482.9159375 27.5 483.75 C27.0771875 484.54921875 26.654375 485.3484375 26.21875 486.171875 C22.08153861 495.77232708 21.26112272 507.69869142 23.6875 517.88671875 C24.61790314 520.10805624 25.6653933 521.99808996 27 524 C27.4125 524.680625 27.825 525.36125 28.25 526.0625 C32.11214406 531.85571609 37.11014069 535.41523671 43 539 C43.80308594 539.51433594 44.60617187 540.02867187 45.43359375 540.55859375 C55.96802212 546.58497551 68.26069966 548.45875471 80 551 C80 551.33 80 551.66 80 552 C30.84106833 563.21626903 -17.97814642 566.92312077 -67 553 C-67.80663086 552.77634766 -68.61326172 552.55269531 -69.44433594 552.32226562 C-71.82005183 551.66239707 -74.19213022 550.99130498 -76.5625 550.3125 C-77.27172607 550.11019775 -77.98095215 549.90789551 -78.71166992 549.69946289 C-81.87550489 548.76268058 -84.22880771 547.84746153 -87 546 C-90.92850894 545.47619881 -92.79726943 545.89863471 -96.375 547.6875 C-99.15887634 549.72909204 -99.15887634 549.72909204 -99.75 552.5 C-98.67104309 556.09652305 -96.14394397 557.27417544 -93 559 C-90.25303319 560.21728333 -87.4561127 561.24656765 -84.625 562.25 C-83.88894531 562.518125 -83.15289062 562.78625 -82.39453125 563.0625 C-80.59892525 563.71544764 -78.79981195 564.35873683 -77 565 C-78.61995764 567.55234484 -80.24227964 570.1031462 -81.8671875 572.65234375 C-83.33418127 574.95493287 -84.79751642 577.25958891 -86.2578125 579.56640625 C-88.47671002 583.06327937 -90.7325796 586.53438313 -93 590 C-93.54785156 590.85722656 -94.09570312 591.71445312 -94.66015625 592.59765625 C-95.14355469 593.30792969 -95.62695312 594.01820313 -96.125 594.75 C-96.51945313 595.34296875 -96.91390625 595.9359375 -97.3203125 596.546875 C-102.81442509 601.29992124 -111.32019808 600.27029413 -118.08569336 600.22705078 C-119.88676041 600.22748886 -119.88676041 600.22748886 -121.72421265 600.22793579 C-124.99855634 600.22678547 -128.27272661 600.21679084 -131.54703593 600.20278788 C-134.97564988 600.19024133 -138.40426764 600.18910693 -141.832901 600.18673706 C-148.31736405 600.18053378 -154.80175924 600.16413865 -161.28619248 600.14403808 C-168.67193627 600.12164312 -176.05768339 600.11067662 -183.44345272 600.10064721 C-198.62900621 600.07977133 -213.8144963 600.04461788 -229 600 C-229.00423194 599.36097874 -229.00846388 598.72195747 -229.01282406 598.06357193 C-229.11701635 582.37308209 -229.22576887 566.68263106 -229.33933926 550.99220657 C-229.39416015 543.40383449 -229.44754628 535.81545783 -229.49731445 528.22705078 C-229.54079517 521.59791992 -229.58721231 514.96881657 -229.63687855 508.33972907 C-229.6629784 504.84340103 -229.68779714 501.34707662 -229.70907402 497.85071564 C-229.83674101 477.09990915 -230.19124201 456.35643378 -231.40636063 435.63675976 C-232.72744363 412.47192984 -232.72744363 412.47192984 -228.60546875 406.81640625 C-225.79205863 403.93082204 -222.492857 401.98976564 -219 400 C-194.46001828 379.06260627 -185.4206761 342.21913038 -176.875 312.375 C-164.91881783 270.9380621 -142.82516381 233.51912303 -115.66015625 200.36474609 C-108.91211402 192.12856853 -102.60646838 183.7365416 -96.65625 174.90625 C-94.54509398 171.7765538 -92.35991493 168.71182351 -90.13330078 165.66357422 C-84.58458038 158.05211647 -79.64352678 150.19260638 -75 142 C-74.60312988 141.30874023 -74.20625977 140.61748047 -73.79736328 139.90527344 C-65.9987995 126.20133153 -60.31366335 111.82333712 -55 97 C-54.72502686 96.24460937 -54.45005371 95.48921875 -54.16674805 94.7109375 C-51.82194644 88.02160508 -50.25187417 81.15685121 -48.6875 74.25 C-48.5382608 73.59280975 -48.38902161 72.93561951 -48.23526001 72.2585144 C-45.64385507 60.75918716 -43.55712848 49.19937417 -41.6875 37.5625 C-41.56466644 36.79997925 -41.44183289 36.0374585 -41.3152771 35.25183105 C-40.95911591 33.02410191 -40.60849452 30.79561487 -40.26171875 28.56640625 C-40.15101547 27.85512573 -40.04031219 27.14384521 -39.92625427 26.41101074 C-39.37440874 22.77418583 -38.8913777 19.14153002 -38.50341797 15.48339844 C-38.42364212 14.75442856 -38.34386627 14.02545868 -38.26167297 13.2743988 C-38.04863095 11.27122975 -37.85389431 9.26613801 -37.66040039 7.26098633 C-36.83467785 3.18365695 -35.41702064 1.27967944 -32.046875 -1.0546875 C-21.54075282 -5.90675156 -10.20841122 -5.36965464 0 0 Z " fill="#FEB37F" transform="translate(513,130)"/>
<path d="M0 0 C17.2230499 11.6407482 23.90568146 27.94314035 27.97290039 47.63427734 C34.74264013 84.64331339 28.33754641 123.307656 17.88305664 158.95849609 C17.32031241 160.90894648 16.75781929 162.85946933 16.19555664 164.81005859 C15.03589795 168.81162904 13.86530314 172.80981557 12.68774414 176.80615234 C10.78233845 183.2851578 8.91284394 189.77376912 7.07055664 196.27099609 C6.78059814 197.2782373 6.49063965 198.28547852 6.19189453 199.32324219 C4.359597 205.81755698 2.96922472 212.29889241 1.88305664 218.95849609 C2.8949707 218.51634766 3.90688477 218.07419922 4.94946289 217.61865234 C10.7171896 215.46508107 16.72527249 214.62257147 22.78515625 213.70581055 C24.75927675 213.40532369 26.73042899 213.0855337 28.70141602 212.76513672 C50.55300181 209.30942445 72.48336428 208.60999429 94.57055664 208.70849609 C95.7913089 208.71126556 97.01206116 208.71403503 98.26980591 208.71688843 C178.3223285 208.92960086 178.3223285 208.92960086 204.60180664 233.58740234 C216.96344023 246.43588109 222.32831309 262.24451932 222.3190918 279.73730469 C222.06012685 292.46200085 218.11212106 307.24189012 209.20336914 316.75146484 C208.76766602 317.14978516 208.33196289 317.54810547 207.88305664 317.95849609 C209.39071597 321.05278739 211.05730636 324.02926179 212.75805664 327.02099609 C220.56607538 341.38013299 225.15086812 359.73216275 221.39819336 376.06933594 C218.25732016 386.45298766 213.09637978 396.72273192 203.63305664 402.45849609 C202.05485624 403.30150997 200.47213704 404.13617477 198.88305664 404.95849609 C197.89305664 405.61849609 196.90305664 406.27849609 195.88305664 406.95849609 C196.58430664 407.53599609 197.28555664 408.11349609 198.00805664 408.70849609 C205.63398357 416.33442303 208.84686593 427.48598278 209.25805664 437.95849609 C209.01889063 452.63303922 204.45911206 465.83385624 194.47680664 476.61474609 C190.40795401 480.29142016 185.84057258 482.6789654 180.88305664 484.95849609 C181.14860352 485.46638672 181.41415039 485.97427734 181.68774414 486.49755859 C182.21754883 487.53009766 182.21754883 487.53009766 182.75805664 488.58349609 C183.10610352 489.25638672 183.45415039 489.92927734 183.81274414 490.62255859 C188.40080946 500.63592743 188.4544896 512.88704779 186.07836914 523.57958984 C179.4188498 540.87137627 165.62794339 551.75423274 149.19393921 559.05218506 C142.27859281 561.76433272 134.85387201 562.85523672 127.57055664 564.14599609 C124.28083487 564.75426464 120.99372964 565.37580326 117.70727539 566.00146484 C116.89600189 566.15423889 116.08472839 566.30701294 115.24887085 566.4644165 C107.84160587 567.89261796 100.59383878 569.7975272 93.31591797 571.76928711 C82.06795674 574.81423028 70.65572544 577.18543217 59.23577881 579.48406982 C57.64851662 579.80414114 56.0618144 580.12700035 54.47564697 580.45245361 C16.09187742 588.30972927 -25.84075494 592.31601586 -64.2277832 582.13330078 C-69.67308609 580.66588431 -69.67308609 580.66588431 -74.92456055 581.91577148 C-76.65631642 583.80594834 -77.84143504 585.73107657 -79.11694336 587.95849609 C-79.73327637 588.95510254 -80.34960938 589.95170898 -80.98461914 590.97851562 C-83.1038252 594.46357862 -85.15042312 597.98308397 -87.17944336 601.52099609 C-98.41596785 621.07103905 -98.41596785 621.07103905 -104.49194336 622.77099609 C-105.20092773 622.98369141 -105.90991211 623.19638672 -106.64038086 623.41552734 C-114.03257153 625.03621268 -121.20212338 625.11831306 -128.75 625.13549805 C-130.0093486 625.14206924 -131.2686972 625.14864044 -132.56620789 625.15541077 C-136.7198258 625.17631452 -140.87344355 625.18679357 -145.02709961 625.19677734 C-146.4617712 625.20082867 -147.8964426 625.2049457 -149.33111382 625.20912743 C-156.06723489 625.22814131 -162.8033452 625.2423857 -169.5394879 625.2507394 C-177.30198539 625.26052723 -185.06419892 625.28690263 -192.82659632 625.32724029 C-198.8386735 625.35740665 -204.85066918 625.37220835 -210.86282057 625.37552041 C-214.44902575 625.37786832 -218.03492619 625.38679624 -221.62104988 625.41198158 C-225.61864278 625.43960908 -229.61559895 625.4354297 -233.61328125 625.4284668 C-234.79630829 625.44127686 -235.97933533 625.45408691 -237.19821167 625.46728516 C-243.40754576 625.42780018 -247.4980083 625.32857737 -252.11694336 620.95849609 C-253.05863727 618.13341436 -253.24964379 616.37909831 -253.26843262 613.45204163 C-253.27677628 612.52704865 -253.28511993 611.60205566 -253.29371643 610.64903259 C-253.29790085 609.63490799 -253.30208527 608.62078339 -253.30639648 607.57592773 C-253.31468979 606.50499878 -253.32298309 605.43406982 -253.33152771 604.33068848 C-253.34896516 601.99322571 -253.36412176 599.65574511 -253.37730408 597.31825447 C-253.39845939 593.57153664 -253.42549713 589.82490066 -253.45397949 586.07823181 C-253.50872927 578.73363944 -253.55688621 571.38901713 -253.60391998 564.04437256 C-253.67536648 552.9440901 -253.7523365 541.84385169 -253.83569336 530.74365234 C-253.84992812 528.82684536 -253.84992812 528.82684536 -253.86445045 526.871315 C-254.02615778 505.77505992 -254.41441685 484.69109513 -254.95164585 463.60142422 C-255.17768367 454.69478638 -255.36549721 445.78848958 -255.41210938 436.87890625 C-255.42417978 435.28051297 -255.44537805 433.68217349 -255.47363281 432.08398438 C-255.51591446 429.6382625 -255.5323467 427.19359744 -255.54272461 424.74755859 C-255.5602327 424.04160553 -255.57774078 423.33565247 -255.59577942 422.60830688 C-255.57353169 417.60176324 -254.23637446 414.8188543 -251.11694336 410.95849609 C-248.41772461 408.75537109 -248.41772461 408.75537109 -245.42944336 406.70849609 C-222.16156502 389.74527981 -213.35886391 361.12794064 -205.29272461 334.73974609 C-203.96116067 330.45750724 -202.55494571 326.2059643 -201.11694336 321.95849609 C-200.67692993 320.65259521 -200.67692993 320.65259521 -200.22802734 319.3203125 C-185.67339834 276.534561 -163.91282143 237.49274662 -136.11694336 201.95849609 C-130.24886442 194.4239805 -124.5155546 186.8402468 -119.11694336 178.95849609 C-118.26462838 177.73024994 -117.41171728 176.50241733 -116.55834961 175.27490234 C-110.94423806 167.18272925 -105.37637991 159.063653 -100.19213867 150.6875 C-99.14960573 149.01101991 -98.0828435 147.34968274 -97.01538086 145.68896484 C-91.29316886 136.42948063 -87.30049096 126.48380939 -83.30444336 116.39599609 C-82.88636414 115.3487587 -82.88636414 115.3487587 -82.45983887 114.28036499 C-78.6325238 104.64182411 -75.55941833 95.04168792 -73.11694336 84.95849609 C-72.91883057 84.15887451 -72.72071777 83.35925293 -72.51660156 82.53540039 C-69.90091848 71.64607039 -68.21797979 60.58671813 -66.55444336 49.52099609 C-66.44641388 48.80421692 -66.3383844 48.08743774 -66.2270813 47.34893799 C-65.19434217 40.4750745 -64.1841573 33.60057887 -63.30834961 26.70458984 C-61.80070209 15.03861823 -59.98228348 6.09950118 -50.37866211 -1.53369141 C-35.77539531 -11.26920261 -14.33559403 -9.09982603 0 0 Z M-47.11694336 14.95849609 C-47.92449124 17.33971196 -47.92449124 17.33971196 -48.17163086 19.98974609 C-48.30819092 21.00987793 -48.44475098 22.03000977 -48.58544922 23.08105469 C-48.71959229 24.19561035 -48.85373535 25.31016602 -48.99194336 26.45849609 C-49.32078027 28.89903279 -49.65299444 31.33911609 -49.98803711 33.77880859 C-50.07539627 34.42685455 -50.16275543 35.07490051 -50.25276184 35.74258423 C-56.74717665 83.59216742 -67.77770662 129.64578398 -95.70874023 169.91748047 C-97.25217894 172.15450328 -98.77157618 174.40675456 -100.28881836 176.66162109 C-107.88196417 187.91462733 -115.78782317 198.73190393 -124.42944336 209.20849609 C-141.03631169 229.4344359 -155.11312377 250.68861878 -167.11694336 273.95849609 C-167.52396484 274.74514648 -167.93098633 275.53179687 -168.3503418 276.34228516 C-178.09969325 295.42420942 -184.94820549 315.77821412 -191.26391602 336.20898438 C-212.37960627 404.26991844 -212.37960627 404.26991844 -239.28417969 420.24536133 C-241.39827541 421.87291908 -241.39827541 421.87291908 -241.58691406 424.79223633 C-241.57233154 425.93893799 -241.55774902 427.08563965 -241.54272461 428.26708984 C-241.5343457 429.57484375 -241.5259668 430.88259766 -241.51733398 432.22998047 C-241.48827809 433.61865741 -241.45898252 435.00732935 -241.42944336 436.39599609 C-241.41494141 438.3131543 -241.41494141 438.3131543 -241.40014648 440.26904297 C-241.33928604 446.82820924 -241.14793435 453.38151892 -240.88604736 459.93562317 C-240.20882939 476.90718012 -239.91697443 493.86253234 -239.81362033 510.84637928 C-239.7911906 514.38700773 -239.76409086 517.92760099 -239.73756409 521.46820068 C-239.68838345 528.12190888 -239.64317997 534.77563739 -239.59954172 541.42938399 C-239.54951553 549.02604272 -239.49484799 556.62266607 -239.43986213 564.21929026 C-239.32719346 579.79899256 -239.22012089 595.37872786 -239.11694336 610.95849609 C-223.21792544 611.02867067 -207.31894954 611.08152556 -191.41981506 611.11393261 C-184.03706679 611.12938173 -176.65441491 611.15043368 -169.27172852 611.18481445 C-162.83471993 611.21477689 -156.39778119 611.2340853 -149.9607048 611.24076158 C-146.55434266 611.2446623 -143.14818026 611.2537883 -139.74188232 611.27568626 C-135.93318884 611.29748929 -132.12490804 611.30046172 -128.31616211 611.29907227 C-127.19478348 611.30985809 -126.07340485 611.32064392 -124.91804504 611.33175659 C-118.06861499 611.30475022 -111.33550609 611.10653254 -106.15600586 606.04052734 C-105.68936523 605.29158203 -105.22272461 604.54263672 -104.74194336 603.77099609 C-103.90083008 602.45808594 -103.90083008 602.45808594 -103.04272461 601.11865234 C-102.4072168 600.07580078 -101.77170898 599.03294922 -101.11694336 597.95849609 C-100.27891986 596.62271698 -99.43895251 595.28815611 -98.59741211 593.95458984 C-96.86822064 591.20854282 -95.15312231 588.45451855 -93.44897461 585.69287109 C-91.40810598 582.39836229 -89.28609925 579.16984412 -87.11694336 575.95849609 C-87.7123291 575.72662598 -88.30771484 575.49475586 -88.92114258 575.25585938 C-91.61355962 574.20381358 -94.30275384 573.14376318 -96.99194336 572.08349609 C-97.9290918 571.71869141 -98.86624023 571.35388672 -99.83178711 570.97802734 C-101.17563477 570.44628906 -101.17563477 570.44628906 -102.54663086 569.90380859 C-103.37404785 569.57912598 -104.20146484 569.25444336 -105.05395508 568.91992188 C-107.11694336 567.95849609 -107.11694336 567.95849609 -109.11694336 565.95849609 C-109.61694336 563.58349609 -109.61694336 563.58349609 -109.11694336 560.95849609 C-106.24374185 558.42734238 -104.08595148 557.1307642 -100.30444336 556.45849609 C-97.47544381 556.90226073 -95.88688625 557.4425146 -93.36694336 558.64599609 C-82.16638489 563.91248385 -69.54910772 566.19597005 -57.49194336 568.64599609 C-56.50452148 568.84829834 -55.51709961 569.05060059 -54.49975586 569.2590332 C-40.26134157 572.05569818 -26.41453214 573.3125222 -11.92944336 573.20849609 C-10.78715775 573.20434189 -10.78715775 573.20434189 -9.62179565 573.20010376 C2.64123426 573.14801886 14.71944808 572.60092542 26.88305664 570.95849609 C27.68598145 570.85666016 28.48890625 570.75482422 29.31616211 570.64990234 C43.01199001 568.89492974 56.43145212 566.04313867 69.88305664 562.95849609 C69.88305664 562.62849609 69.88305664 562.29849609 69.88305664 561.95849609 C68.85704346 561.74084595 68.85704346 561.74084595 67.81030273 561.51879883 C49.36686168 557.53827813 30.12482008 553.31315856 17.94555664 537.45849609 C13.92159765 530.99709566 12.34247208 524.84894801 12.44555664 517.27099609 C12.45240479 516.49006592 12.45925293 515.70913574 12.46630859 514.90454102 C12.74822654 504.59605818 15.42996316 496.02486294 21.88305664 487.95849609 C21.88305664 487.29849609 21.88305664 486.63849609 21.88305664 485.95849609 C20.06000231 484.6142781 20.06000231 484.6142781 17.75805664 483.27099609 C9.75552489 478.09510428 3.83890717 470.77086085 1.63305664 461.39599609 C-0.83564779 446.53888397 1.03959222 431.71966306 9.42993164 418.98583984 C14.23440799 412.28282042 14.23440799 412.28282042 16.88305664 410.95849609 C16.88305664 410.29849609 16.88305664 409.63849609 16.88305664 408.95849609 C15.71002514 407.9373037 14.49276812 406.96668335 13.25805664 406.02099609 C5.91136055 399.79653067 2.381903 391.79310415 1.57446289 382.34912109 C0.90464039 366.67299116 5.23049344 352.77354139 15.88305664 340.95849609 C17.81685188 339.09435026 19.70358606 337.53861227 21.88305664 335.95849609 C21.16118164 335.23662109 20.43930664 334.51474609 19.69555664 333.77099609 C18.76743164 332.84287109 17.83930664 331.91474609 16.88305664 330.95849609 C15.64555664 329.75193359 15.64555664 329.75193359 14.38305664 328.52099609 C10.33578835 324.3725461 6.70721648 320.59680833 4.88305664 314.95849609 C4.55305664 314.95849609 4.22305664 314.95849609 3.88305664 314.95849609 C3.6951355 315.92335938 3.6951355 315.92335938 3.50341797 316.90771484 C0.96072091 329.84145192 -1.68705717 342.52095941 -6.11694336 354.95849609 C-6.4044043 355.77946777 -6.69186523 356.60043945 -6.98803711 357.44628906 C-15.24234657 380.80923861 -27.24224174 398.67947782 -44.83544922 416.01318359 C-46.58692556 417.7405308 -48.32412948 419.48140539 -50.06030273 421.22412109 C-51.18125044 422.33950606 -52.30296566 423.45412035 -53.42553711 424.56787109 C-53.93910263 425.08234802 -54.45266815 425.59682495 -54.98179626 426.12689209 C-58.59546876 429.66950364 -61.07902773 431.83372575 -66.17944336 432.14599609 C-69.11694336 431.95849609 -69.11694336 431.95849609 -72.11694336 430.95849609 C-73.03286472 424.24918598 -73.03286472 424.24918598 -70.73266602 421.0078125 C-68.70861541 418.98797318 -66.60877824 417.12226403 -64.42944336 415.27099609 C-62.86036546 413.8662744 -61.29267132 412.46000562 -59.72631836 411.05224609 C-58.94450195 410.36130859 -58.16268555 409.67037109 -57.35717773 408.95849609 C-38.85649963 392.44176167 -26.4823191 374.63046511 -18.79614258 351.0078125 C-18.15644034 349.07766851 -17.46827392 347.16378094 -16.77709961 345.25146484 C-14.25835354 338.18519547 -12.3695028 331.17664949 -10.86694336 323.83349609 C-10.70371582 323.04676514 -10.54048828 322.26003418 -10.37231445 321.44946289 C-8.02751193 309.3096786 -7.88341993 296.97029382 -7.86694336 284.64599609 C-7.86493927 283.91047516 -7.86293518 283.17495422 -7.86087036 282.41714478 C-7.85153061 268.32497811 -8.69635657 254.27852668 -11.65136719 240.45922852 C-15.4277571 220.1752422 -8.76755228 200.20299062 -3.02661133 181.02734375 C-1.34862227 175.366495 0.24610896 169.68172174 1.84130859 163.99707031 C2.92629971 160.1656348 4.06541748 156.37832794 5.36743164 152.61474609 C16.99195195 118.17991708 24.28516536 67.54841703 8.88305664 32.95849609 C3.11217247 21.66194946 -4.31254551 12.81678259 -16.36694336 8.08349609 C-27.42221009 4.85582207 -39.29660576 5.9800621 -47.11694336 14.95849609 Z " fill="#7B492F" transform="translate(523.116943359375,119.04150390625)"/>
<path d="M0 0 C94.33524077 -1.38059269 94.33524077 -1.38059269 116.00054932 19.02996826 C126.13587534 28.90730417 131.1150149 39.88010483 131.38043213 54.01947021 C131.3788208 54.80668457 131.37720947 55.59389893 131.37554932 56.40496826 C131.37393799 57.23278809 131.37232666 58.06060791 131.3706665 58.91351318 C131.185709 68.18042793 128.65357409 75.61037325 123.00054932 83.02996826 C122.40113525 83.83692139 121.80172119 84.64387451 121.18414307 85.47528076 C103.49220404 106.17389994 62.21312059 108.69573854 36.75497437 110.83764648 C29.52973329 111.34213333 22.29388869 111.36310003 15.05401611 111.34564209 C12.3033769 111.34245706 9.55379341 111.36616978 6.80328369 111.39129639 C-11.09955124 111.45574863 -37.80338494 110.23716381 -51.73382568 97.43621826 C-57.77583655 90.87632075 -58.46403891 84.28636935 -58.30804443 75.56903076 C-57.62978554 67.79051742 -54.5260266 61.51043615 -49.17523193 55.85028076 C-42.2310969 50.04064535 -33.88264241 47.11904494 -24.99945068 46.02996826 C-23.71425537 45.87141357 -22.42906006 45.71285889 -21.10491943 45.54949951 C-14.58533435 44.83896739 -8.04313357 44.44704881 -1.49945068 44.02996826 C-0.48167038 43.96360672 -0.48167038 43.96360672 0.55667114 43.89590454 C8.69836909 43.36627316 16.83387742 42.93648032 24.98980713 42.68670654 C34.1414056 42.40608079 43.16722546 41.838633 52.25054932 40.65496826 C53.16199707 40.5409668 54.07344482 40.42696533 55.01251221 40.30950928 C59.61599923 39.65387042 63.23491838 38.9671604 67.00054932 36.02996826 C68.50717029 33.01672632 68.17825304 30.34710449 68.00054932 27.02996826 C66.21364218 24.78965297 66.21364218 24.78965297 63.81304932 24.94793701 C58.62316186 25.44530123 53.53133438 26.09778415 48.41119385 27.09197998 C33.8473001 29.83393717 19.06704571 30.06181521 4.29547119 30.68670654 C-30.90765892 31.18023341 -30.90765892 31.18023341 -60.18695068 48.27996826 C-63.58738631 52.42570484 -65.79111377 57.17358134 -67.99945068 62.02996826 C-68.32945068 62.02996826 -68.65945068 62.02996826 -68.99945068 62.02996826 C-69.07461914 61.16532959 -69.1497876 60.30069092 -69.22723389 59.40985107 C-70.68055819 42.86634091 -72.2225831 26.41545644 -74.99945068 10.02996826 C-50.46394022 3.74805373 -25.32127479 0.37952153 0 0 Z " fill="#FEB37F" transform="translate(598.9994506835938,341.97003173828125)"/>
<path d="M0 0 C5.78316085 4.19425201 7.91550283 14.35174024 9.42578125 21.03515625 C11.36169485 33.87175258 10.78202197 46.42217386 3.33984375 57.4765625 C-0.0859791 61.89363181 -3.7887821 63.71599731 -8.94140625 65.65234375 C-9.78727295 65.98459961 -10.63313965 66.31685547 -11.50463867 66.65917969 C-28.7926685 73.27079061 -46.78835179 75.30447974 -65.06640625 77.40234375 C-65.7849025 77.49002518 -66.50339874 77.5777066 -67.2436676 77.66804504 C-74.42769766 78.48025365 -81.57185711 78.597319 -88.796875 78.640625 C-90.10433182 78.64869675 -91.41178864 78.65676849 -92.75886536 78.66508484 C-95.52145242 78.68001745 -98.2840148 78.68989528 -101.04663086 78.69750977 C-103.82843431 78.70629483 -106.60972601 78.72700744 -109.39135742 78.7590332 C-161.38612256 79.34352706 -161.38612256 79.34352706 -175.6640625 65.97265625 C-181.78321809 59.12056559 -181.54860507 50.06955843 -181.06640625 41.40234375 C-179.85101651 32.70999942 -175.68695313 24.23068844 -169.06640625 18.40234375 C-163.13818498 14.46345847 -158.17020944 12.6273834 -151.06640625 13.40234375 C-150.73640625 13.73234375 -150.40640625 14.06234375 -150.06640625 14.40234375 C-136.03257331 17.31775566 -122.1603298 17.84779094 -107.86669922 17.73852539 C-104.56973778 17.71486766 -101.27358801 17.7180026 -97.9765625 17.72460938 C-79.55415745 17.70283755 -61.85400405 16.56103156 -43.94140625 12.08984375 C-42.66241455 11.78006592 -41.38342285 11.47028809 -40.06567383 11.15112305 C-36.394196 10.2537332 -32.72923988 9.33432274 -29.06640625 8.40234375 C-28.0913916 8.15516602 -27.11637695 7.90798828 -26.11181641 7.65332031 C-15.67066045 4.98445644 -15.67066045 4.98445644 -5.69140625 0.96484375 C-2.06640625 -0.59765625 -2.06640625 -0.59765625 0 0 Z " fill="#FEB37F" transform="translate(720.06640625,448.59765625)"/>
<path d="M0 0 C6.7086566 5.82883278 9.44472116 13.48885755 10.3125 22.1015625 C10.70357303 32.3427875 8.46458763 42.2266761 1.81640625 50.2578125 C-7.95817771 59.63300486 -21.80588909 62.46060673 -34.6875 64.6875 C-36.44416992 65.00557617 -36.44416992 65.00557617 -38.23632812 65.33007812 C-48.68807064 67.19877659 -58.59447352 68.17354618 -69.2109375 68.23828125 C-70.49191315 68.246353 -71.77288879 68.25442474 -73.09268188 68.26274109 C-75.80755471 68.27770908 -78.52240212 68.28756695 -81.23730469 68.29516602 C-83.96377703 68.30391268 -86.68972068 68.324522 -89.41601562 68.35668945 C-148.00606669 69.03249577 -148.00606669 69.03249577 -161.94921875 56.20703125 C-168.31495299 49.30748282 -170.50549312 43.28459821 -170.21484375 33.9140625 C-169.42769492 23.237462 -164.21427233 13.12444348 -156.88671875 5.3359375 C-154.6434216 3.74751591 -153.70819527 3.60062374 -151 3.875 C-149.32958754 4.23294553 -147.66336127 4.6106004 -146 5 C-143.58641203 5.35493941 -141.16930474 5.68638642 -138.75 6 C-137.58984375 6.165 -136.4296875 6.33 -135.234375 6.5 C-121.14651619 8.24334241 -107.0520479 8.28114225 -92.875 8.3125 C-91.70236603 8.31545074 -90.52973206 8.31840149 -89.32156372 8.32144165 C-69.25582511 8.33289226 -49.82312432 6.99040325 -30 4 C-27.84537829 3.69818283 -25.69045 3.39854252 -23.53515625 3.1015625 C-0.70469609 -0.11744935 -0.70469609 -0.11744935 0 0 Z " fill="#FEB37F" transform="translate(707,533)"/>
<path d="M0 0 C3.5392864 4.81736205 4.72085822 9.02636582 5 15 C5.09474609 16.04994141 5.09474609 16.04994141 5.19140625 17.12109375 C5.70725692 26.45632687 2.04797147 34.86281524 -3.90234375 41.9375 C-18.92562633 56.70899572 -41.05344234 59.5390473 -61.10229492 59.39111328 C-63.66705396 59.37512744 -66.23021233 59.39099646 -68.79492188 59.41015625 C-83.6241924 59.42950866 -98.34891367 57.79896987 -112.625 53.625 C-113.73633301 53.30692383 -113.73633301 53.30692383 -114.87011719 52.98242188 C-120.36398603 51.34079866 -125.28446936 49.31560748 -130 46 C-131.0725 45.278125 -132.145 44.55625 -133.25 43.8125 C-139.15445039 37.77385755 -141.31802914 31.94169864 -141.625 23.5 C-141.32808665 15.10159386 -138.85825589 9.76389374 -133.8671875 3.19140625 C-130.34975202 0.50301211 -128.91671175 0.63192321 -124.68554688 1.17382812 C-123.51088867 1.3662207 -123.51088867 1.3662207 -122.3125 1.5625 C-120.78788274 1.77302323 -119.2631358 1.98260874 -117.73828125 2.19140625 C-116.86510254 2.31588135 -115.99192383 2.44035645 -115.09228516 2.56860352 C-100.01884446 4.67145917 -85.21976939 5.43417182 -70 5.4375 C-68.37138535 5.44159378 -68.37138535 5.44159378 -66.70986938 5.44577026 C-46.49020913 5.45337715 -27.06297584 3.59663013 -7.2746582 -0.57446289 C-4.34791126 -1.12199106 -2.77948623 -1.14030204 0 0 Z " fill="#FEB37F" transform="translate(691,610)"/>
<path d="M0 0 C45.92990654 0 45.92990654 0 57.68359375 11.671875 C64.56033796 19.69760141 66.67920623 30.79823266 66.25390625 41.12890625 C65.25635521 52.40890649 62.44685406 62.92040046 54 71 C37.35950548 82.21952304 20.43969545 79 0 79 C0 52.93 0 26.86 0 0 Z " fill="#FEFDFC" transform="translate(696,809)"/>
<path d="M0 0 C5.69302986 4.74225909 9.20100063 10.10330773 11.5625 17.125 C11.5625 18.445 11.5625 19.765 11.5625 21.125 C6.2825 21.125 1.0025 21.125 -4.4375 21.125 C-7.4375 15.125 -7.4375 15.125 -8.4375 12.125 C-14.66716988 8.5292523 -22.46855436 8.20548634 -29.4375 9.125 C-32.11134953 10.19732507 -34.05109958 11.46489536 -36.4375 13.125 C-37.0975 13.125 -37.7575 13.125 -38.4375 13.125 C-43.9505681 23.85313252 -46.4401651 33.67728045 -43.125 45.5625 C-41.18522142 51.14941988 -39.37988685 55.50451971 -33.859375 58.39453125 C-27.68278824 60.25746951 -20.17403496 60.30622718 -14.015625 58.359375 C-7.99825751 55.11925405 -6.55016427 51.46299281 -4.4375 45.125 C-11.0375 45.125 -17.6375 45.125 -24.4375 45.125 C-24.4375 40.505 -24.4375 35.885 -24.4375 31.125 C-12.5575 31.125 -0.6775 31.125 11.5625 31.125 C11.5625 45.315 11.5625 59.505 11.5625 74.125 C6.9425 74.125 2.3225 74.125 -2.4375 74.125 C-2.9325 70.165 -2.9325 70.165 -3.4375 66.125 C-4.200625 66.8675 -4.96375 67.61 -5.75 68.375 C-12.83386597 74.18443214 -21.2491332 75.84067267 -30.234375 75.5 C-40.87788036 74.25393108 -48.21552694 69.39136767 -55 61.25 C-62.54171 50.47612858 -62.63858662 36.36579258 -61.00390625 23.7890625 C-58.70661341 12.68785861 -52.70308151 5.04531085 -43.38671875 -1.24609375 C-30.65973122 -8.27543653 -12.0580746 -8.6319796 0 0 Z " fill="#FEFCFC" transform="translate(324.4375,813.875)"/>
<path d="M0 0 C6.79028886 4.99571252 10.35541419 10.41887375 12.1875 18.609375 C12.1875 22.569375 12.1875 26.529375 12.1875 30.609375 C-0.6825 30.609375 -13.5525 30.609375 -26.8125 30.609375 C-23.93423199 39.24798017 -23.93423199 39.24798017 -19.8125 41.609375 C-17.47198669 42.00121067 -17.47198669 42.00121067 -14.9375 41.984375 C-14.09445312 42.01273438 -13.25140625 42.04109375 -12.3828125 42.0703125 C-9.6374909 41.80280785 -9.6374909 41.80280785 -7.48046875 39.6015625 C-4.00283659 37.00479471 -1.15223581 37.15275657 3 37.359375 C3.69287109 37.37742187 4.38574219 37.39546875 5.09960938 37.4140625 C6.79617664 37.46086436 8.49202476 37.53259876 10.1875 37.609375 C9.38116759 43.47825015 6.46915204 46.6886285 2.1875 50.609375 C-5.19998952 55.4153626 -12.69085792 56.64068719 -21.33984375 55.18359375 C-29.55030411 53.12149046 -35.02692923 48.60702499 -39.6875 41.609375 C-44.30081737 33.51665328 -44.99812154 25.46122554 -42.6875 16.546875 C-39.70631069 7.64471247 -34.06936576 1.94798265 -25.8125 -2.390625 C-17.48495931 -5.24228284 -7.53168346 -4.40999887 0 0 Z " fill="#FEFCFB" transform="translate(650.8125,833.390625)"/>
<path d="M0 0 C1.4540625 0.86625 1.4540625 0.86625 2.9375 1.75 C3.948125 2.265625 4.95875 2.78125 6 3.3125 C12.28353325 8.52649568 15.67380297 15.78870869 16.9375 23.75 C16.9375 26.72 16.9375 29.69 16.9375 32.75 C3.7375 32.75 -9.4625 32.75 -23.0625 32.75 C-20.18423199 41.38860517 -20.18423199 41.38860517 -16.0625 43.75 C-13.72198669 44.14183567 -13.72198669 44.14183567 -11.1875 44.125 C-10.34445312 44.15335938 -9.50140625 44.18171875 -8.6328125 44.2109375 C-5.88946136 43.94632343 -5.88946136 43.94632343 -3.76171875 41.7421875 C-0.04167498 38.99656909 2.76409794 39.29153985 7.25 39.5 C7.99056641 39.51804687 8.73113281 39.53609375 9.49414062 39.5546875 C11.3091571 39.60152663 13.12350166 39.67326211 14.9375 39.75 C12.63277754 47.03492707 9.55782126 50.84148313 3.00390625 54.6796875 C-3.79333102 58.20037372 -11.28939789 59.00382981 -18.6796875 57.0625 C-27.93948323 53.68506691 -32.9391864 48.99889844 -37.1171875 40.1171875 C-40.23974595 32.29788824 -40.34192185 23.196377 -37.375 15.3125 C-33.95354207 7.94504007 -29.24132861 3.51963594 -22.0625 -0.25 C-15.83585377 -2.32554874 -6.18691304 -2.56973363 0 0 Z " fill="#FEFCFB" transform="translate(385.0625,831.25)"/>
<path d="M0 0 C4.62 0 9.24 0 14 0 C14.01458252 1.12494873 14.02916504 2.24989746 14.04418945 3.40893555 C14.10227754 7.59317387 14.17950964 11.77687997 14.26245117 15.96069336 C14.29565114 17.76952458 14.32369841 19.57845818 14.34643555 21.38745117 C14.38007258 23.99181633 14.43239195 26.5952476 14.48828125 29.19921875 C14.49467117 30.00461594 14.5010611 30.81001312 14.50764465 31.63981628 C14.62691048 36.22152342 15.04848405 39.27136461 18 43 C21.1988837 44.59944185 24.52078958 44.36060914 28 44 C30.92902303 43.04331967 30.92902303 43.04331967 33 41 C35.00511001 36.28662055 35.33458574 31.81224341 35.4140625 26.7578125 C35.43342865 25.98944061 35.4527948 25.22106873 35.4727478 24.42941284 C35.53214117 21.99471862 35.57876628 19.55997607 35.625 17.125 C35.66321693 15.46612614 35.70227079 13.80727133 35.7421875 12.1484375 C35.83780907 8.09911458 35.92198701 4.04969887 36 0 C40.62 0 45.24 0 50 0 C50 18.81 50 37.62 50 57 C45.38 57 40.76 57 36 57 C35.505 54.03 35.505 54.03 35 51 C34.505 51.598125 34.01 52.19625 33.5 52.8125 C28.53653518 57.15553172 22.7721953 58.60691464 16.234375 58.34765625 C10.86277483 57.51186532 6.64907537 55.04902778 3.0625 51 C0.35814043 47.06638607 -0.12703967 44.20980515 -0.11352539 39.50683594 C-0.11341209 38.18591949 -0.11341209 38.18591949 -0.11329651 36.83831787 C-0.10813522 35.89651672 -0.10297394 34.95471558 -0.09765625 33.984375 C-0.0962413 33.01340881 -0.09482635 32.04244263 -0.09336853 31.04205322 C-0.08777663 27.94467065 -0.07522559 24.84736068 -0.0625 21.75 C-0.05748395 19.64843854 -0.05292123 17.54687596 -0.04882812 15.4453125 C-0.03780985 10.29684708 -0.02055074 5.14843584 0 0 Z " fill="#FEFDFD" transform="translate(506,831)"/>
<path d="M0 0 C4.08652729 2.30331538 7.2017916 4.76005178 9.4375 8.9375 C9.9325 12.4025 9.9325 12.4025 10.4375 15.9375 C5.4875 15.9375 0.5375 15.9375 -4.5625 15.9375 C-5.2225 14.6175 -5.8825 13.2975 -6.5625 11.9375 C-8.40622035 11.16644246 -8.40622035 11.16644246 -10.5 11.0625 C-11.18964844 10.98257813 -11.87929688 10.90265625 -12.58984375 10.8203125 C-14.88832718 10.79044205 -14.88832718 10.79044205 -17.5625 12.9375 C-17.81280977 15.52130177 -17.81280977 15.52130177 -17.5625 17.9375 C-13.2810439 19.98092223 -9.26323542 21.28374056 -4.625 22.3125 C1.89610823 23.88148845 6.87937471 26.13955046 11.4375 31.125 C13.35153236 36.508216 13.13951014 41.79017488 11.375 47.1875 C7.40633426 52.82044493 3.13981021 56.15130975 -3.5625 57.9375 C-11.86197446 58.77425827 -19.44727283 58.61538339 -26.5625 53.9375 C-29.66629159 51.29597524 -32.25833667 48.84998998 -33.5625 44.9375 C-33.58996308 42.93768856 -33.59242862 40.93727606 -33.5625 38.9375 C-31.29328464 38.80260609 -29.0217933 38.70556005 -26.75 38.625 C-24.85314453 38.53798828 -24.85314453 38.53798828 -22.91796875 38.44921875 C-21.81066406 38.61035156 -20.70335937 38.77148438 -19.5625 38.9375 C-17.73828125 41.39453125 -17.73828125 41.39453125 -16.5625 43.9375 C-13.53812661 45.4496867 -10.90008466 45.11013369 -7.5625 44.9375 C-5.20880193 44.05685073 -5.20880193 44.05685073 -3.5625 42.9375 C-3.39562552 40.52104218 -3.39562552 40.52104218 -3.5625 37.9375 C-6.23409414 35.26590586 -9.12647344 34.90962593 -12.6875 34.0625 C-28.04795983 30.16076428 -28.04795983 30.16076428 -32.5625 22.9375 C-34.10443206 19.21116419 -34.11363612 14.90261819 -33.5625 10.9375 C-27.03918849 -1.62591475 -12.80030334 -4.01869989 0 0 Z " fill="#FEFBFA" transform="translate(442.5625,831.0625)"/>
<path d="M0 0 C20.38356164 0 20.38356164 0 27 5 C32.14010973 10.14010973 33.26375296 15.15359538 33.32226562 22.20703125 C33.31904297 23.08746094 33.31582031 23.96789062 33.3125 24.875 C33.32861328 25.74769531 33.34472656 26.62039063 33.36132812 27.51953125 C33.36649045 34.38541715 31.89561792 38.73953717 28.4375 44.6875 C20.23422444 52.47009476 11.26203566 51 0 51 C0 34.17 0 17.34 0 0 Z " fill="#F39360" transform="translate(712,823)"/>
<path d="M0 0 C4.95 0 9.9 0 15 0 C15 5.28 15 10.56 15 16 C18.63 16 22.26 16 26 16 C26 19.96 26 23.92 26 28 C22.37 28 18.74 28 15 28 C15.33 38.89 15.66 49.78 16 61 C19.3 61 22.6 61 26 61 C26 64.96 26 68.92 26 73 C19.44392384 74.31121523 12.25758801 75.52228187 6 72.5 C1.9103903 69.09199192 0.41166957 65.25102854 -0.25643921 59.97485352 C-0.34341355 57.90311657 -0.3386647 55.8542262 -0.29296875 53.78125 C-0.28660149 52.66623108 -0.28660149 52.66623108 -0.28010559 51.52868652 C-0.26349081 49.18540142 -0.22587454 46.84301923 -0.1875 44.5 C-0.17243078 42.89845004 -0.15874632 41.29688642 -0.14648438 39.6953125 C-0.11364426 35.79653417 -0.06198563 31.89841944 0 28 C-2.31 28 -4.62 28 -7 28 C-7 24.04 -7 20.08 -7 16 C-4.69 16 -2.38 16 0 16 C0 10.72 0 5.44 0 0 Z " fill="#FEFEFD" transform="translate(469,815)"/>
<path d="M0 0 C0 4.62 0 9.24 0 14 C-1.546875 14.2475 -3.09375 14.495 -4.6875 14.75 C-9.75258621 15.76731576 -13.13632553 17.21318158 -16.09912109 21.64355469 C-17.3803705 24.99494204 -17.35747932 28.28622531 -17.4140625 31.828125 C-17.43342865 32.57713074 -17.4527948 33.32613647 -17.4727478 34.09783936 C-17.53235716 36.48177836 -17.57885354 38.86576614 -17.625 41.25 C-17.66319701 42.86981231 -17.70224975 44.48960468 -17.7421875 46.109375 C-17.83964904 50.07281082 -17.91936277 54.03604345 -18 58 C-22.95 58 -27.9 58 -33 58 C-33 39.19 -33 20.38 -33 1 C-28.38 1 -23.76 1 -19 1 C-18.67 3.31 -18.34 5.62 -18 8 C-17.2575 7.05125 -16.515 6.1025 -15.75 5.125 C-11.29113055 -0.57244429 -6.80046117 -0.20001356 0 0 Z " fill="#FEFCFC" transform="translate(603,830)"/>
<path d="M0 0 C0.33 0 0.66 0 1 0 C1.33 31.02 1.66 62.04 2 94 C41.6 94 81.2 94 122 94 C122.33 94.66 122.66 95.32 123 96 C82.41 96 41.82 96 0 96 C0 64.32 0 32.64 0 0 Z " fill="#F3AD7A" transform="translate(284,634)"/>
<path d="M0 0 C2.72182248 1.3807166 3.89997868 2.63747602 6 5 C6.33 6.65 6.66 8.3 7 10 C-0.59 10 -8.18 10 -16 10 C-13.12315404 1.36946211 -9.02158369 -1.83919808 0 0 Z " fill="#F28E59" transform="translate(640,842)"/>
<path d="M0 0 C4.42727286 3.16233776 4.90980952 4.54904761 6 10 C-1.59 10 -9.18 10 -17 10 C-13.03206154 0.74147692 -9.91402346 -1.71650568 0 0 Z " fill="#F18F5A" transform="translate(379,842)"/>
<path d="M0 0 C1.87176065 3.74352131 2.29468448 5.14619951 2.3125 9.125 C2.32925781 9.99382813 2.34601562 10.86265625 2.36328125 11.7578125 C2.24339844 12.49773438 2.12351562 13.23765625 2 14 C-1.65662904 16.43775269 -4.49415429 16.34686544 -8.73046875 16.4140625 C-9.48088943 16.43342865 -10.23131012 16.4527948 -11.00447083 16.4727478 C-13.39869867 16.53247459 -15.79297477 16.57890065 -18.1875 16.625 C-19.8118698 16.6631862 -21.43621948 16.70223831 -23.06054688 16.7421875 C-27.04020105 16.83817025 -31.01995001 16.92222636 -35 17 C-34.3791378 20.68297866 -33.93325018 22.57688029 -31 25 C-33.61530876 24.63926776 -34.79749727 24.20250273 -36.6875 22.3125 C-38 20 -38 20 -39 14 C-26.13 14 -13.26 14 0 14 C0 9.38 0 4.76 0 0 Z " fill="#F18B54" transform="translate(663,850)"/>
<path d="M0 0 C4.95933824 4.33409216 6.77475781 10.99215051 7.25390625 17.390625 C7.25049267 20.27168447 7.18062852 23.124996 7 26 C-5.64934646 27.04668888 -18.3191975 27.51395987 -31 28 C-29.7367158 31.35594194 -28.74084921 33.63290296 -26 36 C-28.3125 35.5625 -28.3125 35.5625 -31 34 C-31.99 31.03 -32.98 28.06 -34 25 C-20.8 25 -7.6 25 6 25 C4.67176693 13.45935868 4.67176693 13.45935868 0.8046875 3.671875 C0 2 0 2 0 0 Z " fill="#F1854B" transform="translate(396,839)"/>
<path d="M0 0 C5.34871091 -0.02518408 10.69738547 -0.04308238 16.04614258 -0.05493164 C17.85637006 -0.05988416 19.66659373 -0.06664799 21.47680664 -0.07543945 C34.02139304 -0.13472718 46.47993852 0.20523191 59 1 C59 1.33 59 1.66 59 2 C50.40951069 2.92748776 42.06258074 3.01285288 33.4375 2.625 C32.22545898 2.57609619 31.01341797 2.52719238 29.76464844 2.47680664 C19.83899931 2.06641165 9.91749229 1.57404204 0 1 C0 0.67 0 0.34 0 0 Z " fill="#EAA674" transform="translate(597,342)"/>
<path d="M0 0 C0.33 0 0.66 0 1 0 C1 2.97 1 5.94 1 9 C0.34 7.68 -0.32 6.36 -1 5 C-1.38929688 5.40992188 -1.77859375 5.81984375 -2.1796875 6.2421875 C-8.11965727 11.9631722 -13.56120389 13.05177811 -21.68359375 12.95703125 C-31.57981602 12.42018398 -31.57981602 12.42018398 -34 10 C-32.90042969 10.04640625 -31.80085938 10.0928125 -30.66796875 10.140625 C-20.26443486 10.44702722 -11.75782966 9.91532417 -2.875 3.875 C-0.93411922 2.13176157 -0.93411922 2.13176157 0 0 Z " fill="#F08852" transform="translate(321,878)"/>
<path d="M0 0 C5.61 0 11.22 0 17 0 C15.90842963 7.64099258 13.86130265 12.02677351 8 17 C5.4375 18.3125 5.4375 18.3125 3 19 C2.01 18.67 1.02 18.34 0 18 C1.28813342 17.16121545 2.58063256 16.32913217 3.875 15.5 C4.59429687 15.0359375 5.31359375 14.571875 6.0546875 14.09375 C8 13 8 13 10 13 C10.28617187 12.42765625 10.57234375 11.8553125 10.8671875 11.265625 C12.578125 7.84375 14.2890625 4.421875 16 1 C10.72 1 5.44 1 0 1 C0 0.67 0 0.34 0 0 Z " fill="#F18349" transform="translate(384,869)"/>
<path d="M0 0 C8.67254919 0.60297309 17.33850205 1.25441318 26 2 C24 4 24 4 22.07421875 4.265625 C15.00073984 4.21931745 7.88802522 3.68304689 1 2 C0.67 1.34 0.34 0.68 0 0 Z " fill="#F3B47E" transform="translate(593,665)"/>
<path d="M0 0 C0.33 0 0.66 0 1 0 C0.9278125 0.6084375 0.855625 1.216875 0.78125 1.84375 C-0.10824048 10.24449341 -0.09524389 18.565624 0 27 C-3.75073885 22.8435084 -3.36564384 19.42624024 -3.234375 14.05078125 C-2.85289712 9.08521085 -1.57319213 4.71957639 0 0 Z " fill="#F3B47E" transform="translate(540,553)"/>
<path d="M0 0 C13.365 0.495 13.365 0.495 27 1 C27 1.33 27 1.66 27 2 C19.08 2.33 11.16 2.66 3 3 C4.81335927 7.74178376 4.81335927 7.74178376 8 11 C5.6875 10.5625 5.6875 10.5625 3 9 C2.01 6.03 1.02 3.06 0 0 Z " fill="#F18C57" transform="translate(362,864)"/>
<path d="M0 0 C7.71589817 -0.1567564 15.31516461 0.32546899 23 1 C16.29790714 4.96175115 7.38601938 3.11487085 0 2 C0 1.34 0 0.68 0 0 Z " fill="#855134" transform="translate(480,703)"/>
<path d="M0 0 C7.92 0.33 15.84 0.66 24 1 C24 1.33 24 1.66 24 2 C14.43 2.33 4.86 2.66 -5 3 C-5 2.67 -5 2.34 -5 2 C-3.35 1.67 -1.7 1.34 0 1 C0 0.67 0 0.34 0 0 Z " fill="#D99465" transform="translate(611,369)"/>
<path d="M0 0 C0 0.66 0 1.32 0 2 C-2.43695715 2.22181406 -4.873526 2.42791119 -7.3125 2.625 C-8.34793945 2.72167969 -8.34793945 2.72167969 -9.40429688 2.8203125 C-13.2559972 3.11802847 -14.68854416 3.20763723 -18 1 C-11.95170514 0.10395632 -6.1105424 -0.11269443 0 0 Z " fill="#875034" transform="translate(589,373)"/>
<path d="M0 0 C0.33 0 0.66 0 1 0 C1.35621515 6.4118727 0.53060222 12.04495899 -2 18 C-2.66 18.33 -3.32 18.66 -4 19 C-3.37968409 12.42465139 -1.85102717 6.33307408 0 0 Z " fill="#E8995E" transform="translate(529,316)"/>
<path d="M0 0 C2.92312013 2.63080812 4.82765954 5.74148931 7 9 C8.62165531 11.04328569 10.30180916 13.01877735 12 15 C6.38787006 13.3965343 3.6172185 9.69536417 0.6875 4.8125 C0 3 0 3 0 0 Z " fill="#F08D59" transform="translate(608,870)"/>
<path d="M0 0 C0.70125 0.12375 1.4025 0.2475 2.125 0.375 C-0.72776137 3.30700474 -3.52579784 6.01815404 -6.875 8.375 C-7.535 7.715 -8.195 7.055 -8.875 6.375 C-3.7809081 0.49316193 -3.7809081 0.49316193 0 0 Z " fill="#F4B07B" transform="translate(554.875,536.625)"/>
<path d="M0 0 C0 0.66 0 1.32 0 2 C-6.08251096 3.70366626 -10.77104914 4.13253652 -17 3 C-17 2.67 -17 2.34 -17 2 C-14.91727106 1.66291092 -12.83378963 1.33046884 -10.75 1 C-9.58984375 0.814375 -8.4296875 0.62875 -7.234375 0.4375 C-4 0 -4 0 0 0 Z " fill="#875235" transform="translate(657,367)"/>
<path d="M0 0 C2 1 2 1 2.75 3.1875 C3.05194616 6.58439429 2.24302818 8.85586991 1 12 C0.34 12 -0.32 12 -1 12 C-1.33 12.99 -1.66 13.98 -2 15 C-1.03644647 4.44191344 -1.03644647 4.44191344 0 0 Z " fill="#EAA875" transform="translate(527,434)"/>
<path d="M0 0 C1.08667969 0.19464844 2.17335938 0.38929688 3.29296875 0.58984375 C4.54013672 0.82380859 4.54013672 0.82380859 5.8125 1.0625 C5.4825 1.7225 5.1525 2.3825 4.8125 3.0625 C3.04094346 2.94820603 1.27023771 2.82066963 -0.5 2.6875 C-1.48613281 2.61789062 -2.47226562 2.54828125 -3.48828125 2.4765625 C-6.1875 2.0625 -6.1875 2.0625 -9.1875 0.0625 C-5.61369658 -1.12876781 -3.67866698 -0.6724445 0 0 Z " fill="#EFAD78" transform="translate(472.1875,685.9375)"/>
<path d="M0 0 C1.81495662 0.44850658 3.62693134 0.90909571 5.4375 1.375 C6.95150391 1.75785156 6.95150391 1.75785156 8.49609375 2.1484375 C11 3 11 3 12 5 C7.03083364 4.48594831 2.70973649 3.76615118 -2 2 C-1.34 1.34 -0.68 0.68 0 0 Z " fill="#EEAD78" transform="translate(445,680)"/>
<path d="M0 0 C10.55808656 0.96355353 10.55808656 0.96355353 15 2 C15 2.33 15 2.66 15 3 C4.84682713 4.61050328 4.84682713 4.61050328 1.3125 2.0625 C0.879375 1.381875 0.44625 0.70125 0 0 Z " fill="#FDC38B" transform="translate(578,679)"/>
<path d="M0 0 C0.66 0.66 1.32 1.32 2 2 C-1.08812315 5.35281942 -3.52476282 7.82230601 -8 9 C-8.99 8.67 -9.98 8.34 -11 8 C-9.71186658 7.16121545 -8.41936744 6.32913217 -7.125 5.5 C-6.40570313 5.0359375 -5.68640625 4.571875 -4.9453125 4.09375 C-3 3 -3 3 -1 3 C-0.67 2.01 -0.34 1.02 0 0 Z " fill="#F18D58" transform="translate(395,879)"/>
<path d="M0 0 C0.33 0 0.66 0 1 0 C1 3.63 1 7.26 1 11 C1.66 11 2.32 11 3 11 C2.01 14.465 2.01 14.465 1 18 C0.67 18 0.34 18 0 18 C0 12.06 0 6.12 0 0 Z " fill="#FCC288" transform="translate(530,386)"/>
<path d="M0 0 C1.76923828 0.01353516 1.76923828 0.01353516 3.57421875 0.02734375 C4.47785156 0.03894531 5.38148438 0.05054687 6.3125 0.0625 C6.3125 0.3925 6.3125 0.7225 6.3125 1.0625 C4.02309044 1.45104209 1.73085426 1.8229628 -0.5625 2.1875 C-2.47675781 2.50074219 -2.47675781 2.50074219 -4.4296875 2.8203125 C-6.04230469 2.94019531 -6.04230469 2.94019531 -7.6875 3.0625 C-8.3475 2.4025 -9.0075 1.7425 -9.6875 1.0625 C-6.26517028 -0.07827657 -3.60076783 -0.03565117 0 0 Z " fill="#E9A471" transform="translate(495.6875,125.9375)"/>
<path d="M0 0 C4.82360189 -0.19294408 8.49646738 0.24252386 13 2 C13 2.33 13 2.66 13 3 C8.07872966 3.16682272 4.49656104 3.24828052 0 1 C0 0.67 0 0.34 0 0 Z " fill="#EAA874" transform="translate(593,665)"/>
<path d="M0 0 C-1.44390925 3.80666984 -3.34952803 5.26602582 -7 7 C-7.66 6.67 -8.32 6.34 -9 6 C-7.8803014 4.99406757 -6.7540588 3.9954151 -5.625 3 C-4.68527344 2.1646875 -4.68527344 2.1646875 -3.7265625 1.3125 C-2 0 -2 0 0 0 Z " fill="#F1AF7B" transform="translate(557,394)"/>
<path d="M0 0 C0.33 0.66 0.66 1.32 1 2 C0.00390625 4.3828125 0.00390625 4.3828125 -1.4375 7.125 C-1.91058594 8.03507813 -2.38367188 8.94515625 -2.87109375 9.8828125 C-3.24363281 10.58148437 -3.61617188 11.28015625 -4 12 C-5.03596041 8.78782744 -5.07584301 8.1805786 -3.6875 4.875 C-2 2 -2 2 0 0 Z " fill="#F08851" transform="translate(286,828)"/>
<path d="M0 0 C0.99 0.495 0.99 0.495 2 1 C2.4140625 3.28515625 2.4140625 3.28515625 2.625 6.0625 C2.69976562 6.98160156 2.77453125 7.90070312 2.8515625 8.84765625 C2.92503906 9.91306641 2.92503906 9.91306641 3 11 C2.67 10.01 2.34 9.02 2 8 C1.34 8 0.68 8 0 8 C0 5.36 0 2.72 0 0 Z " fill="#F28E5A" transform="translate(467,872)"/>
<path d="M0 0 C1 3 1 3 0.07421875 5.04296875 C-0.61220703 6.10451172 -0.61220703 6.10451172 -1.3125 7.1875 C-1.76238281 7.90292969 -2.21226562 8.61835937 -2.67578125 9.35546875 C-3.11277344 9.89816406 -3.54976562 10.44085937 -4 11 C-4.66 11 -5.32 11 -6 11 C-4.18690997 7.22272911 -2.0926741 3.62730178 0 0 Z " fill="#F08953" transform="translate(759,866)"/>
<path d="M0 0 C0.33 0 0.66 0 1 0 C0.67 3.63 0.34 7.26 0 11 C-0.66 10.67 -1.32 10.34 -2 10 C-1.54177532 6.53058454 -1.10868317 3.32604951 0 0 Z " fill="#ECAD77" transform="translate(540,553)"/>
<path d="M0 0 C2.64 0.33 5.28 0.66 8 1 C8 1.66 8 2.32 8 3 C5.36 2.67 2.72 2.34 0 2 C0 1.34 0 0.68 0 0 Z " fill="#EB9C60" transform="translate(683,330)"/>
</svg>
